G04 EAGLE Gerber RS-274X export*
G75*
%MOMM*%
%FSLAX34Y34*%
%LPD*%
%INTop Copper*%
%IPPOS*%
%AMOC8*
5,1,8,0,0,1.08239X$1,22.5*%
G01*
%ADD10C,1.650000*%
%ADD11P,1.429621X8X202.500000*%
%ADD12C,1.320800*%
%ADD13C,1.320800*%
%ADD14R,1.676400X1.676400*%
%ADD15P,1.814519X8X292.500000*%
%ADD16R,3.116000X3.116000*%
%ADD17P,1.429621X8X22.500000*%
%ADD18P,1.429621X8X112.500000*%
%ADD19C,1.117600*%
%ADD20C,1.524000*%
%ADD21C,0.406400*%
%ADD22C,0.609600*%
%ADD23C,0.756400*%

G36*
X470426Y10163D02*
X470426Y10163D01*
X470444Y10161D01*
X470626Y10182D01*
X470809Y10201D01*
X470826Y10206D01*
X470843Y10208D01*
X471018Y10265D01*
X471194Y10319D01*
X471209Y10327D01*
X471226Y10333D01*
X471386Y10423D01*
X471548Y10511D01*
X471561Y10522D01*
X471577Y10531D01*
X471716Y10651D01*
X471857Y10768D01*
X471868Y10782D01*
X471882Y10794D01*
X471994Y10939D01*
X472109Y11082D01*
X472117Y11098D01*
X472128Y11112D01*
X472210Y11277D01*
X472295Y11439D01*
X472300Y11456D01*
X472308Y11472D01*
X472355Y11651D01*
X472406Y11826D01*
X472408Y11844D01*
X472412Y11861D01*
X472439Y12192D01*
X472439Y249519D01*
X472438Y249528D01*
X472439Y249537D01*
X472418Y249729D01*
X472399Y249920D01*
X472397Y249928D01*
X472396Y249937D01*
X472338Y250119D01*
X472281Y250305D01*
X472277Y250313D01*
X472274Y250321D01*
X472181Y250489D01*
X472089Y250659D01*
X472084Y250665D01*
X472079Y250673D01*
X471954Y250821D01*
X471832Y250968D01*
X471825Y250973D01*
X471819Y250980D01*
X471667Y251100D01*
X471518Y251220D01*
X471510Y251224D01*
X471503Y251230D01*
X471331Y251317D01*
X471161Y251406D01*
X471152Y251408D01*
X471144Y251412D01*
X470958Y251464D01*
X470774Y251517D01*
X470765Y251518D01*
X470756Y251520D01*
X470564Y251534D01*
X470372Y251550D01*
X470364Y251549D01*
X470355Y251550D01*
X470162Y251525D01*
X469973Y251503D01*
X469964Y251500D01*
X469955Y251499D01*
X469772Y251438D01*
X469590Y251378D01*
X469582Y251374D01*
X469574Y251371D01*
X469407Y251275D01*
X469239Y251180D01*
X469232Y251175D01*
X469225Y251170D01*
X468972Y250955D01*
X467612Y249595D01*
X435188Y249595D01*
X434295Y250488D01*
X434295Y282912D01*
X435188Y283805D01*
X467612Y283805D01*
X468972Y282445D01*
X468979Y282439D01*
X468984Y282432D01*
X469134Y282312D01*
X469283Y282190D01*
X469291Y282185D01*
X469298Y282180D01*
X469468Y282091D01*
X469639Y282001D01*
X469648Y281998D01*
X469655Y281994D01*
X469840Y281941D01*
X470025Y281886D01*
X470034Y281885D01*
X470042Y281883D01*
X470233Y281867D01*
X470426Y281850D01*
X470435Y281851D01*
X470444Y281850D01*
X470633Y281872D01*
X470826Y281893D01*
X470835Y281896D01*
X470843Y281897D01*
X471025Y281956D01*
X471210Y282015D01*
X471218Y282019D01*
X471226Y282022D01*
X471393Y282116D01*
X471562Y282209D01*
X471569Y282215D01*
X471577Y282220D01*
X471722Y282345D01*
X471869Y282470D01*
X471875Y282477D01*
X471882Y282483D01*
X471998Y282633D01*
X472119Y282786D01*
X472123Y282794D01*
X472128Y282801D01*
X472214Y282972D01*
X472301Y283145D01*
X472304Y283153D01*
X472308Y283161D01*
X472358Y283347D01*
X472409Y283533D01*
X472410Y283542D01*
X472412Y283550D01*
X472439Y283881D01*
X472439Y345818D01*
X472438Y345831D01*
X472439Y345845D01*
X472418Y346031D01*
X472399Y346218D01*
X472395Y346231D01*
X472394Y346245D01*
X472336Y346424D01*
X472281Y346603D01*
X472275Y346615D01*
X472271Y346628D01*
X472179Y346793D01*
X472089Y346957D01*
X472081Y346968D01*
X472074Y346979D01*
X471952Y347123D01*
X471832Y347267D01*
X471821Y347275D01*
X471813Y347285D01*
X471664Y347402D01*
X471518Y347519D01*
X471506Y347525D01*
X471496Y347533D01*
X471326Y347618D01*
X471161Y347705D01*
X471148Y347708D01*
X471136Y347714D01*
X470953Y347764D01*
X470774Y347816D01*
X470760Y347817D01*
X470747Y347821D01*
X470559Y347833D01*
X470372Y347849D01*
X470359Y347847D01*
X470346Y347848D01*
X470158Y347824D01*
X469973Y347802D01*
X469960Y347798D01*
X469947Y347796D01*
X469631Y347694D01*
X466639Y346455D01*
X447761Y346455D01*
X444400Y347847D01*
X441827Y350420D01*
X440435Y353781D01*
X440435Y357419D01*
X441827Y360780D01*
X444400Y363353D01*
X447761Y364745D01*
X466639Y364745D01*
X469631Y363506D01*
X469644Y363502D01*
X469655Y363495D01*
X469835Y363444D01*
X470016Y363389D01*
X470029Y363388D01*
X470042Y363384D01*
X470230Y363369D01*
X470417Y363351D01*
X470430Y363352D01*
X470444Y363351D01*
X470630Y363373D01*
X470817Y363393D01*
X470830Y363397D01*
X470843Y363398D01*
X471022Y363456D01*
X471202Y363512D01*
X471213Y363519D01*
X471226Y363523D01*
X471390Y363615D01*
X471555Y363706D01*
X471565Y363714D01*
X471577Y363721D01*
X471719Y363843D01*
X471863Y363965D01*
X471871Y363975D01*
X471882Y363984D01*
X471996Y364132D01*
X472114Y364280D01*
X472120Y364292D01*
X472128Y364302D01*
X472212Y364470D01*
X472298Y364638D01*
X472302Y364651D01*
X472308Y364663D01*
X472357Y364845D01*
X472408Y365025D01*
X472409Y365038D01*
X472412Y365051D01*
X472439Y365382D01*
X472439Y371218D01*
X472438Y371231D01*
X472439Y371245D01*
X472418Y371431D01*
X472399Y371618D01*
X472395Y371631D01*
X472394Y371645D01*
X472336Y371824D01*
X472281Y372003D01*
X472275Y372015D01*
X472271Y372028D01*
X472179Y372193D01*
X472089Y372357D01*
X472081Y372368D01*
X472074Y372379D01*
X471952Y372523D01*
X471832Y372667D01*
X471821Y372675D01*
X471813Y372685D01*
X471664Y372802D01*
X471518Y372919D01*
X471506Y372925D01*
X471496Y372933D01*
X471326Y373018D01*
X471161Y373105D01*
X471148Y373108D01*
X471136Y373114D01*
X470953Y373164D01*
X470774Y373216D01*
X470760Y373217D01*
X470747Y373221D01*
X470559Y373233D01*
X470372Y373249D01*
X470359Y373247D01*
X470346Y373248D01*
X470158Y373224D01*
X469973Y373202D01*
X469960Y373198D01*
X469947Y373196D01*
X469631Y373094D01*
X466639Y371855D01*
X447761Y371855D01*
X444400Y373247D01*
X441827Y375820D01*
X441674Y376189D01*
X441664Y376209D01*
X441657Y376230D01*
X441569Y376386D01*
X441484Y376544D01*
X441470Y376561D01*
X441459Y376581D01*
X441342Y376717D01*
X441228Y376855D01*
X441211Y376869D01*
X441196Y376886D01*
X441055Y376995D01*
X440915Y377108D01*
X440895Y377119D01*
X440878Y377132D01*
X440718Y377212D01*
X440559Y377295D01*
X440537Y377302D01*
X440517Y377312D01*
X440344Y377358D01*
X440172Y377408D01*
X440150Y377410D01*
X440129Y377416D01*
X439798Y377443D01*
X434115Y377443D01*
X434088Y377441D01*
X434061Y377443D01*
X433887Y377421D01*
X433714Y377403D01*
X433689Y377396D01*
X433662Y377392D01*
X433496Y377337D01*
X433329Y377285D01*
X433306Y377272D01*
X433280Y377264D01*
X433129Y377177D01*
X432975Y377093D01*
X432955Y377076D01*
X432931Y377063D01*
X432678Y376848D01*
X410552Y354722D01*
X410535Y354701D01*
X410514Y354683D01*
X410407Y354546D01*
X410297Y354410D01*
X410284Y354387D01*
X410268Y354365D01*
X410190Y354208D01*
X410108Y354054D01*
X410100Y354029D01*
X410088Y354005D01*
X410043Y353835D01*
X409993Y353669D01*
X409991Y353642D01*
X409984Y353616D01*
X409957Y353285D01*
X409957Y350156D01*
X409958Y350148D01*
X409957Y350139D01*
X409978Y349945D01*
X409997Y349756D01*
X409999Y349747D01*
X410000Y349738D01*
X410058Y349556D01*
X410115Y349371D01*
X410119Y349363D01*
X410122Y349354D01*
X410215Y349186D01*
X410307Y349017D01*
X410312Y349010D01*
X410317Y349002D01*
X410441Y348855D01*
X410564Y348708D01*
X410571Y348702D01*
X410577Y348695D01*
X410728Y348576D01*
X410878Y348455D01*
X410886Y348451D01*
X410893Y348446D01*
X411066Y348358D01*
X411235Y348270D01*
X411244Y348267D01*
X411252Y348263D01*
X411438Y348211D01*
X411622Y348158D01*
X411631Y348158D01*
X411640Y348155D01*
X411833Y348141D01*
X412024Y348125D01*
X412032Y348126D01*
X412041Y348126D01*
X412234Y348150D01*
X412423Y348172D01*
X412432Y348175D01*
X412441Y348176D01*
X412624Y348238D01*
X412806Y348297D01*
X412814Y348302D01*
X412822Y348304D01*
X412988Y348400D01*
X413157Y348495D01*
X413164Y348501D01*
X413171Y348505D01*
X413424Y348720D01*
X415733Y351029D01*
X422467Y351029D01*
X427229Y346267D01*
X427229Y339533D01*
X423252Y335556D01*
X423235Y335535D01*
X423214Y335518D01*
X423107Y335380D01*
X422997Y335244D01*
X422984Y335221D01*
X422968Y335200D01*
X422890Y335043D01*
X422808Y334889D01*
X422800Y334863D01*
X422788Y334839D01*
X422743Y334670D01*
X422693Y334503D01*
X422691Y334476D01*
X422684Y334450D01*
X422657Y334120D01*
X422657Y230915D01*
X422659Y230888D01*
X422657Y230861D01*
X422679Y230687D01*
X422697Y230514D01*
X422704Y230489D01*
X422708Y230462D01*
X422763Y230296D01*
X422815Y230129D01*
X422828Y230106D01*
X422836Y230080D01*
X422923Y229929D01*
X423007Y229775D01*
X423024Y229755D01*
X423037Y229731D01*
X423252Y229478D01*
X435357Y217373D01*
X435357Y207595D01*
X435359Y207568D01*
X435357Y207542D01*
X435379Y207368D01*
X435397Y207194D01*
X435404Y207169D01*
X435408Y207142D01*
X435463Y206976D01*
X435515Y206809D01*
X435528Y206786D01*
X435536Y206760D01*
X435623Y206609D01*
X435707Y206455D01*
X435724Y206435D01*
X435737Y206412D01*
X435952Y206159D01*
X441307Y200803D01*
X441307Y192597D01*
X435503Y186793D01*
X427297Y186793D01*
X421493Y192597D01*
X421493Y200803D01*
X427648Y206959D01*
X427665Y206979D01*
X427686Y206997D01*
X427793Y207135D01*
X427903Y207270D01*
X427916Y207294D01*
X427932Y207315D01*
X428010Y207472D01*
X428092Y207626D01*
X428100Y207651D01*
X428112Y207675D01*
X428157Y207845D01*
X428207Y208012D01*
X428209Y208038D01*
X428216Y208064D01*
X428243Y208395D01*
X428243Y213585D01*
X428241Y213612D01*
X428243Y213639D01*
X428221Y213813D01*
X428203Y213986D01*
X428196Y214011D01*
X428192Y214038D01*
X428137Y214204D01*
X428085Y214371D01*
X428072Y214394D01*
X428064Y214420D01*
X427977Y214571D01*
X427893Y214725D01*
X427876Y214745D01*
X427863Y214769D01*
X427648Y215022D01*
X415543Y227127D01*
X415543Y334120D01*
X415541Y334146D01*
X415543Y334173D01*
X415521Y334347D01*
X415503Y334520D01*
X415496Y334546D01*
X415492Y334572D01*
X415437Y334738D01*
X415385Y334905D01*
X415372Y334929D01*
X415364Y334954D01*
X415277Y335106D01*
X415193Y335259D01*
X415176Y335280D01*
X415163Y335303D01*
X414948Y335556D01*
X413424Y337080D01*
X413417Y337086D01*
X413412Y337092D01*
X413262Y337213D01*
X413113Y337335D01*
X413105Y337339D01*
X413098Y337345D01*
X412927Y337434D01*
X412757Y337524D01*
X412749Y337526D01*
X412741Y337530D01*
X412555Y337584D01*
X412371Y337638D01*
X412362Y337639D01*
X412354Y337642D01*
X412162Y337657D01*
X411970Y337675D01*
X411961Y337674D01*
X411952Y337675D01*
X411763Y337652D01*
X411570Y337631D01*
X411561Y337629D01*
X411553Y337628D01*
X411371Y337568D01*
X411186Y337510D01*
X411178Y337506D01*
X411170Y337503D01*
X411001Y337408D01*
X410834Y337315D01*
X410827Y337309D01*
X410819Y337305D01*
X410673Y337179D01*
X410527Y337055D01*
X410521Y337048D01*
X410514Y337042D01*
X410397Y336890D01*
X410277Y336739D01*
X410273Y336731D01*
X410268Y336724D01*
X410182Y336552D01*
X410095Y336380D01*
X410092Y336371D01*
X410088Y336363D01*
X410038Y336177D01*
X409987Y335992D01*
X409986Y335983D01*
X409984Y335974D01*
X409957Y335644D01*
X409957Y207995D01*
X409959Y207968D01*
X409957Y207942D01*
X409979Y207768D01*
X409997Y207594D01*
X410004Y207569D01*
X410008Y207542D01*
X410063Y207376D01*
X410115Y207209D01*
X410128Y207186D01*
X410136Y207160D01*
X410223Y207009D01*
X410307Y206855D01*
X410324Y206835D01*
X410337Y206812D01*
X410552Y206559D01*
X416307Y200803D01*
X416307Y192597D01*
X410503Y186793D01*
X402297Y186793D01*
X400724Y188366D01*
X400717Y188371D01*
X400712Y188378D01*
X400562Y188498D01*
X400413Y188621D01*
X400405Y188625D01*
X400398Y188630D01*
X400228Y188719D01*
X400057Y188809D01*
X400048Y188812D01*
X400041Y188816D01*
X399856Y188869D01*
X399671Y188924D01*
X399662Y188925D01*
X399654Y188927D01*
X399463Y188943D01*
X399270Y188960D01*
X399261Y188959D01*
X399252Y188960D01*
X399063Y188938D01*
X398870Y188917D01*
X398861Y188914D01*
X398853Y188913D01*
X398671Y188854D01*
X398486Y188795D01*
X398478Y188791D01*
X398470Y188788D01*
X398301Y188693D01*
X398134Y188601D01*
X398127Y188595D01*
X398119Y188590D01*
X397973Y188465D01*
X397827Y188340D01*
X397821Y188333D01*
X397814Y188327D01*
X397697Y188176D01*
X397577Y188024D01*
X397573Y188016D01*
X397568Y188009D01*
X397482Y187837D01*
X397395Y187665D01*
X397392Y187657D01*
X397388Y187649D01*
X397338Y187463D01*
X397287Y187277D01*
X397286Y187269D01*
X397284Y187260D01*
X397257Y186929D01*
X397257Y163627D01*
X394578Y160948D01*
X374202Y140572D01*
X374185Y140551D01*
X374164Y140534D01*
X374057Y140396D01*
X373947Y140260D01*
X373934Y140237D01*
X373918Y140215D01*
X373840Y140058D01*
X373758Y139904D01*
X373750Y139879D01*
X373738Y139855D01*
X373693Y139685D01*
X373643Y139519D01*
X373641Y139492D01*
X373634Y139466D01*
X373607Y139135D01*
X373607Y138644D01*
X372799Y136694D01*
X371306Y135201D01*
X369356Y134393D01*
X367244Y134393D01*
X365294Y135201D01*
X363801Y136694D01*
X362993Y138644D01*
X362993Y140756D01*
X363801Y142706D01*
X365294Y144199D01*
X367244Y145007D01*
X367735Y145007D01*
X367762Y145009D01*
X367789Y145007D01*
X367963Y145029D01*
X368136Y145047D01*
X368162Y145054D01*
X368188Y145058D01*
X368354Y145114D01*
X368521Y145165D01*
X368545Y145178D01*
X368570Y145186D01*
X368721Y145273D01*
X368875Y145357D01*
X368895Y145374D01*
X368919Y145387D01*
X369172Y145602D01*
X389548Y165978D01*
X389565Y165999D01*
X389586Y166017D01*
X389693Y166154D01*
X389803Y166290D01*
X389816Y166313D01*
X389832Y166335D01*
X389910Y166491D01*
X389992Y166646D01*
X390000Y166671D01*
X390012Y166695D01*
X390057Y166865D01*
X390107Y167031D01*
X390109Y167058D01*
X390116Y167084D01*
X390143Y167415D01*
X390143Y184762D01*
X390141Y184780D01*
X390143Y184798D01*
X390122Y184980D01*
X390103Y185163D01*
X390098Y185180D01*
X390096Y185197D01*
X390039Y185372D01*
X389985Y185548D01*
X389977Y185563D01*
X389971Y185580D01*
X389881Y185740D01*
X389793Y185902D01*
X389782Y185915D01*
X389773Y185931D01*
X389653Y186070D01*
X389536Y186211D01*
X389522Y186222D01*
X389510Y186236D01*
X389365Y186348D01*
X389222Y186463D01*
X389206Y186471D01*
X389192Y186482D01*
X389027Y186564D01*
X388865Y186649D01*
X388848Y186654D01*
X388832Y186662D01*
X388653Y186709D01*
X388478Y186760D01*
X388460Y186762D01*
X388443Y186766D01*
X388112Y186793D01*
X372386Y186793D01*
X371493Y187686D01*
X371493Y205955D01*
X371495Y205959D01*
X371545Y206136D01*
X371597Y206312D01*
X371599Y206330D01*
X371603Y206347D01*
X371617Y206530D01*
X371633Y206713D01*
X371631Y206731D01*
X371633Y206748D01*
X371610Y206931D01*
X371590Y207113D01*
X371585Y207130D01*
X371582Y207148D01*
X371524Y207322D01*
X371469Y207497D01*
X371460Y207513D01*
X371454Y207530D01*
X371362Y207689D01*
X371274Y207849D01*
X371262Y207863D01*
X371253Y207878D01*
X371039Y208131D01*
X301243Y277927D01*
X301243Y296020D01*
X301241Y296046D01*
X301243Y296073D01*
X301221Y296247D01*
X301203Y296420D01*
X301196Y296446D01*
X301192Y296472D01*
X301136Y296638D01*
X301085Y296805D01*
X301072Y296829D01*
X301064Y296854D01*
X300977Y297006D01*
X300893Y297159D01*
X300876Y297180D01*
X300863Y297203D01*
X300648Y297456D01*
X296671Y301433D01*
X296671Y308167D01*
X301433Y312929D01*
X308167Y312929D01*
X312929Y308167D01*
X312929Y301433D01*
X308952Y297456D01*
X308935Y297435D01*
X308914Y297418D01*
X308807Y297280D01*
X308697Y297144D01*
X308684Y297121D01*
X308668Y297100D01*
X308590Y296943D01*
X308508Y296789D01*
X308500Y296763D01*
X308488Y296739D01*
X308443Y296570D01*
X308393Y296403D01*
X308391Y296376D01*
X308384Y296350D01*
X308357Y296020D01*
X308357Y281715D01*
X308359Y281688D01*
X308357Y281661D01*
X308379Y281487D01*
X308397Y281314D01*
X308404Y281289D01*
X308408Y281262D01*
X308463Y281096D01*
X308515Y280929D01*
X308528Y280906D01*
X308536Y280880D01*
X308623Y280729D01*
X308707Y280575D01*
X308724Y280555D01*
X308737Y280531D01*
X308952Y280278D01*
X340828Y248402D01*
X340835Y248397D01*
X340840Y248390D01*
X340850Y248382D01*
X340856Y248375D01*
X340934Y248314D01*
X340990Y248269D01*
X341139Y248147D01*
X341147Y248143D01*
X341154Y248137D01*
X341325Y248049D01*
X341495Y247959D01*
X341503Y247956D01*
X341511Y247952D01*
X341697Y247899D01*
X341881Y247844D01*
X341890Y247843D01*
X341898Y247841D01*
X342090Y247825D01*
X342282Y247807D01*
X342291Y247808D01*
X342300Y247808D01*
X342489Y247830D01*
X342532Y247834D01*
X342523Y247719D01*
X342508Y247528D01*
X342509Y247520D01*
X342508Y247511D01*
X342532Y247318D01*
X342555Y247129D01*
X342557Y247120D01*
X342558Y247111D01*
X342620Y246929D01*
X342679Y246746D01*
X342684Y246738D01*
X342687Y246730D01*
X342783Y246563D01*
X342877Y246395D01*
X342883Y246388D01*
X342888Y246381D01*
X343102Y246128D01*
X382028Y207202D01*
X382049Y207185D01*
X382067Y207164D01*
X382204Y207057D01*
X382340Y206947D01*
X382363Y206934D01*
X382385Y206918D01*
X382542Y206840D01*
X382696Y206758D01*
X382721Y206750D01*
X382745Y206738D01*
X382915Y206693D01*
X383081Y206643D01*
X383108Y206641D01*
X383134Y206634D01*
X383465Y206607D01*
X388112Y206607D01*
X388130Y206609D01*
X388148Y206607D01*
X388330Y206628D01*
X388513Y206647D01*
X388530Y206652D01*
X388547Y206654D01*
X388722Y206711D01*
X388898Y206765D01*
X388913Y206773D01*
X388930Y206779D01*
X389090Y206869D01*
X389252Y206957D01*
X389265Y206968D01*
X389281Y206977D01*
X389420Y207097D01*
X389561Y207214D01*
X389572Y207228D01*
X389586Y207240D01*
X389698Y207385D01*
X389813Y207528D01*
X389821Y207544D01*
X389832Y207558D01*
X389914Y207723D01*
X389999Y207885D01*
X390004Y207902D01*
X390012Y207918D01*
X390059Y208097D01*
X390110Y208272D01*
X390112Y208290D01*
X390116Y208307D01*
X390143Y208638D01*
X390143Y414310D01*
X390141Y414337D01*
X390143Y414364D01*
X390121Y414538D01*
X390103Y414711D01*
X390096Y414737D01*
X390092Y414763D01*
X390037Y414928D01*
X389985Y415096D01*
X389972Y415120D01*
X389964Y415145D01*
X389877Y415297D01*
X389793Y415450D01*
X389776Y415471D01*
X389763Y415494D01*
X389548Y415747D01*
X389201Y416094D01*
X388393Y418044D01*
X388393Y420156D01*
X389201Y422106D01*
X390694Y423599D01*
X392644Y424407D01*
X394756Y424407D01*
X396706Y423599D01*
X398199Y422106D01*
X399007Y420156D01*
X399007Y418044D01*
X398199Y416094D01*
X397852Y415747D01*
X397835Y415726D01*
X397814Y415709D01*
X397707Y415571D01*
X397597Y415435D01*
X397584Y415412D01*
X397568Y415391D01*
X397490Y415234D01*
X397408Y415080D01*
X397400Y415054D01*
X397388Y415030D01*
X397343Y414861D01*
X397293Y414694D01*
X397291Y414667D01*
X397284Y414641D01*
X397257Y414310D01*
X397257Y206471D01*
X397258Y206462D01*
X397257Y206453D01*
X397278Y206261D01*
X397297Y206070D01*
X397299Y206062D01*
X397300Y206053D01*
X397358Y205870D01*
X397415Y205685D01*
X397419Y205677D01*
X397422Y205669D01*
X397515Y205500D01*
X397607Y205331D01*
X397612Y205324D01*
X397617Y205317D01*
X397742Y205169D01*
X397864Y205022D01*
X397871Y205016D01*
X397877Y205010D01*
X398029Y204890D01*
X398178Y204770D01*
X398186Y204766D01*
X398193Y204760D01*
X398365Y204673D01*
X398535Y204584D01*
X398544Y204582D01*
X398552Y204578D01*
X398738Y204526D01*
X398922Y204473D01*
X398931Y204472D01*
X398940Y204470D01*
X399132Y204456D01*
X399324Y204440D01*
X399332Y204441D01*
X399341Y204440D01*
X399534Y204465D01*
X399723Y204487D01*
X399732Y204490D01*
X399741Y204491D01*
X399924Y204552D01*
X400106Y204612D01*
X400114Y204616D01*
X400122Y204619D01*
X400288Y204714D01*
X400457Y204810D01*
X400464Y204815D01*
X400471Y204820D01*
X400724Y205035D01*
X402248Y206559D01*
X402265Y206579D01*
X402286Y206597D01*
X402393Y206735D01*
X402503Y206870D01*
X402516Y206894D01*
X402532Y206915D01*
X402610Y207071D01*
X402692Y207226D01*
X402700Y207251D01*
X402712Y207275D01*
X402757Y207444D01*
X402807Y207612D01*
X402809Y207638D01*
X402816Y207664D01*
X402843Y207995D01*
X402843Y357073D01*
X430327Y384557D01*
X439798Y384557D01*
X439820Y384559D01*
X439842Y384557D01*
X440020Y384579D01*
X440198Y384597D01*
X440220Y384603D01*
X440242Y384606D01*
X440412Y384662D01*
X440583Y384715D01*
X440603Y384725D01*
X440624Y384732D01*
X440780Y384821D01*
X440937Y384907D01*
X440955Y384921D01*
X440974Y384932D01*
X441109Y385050D01*
X441247Y385164D01*
X441261Y385182D01*
X441277Y385196D01*
X441387Y385339D01*
X441499Y385478D01*
X441509Y385498D01*
X441523Y385516D01*
X441674Y385811D01*
X441827Y386180D01*
X444400Y388753D01*
X447761Y390145D01*
X466639Y390145D01*
X469631Y388906D01*
X469644Y388902D01*
X469655Y388895D01*
X469835Y388844D01*
X470016Y388789D01*
X470029Y388788D01*
X470042Y388784D01*
X470230Y388769D01*
X470417Y388751D01*
X470430Y388752D01*
X470444Y388751D01*
X470630Y388773D01*
X470817Y388793D01*
X470830Y388797D01*
X470843Y388798D01*
X471022Y388856D01*
X471202Y388912D01*
X471213Y388919D01*
X471226Y388923D01*
X471390Y389015D01*
X471555Y389106D01*
X471565Y389114D01*
X471577Y389121D01*
X471719Y389243D01*
X471863Y389365D01*
X471871Y389375D01*
X471882Y389384D01*
X471996Y389532D01*
X472114Y389680D01*
X472120Y389692D01*
X472128Y389702D01*
X472212Y389870D01*
X472298Y390038D01*
X472302Y390051D01*
X472308Y390063D01*
X472357Y390245D01*
X472408Y390425D01*
X472409Y390438D01*
X472412Y390451D01*
X472439Y390782D01*
X472439Y978408D01*
X472437Y978426D01*
X472439Y978444D01*
X472418Y978626D01*
X472399Y978809D01*
X472394Y978826D01*
X472392Y978843D01*
X472335Y979018D01*
X472281Y979194D01*
X472273Y979209D01*
X472267Y979226D01*
X472177Y979386D01*
X472089Y979548D01*
X472078Y979561D01*
X472069Y979577D01*
X471949Y979716D01*
X471832Y979857D01*
X471818Y979868D01*
X471806Y979882D01*
X471661Y979994D01*
X471518Y980109D01*
X471502Y980117D01*
X471488Y980128D01*
X471323Y980210D01*
X471161Y980295D01*
X471144Y980300D01*
X471128Y980308D01*
X470949Y980355D01*
X470774Y980406D01*
X470756Y980408D01*
X470739Y980412D01*
X470408Y980439D01*
X417914Y980439D01*
X417841Y980432D01*
X417768Y980434D01*
X417641Y980412D01*
X417513Y980399D01*
X417443Y980378D01*
X417371Y980365D01*
X417251Y980319D01*
X417128Y980281D01*
X417064Y980246D01*
X416996Y980220D01*
X416887Y980151D01*
X416774Y980089D01*
X416718Y980043D01*
X416656Y980003D01*
X416564Y979914D01*
X416465Y979832D01*
X416419Y979775D01*
X416366Y979724D01*
X416293Y979618D01*
X416213Y979518D01*
X416179Y979453D01*
X416137Y979393D01*
X416086Y979274D01*
X416027Y979161D01*
X416007Y979090D01*
X415978Y979023D01*
X415951Y978897D01*
X415916Y978774D01*
X415910Y978701D01*
X415895Y978629D01*
X415893Y978501D01*
X415883Y978372D01*
X415892Y978300D01*
X415891Y978226D01*
X415915Y978100D01*
X415930Y977973D01*
X415953Y977903D01*
X415966Y977831D01*
X416015Y977712D01*
X416055Y977590D01*
X416091Y977526D01*
X416118Y977458D01*
X416190Y977351D01*
X416253Y977239D01*
X416301Y977184D01*
X416341Y977123D01*
X416432Y977032D01*
X416516Y976935D01*
X416574Y976890D01*
X416625Y976838D01*
X416765Y976741D01*
X416834Y976688D01*
X416863Y976673D01*
X416898Y976649D01*
X422464Y973435D01*
X427335Y968564D01*
X430780Y962598D01*
X432563Y955944D01*
X432563Y949056D01*
X430780Y942402D01*
X427335Y936436D01*
X422464Y931565D01*
X416498Y928120D01*
X409844Y926337D01*
X402956Y926337D01*
X396302Y928120D01*
X390336Y931565D01*
X385465Y936436D01*
X382020Y942402D01*
X380237Y949056D01*
X380237Y955944D01*
X382020Y962598D01*
X385465Y968564D01*
X390336Y973435D01*
X395902Y976649D01*
X395961Y976692D01*
X396026Y976727D01*
X396124Y976809D01*
X396229Y976884D01*
X396279Y976937D01*
X396335Y976984D01*
X396415Y977084D01*
X396503Y977179D01*
X396541Y977241D01*
X396587Y977298D01*
X396646Y977412D01*
X396714Y977522D01*
X396739Y977590D01*
X396773Y977655D01*
X396808Y977779D01*
X396853Y977899D01*
X396864Y977972D01*
X396884Y978042D01*
X396895Y978171D01*
X396914Y978297D01*
X396911Y978370D01*
X396917Y978444D01*
X396902Y978571D01*
X396896Y978700D01*
X396879Y978771D01*
X396870Y978843D01*
X396830Y978966D01*
X396799Y979090D01*
X396768Y979156D01*
X396745Y979226D01*
X396682Y979338D01*
X396627Y979454D01*
X396583Y979513D01*
X396547Y979577D01*
X396463Y979674D01*
X396387Y979777D01*
X396332Y979826D01*
X396284Y979882D01*
X396183Y979960D01*
X396087Y980046D01*
X396024Y980083D01*
X395966Y980128D01*
X395851Y980186D01*
X395740Y980251D01*
X395671Y980275D01*
X395606Y980308D01*
X395481Y980341D01*
X395360Y980383D01*
X395288Y980393D01*
X395217Y980412D01*
X395047Y980426D01*
X394961Y980438D01*
X394928Y980436D01*
X394886Y980439D01*
X305436Y980439D01*
X305418Y980437D01*
X305400Y980439D01*
X305218Y980418D01*
X305035Y980399D01*
X305018Y980394D01*
X305001Y980392D01*
X304826Y980335D01*
X304650Y980281D01*
X304635Y980273D01*
X304618Y980267D01*
X304458Y980177D01*
X304296Y980089D01*
X304283Y980078D01*
X304267Y980069D01*
X304128Y979949D01*
X303987Y979832D01*
X303976Y979818D01*
X303962Y979806D01*
X303850Y979661D01*
X303735Y979518D01*
X303727Y979502D01*
X303716Y979488D01*
X303634Y979323D01*
X303549Y979161D01*
X303544Y979144D01*
X303536Y979128D01*
X303489Y978949D01*
X303438Y978774D01*
X303436Y978756D01*
X303432Y978739D01*
X303405Y978408D01*
X303405Y948988D01*
X302512Y948095D01*
X270088Y948095D01*
X269195Y948988D01*
X269195Y978408D01*
X269193Y978426D01*
X269195Y978444D01*
X269174Y978626D01*
X269155Y978809D01*
X269150Y978826D01*
X269148Y978843D01*
X269091Y979018D01*
X269037Y979194D01*
X269029Y979209D01*
X269023Y979226D01*
X268933Y979386D01*
X268845Y979548D01*
X268834Y979561D01*
X268825Y979577D01*
X268705Y979716D01*
X268588Y979857D01*
X268574Y979868D01*
X268562Y979882D01*
X268417Y979994D01*
X268274Y980109D01*
X268258Y980117D01*
X268244Y980128D01*
X268079Y980210D01*
X267917Y980295D01*
X267900Y980300D01*
X267884Y980308D01*
X267705Y980355D01*
X267530Y980406D01*
X267512Y980408D01*
X267495Y980412D01*
X267164Y980439D01*
X215436Y980439D01*
X215418Y980437D01*
X215400Y980439D01*
X215218Y980418D01*
X215035Y980399D01*
X215018Y980394D01*
X215001Y980392D01*
X214826Y980335D01*
X214650Y980281D01*
X214635Y980273D01*
X214618Y980267D01*
X214458Y980177D01*
X214296Y980089D01*
X214283Y980078D01*
X214267Y980069D01*
X214128Y979949D01*
X213987Y979832D01*
X213976Y979818D01*
X213962Y979806D01*
X213850Y979661D01*
X213735Y979518D01*
X213727Y979502D01*
X213716Y979488D01*
X213634Y979323D01*
X213549Y979161D01*
X213544Y979144D01*
X213536Y979128D01*
X213489Y978949D01*
X213438Y978774D01*
X213436Y978756D01*
X213432Y978739D01*
X213405Y978408D01*
X213405Y948988D01*
X212512Y948095D01*
X180088Y948095D01*
X179195Y948988D01*
X179195Y978408D01*
X179193Y978426D01*
X179195Y978444D01*
X179174Y978626D01*
X179155Y978809D01*
X179150Y978826D01*
X179148Y978843D01*
X179091Y979018D01*
X179037Y979194D01*
X179029Y979209D01*
X179023Y979226D01*
X178933Y979386D01*
X178845Y979548D01*
X178834Y979561D01*
X178825Y979577D01*
X178705Y979716D01*
X178588Y979857D01*
X178574Y979868D01*
X178562Y979882D01*
X178417Y979994D01*
X178274Y980109D01*
X178258Y980117D01*
X178244Y980128D01*
X178079Y980210D01*
X177917Y980295D01*
X177900Y980300D01*
X177884Y980308D01*
X177705Y980355D01*
X177530Y980406D01*
X177512Y980408D01*
X177495Y980412D01*
X177164Y980439D01*
X12192Y980439D01*
X12174Y980437D01*
X12156Y980439D01*
X11974Y980418D01*
X11791Y980399D01*
X11774Y980394D01*
X11757Y980392D01*
X11582Y980335D01*
X11406Y980281D01*
X11391Y980273D01*
X11374Y980267D01*
X11214Y980177D01*
X11052Y980089D01*
X11039Y980078D01*
X11023Y980069D01*
X10884Y979949D01*
X10743Y979832D01*
X10732Y979818D01*
X10718Y979806D01*
X10606Y979661D01*
X10491Y979518D01*
X10483Y979502D01*
X10472Y979488D01*
X10390Y979323D01*
X10305Y979161D01*
X10300Y979144D01*
X10292Y979128D01*
X10245Y978949D01*
X10194Y978774D01*
X10192Y978756D01*
X10188Y978739D01*
X10161Y978408D01*
X10161Y898782D01*
X10162Y898769D01*
X10161Y898756D01*
X10182Y898569D01*
X10201Y898382D01*
X10205Y898369D01*
X10206Y898355D01*
X10264Y898177D01*
X10319Y897997D01*
X10325Y897985D01*
X10329Y897972D01*
X10421Y897808D01*
X10511Y897643D01*
X10519Y897632D01*
X10526Y897621D01*
X10648Y897477D01*
X10768Y897333D01*
X10779Y897325D01*
X10787Y897315D01*
X10936Y897199D01*
X11082Y897081D01*
X11094Y897075D01*
X11104Y897067D01*
X11273Y896982D01*
X11439Y896896D01*
X11452Y896892D01*
X11464Y896886D01*
X11646Y896836D01*
X11826Y896784D01*
X11840Y896783D01*
X11853Y896779D01*
X12041Y896767D01*
X12228Y896751D01*
X12241Y896753D01*
X12254Y896752D01*
X12442Y896776D01*
X12627Y896798D01*
X12640Y896802D01*
X12653Y896804D01*
X12969Y896906D01*
X15961Y898145D01*
X34839Y898145D01*
X38200Y896753D01*
X40773Y894180D01*
X42165Y890819D01*
X42165Y887181D01*
X40773Y883820D01*
X38200Y881247D01*
X34839Y879855D01*
X15961Y879855D01*
X12969Y881094D01*
X12956Y881098D01*
X12945Y881104D01*
X12764Y881156D01*
X12584Y881211D01*
X12571Y881212D01*
X12558Y881216D01*
X12370Y881231D01*
X12183Y881249D01*
X12170Y881248D01*
X12156Y881249D01*
X11969Y881227D01*
X11783Y881207D01*
X11770Y881203D01*
X11757Y881202D01*
X11577Y881143D01*
X11398Y881088D01*
X11387Y881081D01*
X11374Y881077D01*
X11209Y880984D01*
X11045Y880894D01*
X11035Y880886D01*
X11023Y880879D01*
X10881Y880756D01*
X10737Y880635D01*
X10729Y880625D01*
X10718Y880616D01*
X10603Y880467D01*
X10486Y880320D01*
X10480Y880308D01*
X10472Y880298D01*
X10388Y880129D01*
X10302Y879962D01*
X10298Y879949D01*
X10292Y879937D01*
X10243Y879754D01*
X10192Y879575D01*
X10191Y879562D01*
X10188Y879549D01*
X10161Y879218D01*
X10161Y873382D01*
X10162Y873369D01*
X10161Y873356D01*
X10182Y873169D01*
X10201Y872982D01*
X10205Y872969D01*
X10206Y872955D01*
X10264Y872777D01*
X10319Y872597D01*
X10325Y872585D01*
X10329Y872572D01*
X10421Y872408D01*
X10511Y872243D01*
X10519Y872232D01*
X10526Y872221D01*
X10648Y872077D01*
X10768Y871933D01*
X10779Y871925D01*
X10787Y871915D01*
X10936Y871799D01*
X11082Y871681D01*
X11094Y871675D01*
X11104Y871667D01*
X11273Y871582D01*
X11439Y871496D01*
X11452Y871492D01*
X11464Y871486D01*
X11646Y871436D01*
X11826Y871384D01*
X11840Y871383D01*
X11853Y871379D01*
X12041Y871367D01*
X12228Y871351D01*
X12241Y871353D01*
X12254Y871352D01*
X12442Y871376D01*
X12627Y871398D01*
X12640Y871402D01*
X12653Y871404D01*
X12969Y871506D01*
X15961Y872745D01*
X34839Y872745D01*
X38200Y871353D01*
X40773Y868780D01*
X42165Y865419D01*
X42165Y861781D01*
X40773Y858420D01*
X38200Y855847D01*
X34839Y854455D01*
X15961Y854455D01*
X12969Y855694D01*
X12956Y855698D01*
X12945Y855704D01*
X12764Y855756D01*
X12584Y855811D01*
X12571Y855812D01*
X12558Y855816D01*
X12370Y855831D01*
X12183Y855849D01*
X12170Y855848D01*
X12156Y855849D01*
X11969Y855827D01*
X11783Y855807D01*
X11770Y855803D01*
X11757Y855802D01*
X11577Y855743D01*
X11398Y855688D01*
X11387Y855681D01*
X11374Y855677D01*
X11209Y855584D01*
X11045Y855494D01*
X11035Y855486D01*
X11023Y855479D01*
X10881Y855356D01*
X10737Y855235D01*
X10729Y855225D01*
X10718Y855216D01*
X10603Y855067D01*
X10486Y854920D01*
X10480Y854908D01*
X10472Y854898D01*
X10388Y854729D01*
X10302Y854562D01*
X10298Y854549D01*
X10292Y854537D01*
X10243Y854354D01*
X10192Y854175D01*
X10191Y854162D01*
X10188Y854149D01*
X10161Y853818D01*
X10161Y847982D01*
X10162Y847969D01*
X10161Y847956D01*
X10182Y847769D01*
X10201Y847582D01*
X10205Y847569D01*
X10206Y847555D01*
X10264Y847377D01*
X10319Y847197D01*
X10325Y847185D01*
X10329Y847172D01*
X10421Y847008D01*
X10511Y846843D01*
X10519Y846832D01*
X10526Y846821D01*
X10648Y846677D01*
X10768Y846533D01*
X10779Y846525D01*
X10787Y846515D01*
X10936Y846399D01*
X11082Y846281D01*
X11094Y846275D01*
X11104Y846267D01*
X11273Y846182D01*
X11439Y846096D01*
X11452Y846092D01*
X11464Y846086D01*
X11646Y846036D01*
X11826Y845984D01*
X11840Y845983D01*
X11853Y845979D01*
X12041Y845967D01*
X12228Y845951D01*
X12241Y845953D01*
X12254Y845952D01*
X12442Y845976D01*
X12627Y845998D01*
X12640Y846002D01*
X12653Y846004D01*
X12969Y846106D01*
X15596Y847194D01*
X15597Y847194D01*
X15961Y847345D01*
X34839Y847345D01*
X38200Y845953D01*
X40773Y843380D01*
X40926Y843011D01*
X40936Y842991D01*
X40943Y842970D01*
X41031Y842814D01*
X41116Y842656D01*
X41130Y842639D01*
X41141Y842619D01*
X41258Y842483D01*
X41372Y842345D01*
X41389Y842331D01*
X41404Y842314D01*
X41545Y842205D01*
X41685Y842092D01*
X41705Y842081D01*
X41722Y842068D01*
X41882Y841988D01*
X42041Y841905D01*
X42063Y841898D01*
X42083Y841888D01*
X42256Y841842D01*
X42428Y841792D01*
X42450Y841790D01*
X42471Y841784D01*
X42802Y841757D01*
X58710Y841757D01*
X58737Y841759D01*
X58764Y841757D01*
X58938Y841779D01*
X59111Y841797D01*
X59137Y841804D01*
X59163Y841808D01*
X59329Y841863D01*
X59496Y841915D01*
X59520Y841928D01*
X59545Y841936D01*
X59697Y842023D01*
X59850Y842107D01*
X59871Y842124D01*
X59894Y842137D01*
X60147Y842352D01*
X60494Y842699D01*
X61538Y843131D01*
X62444Y843507D01*
X64556Y843507D01*
X66506Y842699D01*
X67999Y841206D01*
X68807Y839256D01*
X68807Y837144D01*
X67999Y835194D01*
X66506Y833701D01*
X64556Y832893D01*
X62444Y832893D01*
X60494Y833701D01*
X60147Y834048D01*
X60126Y834065D01*
X60109Y834086D01*
X59971Y834193D01*
X59835Y834303D01*
X59812Y834316D01*
X59791Y834332D01*
X59634Y834410D01*
X59480Y834492D01*
X59454Y834500D01*
X59430Y834512D01*
X59261Y834557D01*
X59094Y834607D01*
X59067Y834609D01*
X59041Y834616D01*
X58710Y834643D01*
X42802Y834643D01*
X42780Y834641D01*
X42758Y834643D01*
X42580Y834621D01*
X42402Y834603D01*
X42380Y834597D01*
X42358Y834594D01*
X42188Y834538D01*
X42017Y834485D01*
X41997Y834475D01*
X41976Y834468D01*
X41820Y834379D01*
X41663Y834293D01*
X41645Y834279D01*
X41626Y834268D01*
X41491Y834150D01*
X41353Y834036D01*
X41339Y834018D01*
X41323Y834004D01*
X41213Y833861D01*
X41101Y833722D01*
X41091Y833702D01*
X41077Y833684D01*
X40926Y833389D01*
X40773Y833020D01*
X38200Y830447D01*
X34839Y829055D01*
X15961Y829055D01*
X12969Y830294D01*
X12956Y830298D01*
X12945Y830304D01*
X12764Y830356D01*
X12584Y830411D01*
X12571Y830412D01*
X12558Y830416D01*
X12370Y830431D01*
X12183Y830449D01*
X12170Y830448D01*
X12156Y830449D01*
X11969Y830427D01*
X11783Y830407D01*
X11770Y830403D01*
X11757Y830402D01*
X11577Y830343D01*
X11398Y830288D01*
X11387Y830281D01*
X11374Y830277D01*
X11209Y830184D01*
X11045Y830094D01*
X11035Y830086D01*
X11023Y830079D01*
X10881Y829956D01*
X10737Y829835D01*
X10729Y829825D01*
X10718Y829816D01*
X10603Y829667D01*
X10486Y829520D01*
X10480Y829508D01*
X10472Y829498D01*
X10388Y829329D01*
X10302Y829162D01*
X10298Y829149D01*
X10292Y829137D01*
X10243Y828954D01*
X10192Y828775D01*
X10191Y828762D01*
X10188Y828749D01*
X10161Y828418D01*
X10161Y822582D01*
X10162Y822569D01*
X10161Y822556D01*
X10182Y822369D01*
X10201Y822182D01*
X10205Y822169D01*
X10206Y822155D01*
X10264Y821977D01*
X10319Y821797D01*
X10325Y821785D01*
X10329Y821772D01*
X10421Y821608D01*
X10511Y821443D01*
X10519Y821432D01*
X10526Y821421D01*
X10648Y821277D01*
X10768Y821133D01*
X10779Y821125D01*
X10787Y821115D01*
X10936Y820999D01*
X11082Y820881D01*
X11094Y820875D01*
X11104Y820867D01*
X11273Y820782D01*
X11439Y820696D01*
X11452Y820692D01*
X11464Y820686D01*
X11646Y820636D01*
X11826Y820584D01*
X11840Y820583D01*
X11853Y820579D01*
X12041Y820567D01*
X12228Y820551D01*
X12241Y820553D01*
X12254Y820552D01*
X12442Y820576D01*
X12627Y820598D01*
X12640Y820602D01*
X12653Y820604D01*
X12969Y820706D01*
X13167Y820787D01*
X13167Y820788D01*
X15961Y821945D01*
X34839Y821945D01*
X38200Y820553D01*
X40773Y817980D01*
X40926Y817611D01*
X40936Y817591D01*
X40943Y817570D01*
X41031Y817414D01*
X41116Y817256D01*
X41130Y817239D01*
X41141Y817219D01*
X41258Y817083D01*
X41372Y816945D01*
X41389Y816931D01*
X41404Y816914D01*
X41545Y816805D01*
X41685Y816692D01*
X41705Y816681D01*
X41722Y816668D01*
X41882Y816588D01*
X42041Y816505D01*
X42063Y816498D01*
X42083Y816488D01*
X42256Y816442D01*
X42428Y816392D01*
X42450Y816390D01*
X42471Y816384D01*
X42802Y816357D01*
X315185Y816357D01*
X315212Y816359D01*
X315239Y816357D01*
X315413Y816379D01*
X315586Y816397D01*
X315611Y816404D01*
X315638Y816408D01*
X315804Y816463D01*
X315971Y816515D01*
X315994Y816528D01*
X316020Y816536D01*
X316171Y816623D01*
X316325Y816707D01*
X316345Y816724D01*
X316369Y816737D01*
X316622Y816952D01*
X326048Y826378D01*
X328727Y829057D01*
X439710Y829057D01*
X439737Y829059D01*
X439764Y829057D01*
X439938Y829079D01*
X440111Y829097D01*
X440137Y829104D01*
X440163Y829108D01*
X440329Y829163D01*
X440496Y829215D01*
X440520Y829228D01*
X440545Y829236D01*
X440697Y829323D01*
X440850Y829407D01*
X440871Y829424D01*
X440894Y829437D01*
X441147Y829652D01*
X441494Y829999D01*
X443444Y830807D01*
X445556Y830807D01*
X447506Y829999D01*
X448999Y828506D01*
X449807Y826556D01*
X449807Y824444D01*
X448999Y822494D01*
X447506Y821001D01*
X445556Y820193D01*
X443444Y820193D01*
X441494Y821001D01*
X441147Y821348D01*
X441126Y821365D01*
X441109Y821386D01*
X440971Y821493D01*
X440835Y821603D01*
X440812Y821616D01*
X440791Y821632D01*
X440634Y821710D01*
X440480Y821792D01*
X440454Y821800D01*
X440430Y821812D01*
X440261Y821857D01*
X440094Y821907D01*
X440067Y821909D01*
X440041Y821916D01*
X439710Y821943D01*
X332515Y821943D01*
X332488Y821941D01*
X332461Y821943D01*
X332287Y821921D01*
X332114Y821903D01*
X332088Y821896D01*
X332062Y821892D01*
X331896Y821836D01*
X331729Y821785D01*
X331705Y821772D01*
X331680Y821764D01*
X331529Y821677D01*
X331375Y821593D01*
X331355Y821576D01*
X331331Y821563D01*
X331078Y821348D01*
X318973Y809243D01*
X167105Y809243D01*
X167101Y809243D01*
X167096Y809243D01*
X166902Y809223D01*
X166704Y809203D01*
X166700Y809202D01*
X166696Y809202D01*
X166508Y809143D01*
X166320Y809085D01*
X166316Y809083D01*
X166311Y809082D01*
X166137Y808986D01*
X165966Y808893D01*
X165962Y808891D01*
X165958Y808888D01*
X165805Y808760D01*
X165656Y808636D01*
X165654Y808632D01*
X165650Y808629D01*
X165527Y808474D01*
X165404Y808322D01*
X165402Y808318D01*
X165399Y808314D01*
X165307Y808136D01*
X165218Y807965D01*
X165217Y807960D01*
X165215Y807956D01*
X165160Y807763D01*
X165107Y807578D01*
X165107Y807573D01*
X165105Y807569D01*
X165099Y807481D01*
X165081Y807639D01*
X165079Y807643D01*
X165079Y807647D01*
X165018Y807833D01*
X164958Y808022D01*
X164955Y808026D01*
X164954Y808030D01*
X164857Y808202D01*
X164761Y808374D01*
X164758Y808377D01*
X164756Y808381D01*
X164628Y808529D01*
X164499Y808679D01*
X164496Y808682D01*
X164493Y808686D01*
X164338Y808806D01*
X164182Y808928D01*
X164178Y808930D01*
X164175Y808932D01*
X163999Y809020D01*
X163823Y809108D01*
X163818Y809110D01*
X163814Y809112D01*
X163623Y809163D01*
X163434Y809215D01*
X163430Y809215D01*
X163426Y809216D01*
X163095Y809243D01*
X42802Y809243D01*
X42780Y809241D01*
X42758Y809243D01*
X42580Y809221D01*
X42402Y809203D01*
X42380Y809197D01*
X42358Y809194D01*
X42188Y809138D01*
X42017Y809085D01*
X41997Y809075D01*
X41976Y809068D01*
X41820Y808979D01*
X41663Y808893D01*
X41645Y808879D01*
X41626Y808868D01*
X41491Y808750D01*
X41353Y808636D01*
X41339Y808618D01*
X41323Y808604D01*
X41213Y808461D01*
X41101Y808322D01*
X41091Y808302D01*
X41077Y808284D01*
X40926Y807989D01*
X40773Y807620D01*
X38200Y805047D01*
X36206Y804221D01*
X34839Y803655D01*
X15961Y803655D01*
X12969Y804894D01*
X12956Y804898D01*
X12945Y804904D01*
X12764Y804956D01*
X12584Y805011D01*
X12571Y805012D01*
X12558Y805016D01*
X12370Y805031D01*
X12183Y805049D01*
X12170Y805048D01*
X12156Y805049D01*
X11969Y805027D01*
X11783Y805007D01*
X11770Y805003D01*
X11757Y805002D01*
X11577Y804943D01*
X11398Y804888D01*
X11387Y804881D01*
X11374Y804877D01*
X11209Y804784D01*
X11045Y804694D01*
X11035Y804686D01*
X11023Y804679D01*
X10881Y804556D01*
X10737Y804435D01*
X10729Y804425D01*
X10718Y804416D01*
X10603Y804267D01*
X10486Y804120D01*
X10480Y804108D01*
X10472Y804098D01*
X10388Y803929D01*
X10302Y803762D01*
X10298Y803749D01*
X10292Y803737D01*
X10243Y803554D01*
X10192Y803375D01*
X10191Y803362D01*
X10188Y803349D01*
X10161Y803018D01*
X10161Y797182D01*
X10162Y797169D01*
X10161Y797155D01*
X10182Y796969D01*
X10201Y796782D01*
X10205Y796769D01*
X10206Y796755D01*
X10264Y796576D01*
X10319Y796397D01*
X10325Y796385D01*
X10329Y796372D01*
X10421Y796207D01*
X10511Y796043D01*
X10519Y796032D01*
X10526Y796021D01*
X10648Y795877D01*
X10768Y795733D01*
X10779Y795725D01*
X10787Y795715D01*
X10936Y795598D01*
X11082Y795481D01*
X11094Y795475D01*
X11104Y795467D01*
X11274Y795382D01*
X11439Y795295D01*
X11452Y795292D01*
X11464Y795286D01*
X11647Y795236D01*
X11826Y795184D01*
X11840Y795183D01*
X11853Y795179D01*
X12041Y795167D01*
X12228Y795151D01*
X12241Y795153D01*
X12254Y795152D01*
X12442Y795176D01*
X12627Y795198D01*
X12640Y795202D01*
X12653Y795204D01*
X12969Y795306D01*
X15961Y796545D01*
X34839Y796545D01*
X38200Y795153D01*
X40773Y792580D01*
X40926Y792211D01*
X40936Y792191D01*
X40943Y792170D01*
X41031Y792014D01*
X41116Y791856D01*
X41130Y791839D01*
X41141Y791819D01*
X41258Y791683D01*
X41372Y791545D01*
X41389Y791531D01*
X41404Y791514D01*
X41545Y791405D01*
X41685Y791292D01*
X41705Y791281D01*
X41722Y791268D01*
X41882Y791188D01*
X42041Y791105D01*
X42063Y791098D01*
X42083Y791088D01*
X42256Y791042D01*
X42428Y790992D01*
X42450Y790990D01*
X42471Y790984D01*
X42802Y790957D01*
X122210Y790957D01*
X122237Y790959D01*
X122264Y790957D01*
X122438Y790979D01*
X122611Y790997D01*
X122637Y791004D01*
X122663Y791008D01*
X122829Y791063D01*
X122996Y791115D01*
X123020Y791128D01*
X123045Y791136D01*
X123197Y791223D01*
X123350Y791307D01*
X123371Y791324D01*
X123394Y791337D01*
X123647Y791552D01*
X123994Y791899D01*
X125944Y792707D01*
X128056Y792707D01*
X130006Y791899D01*
X131499Y790406D01*
X132307Y788456D01*
X132307Y786344D01*
X131499Y784394D01*
X130006Y782901D01*
X128056Y782093D01*
X125944Y782093D01*
X123994Y782901D01*
X123647Y783248D01*
X123626Y783265D01*
X123609Y783286D01*
X123471Y783393D01*
X123335Y783503D01*
X123312Y783516D01*
X123291Y783532D01*
X123134Y783610D01*
X122980Y783692D01*
X122954Y783700D01*
X122930Y783712D01*
X122761Y783757D01*
X122594Y783807D01*
X122567Y783809D01*
X122541Y783816D01*
X122210Y783843D01*
X42802Y783843D01*
X42780Y783841D01*
X42758Y783843D01*
X42580Y783821D01*
X42402Y783803D01*
X42380Y783797D01*
X42358Y783794D01*
X42188Y783738D01*
X42017Y783685D01*
X41997Y783675D01*
X41976Y783668D01*
X41820Y783579D01*
X41663Y783493D01*
X41645Y783479D01*
X41626Y783468D01*
X41491Y783350D01*
X41353Y783236D01*
X41339Y783218D01*
X41323Y783204D01*
X41213Y783061D01*
X41101Y782922D01*
X41091Y782902D01*
X41077Y782884D01*
X40926Y782589D01*
X40773Y782220D01*
X38200Y779647D01*
X34839Y778255D01*
X15961Y778255D01*
X12969Y779494D01*
X12956Y779498D01*
X12945Y779505D01*
X12765Y779556D01*
X12584Y779611D01*
X12571Y779612D01*
X12558Y779616D01*
X12370Y779631D01*
X12183Y779649D01*
X12170Y779648D01*
X12156Y779649D01*
X11970Y779627D01*
X11783Y779607D01*
X11770Y779603D01*
X11757Y779602D01*
X11578Y779544D01*
X11398Y779488D01*
X11387Y779481D01*
X11374Y779477D01*
X11210Y779385D01*
X11045Y779294D01*
X11035Y779286D01*
X11023Y779279D01*
X10881Y779157D01*
X10737Y779035D01*
X10729Y779025D01*
X10718Y779016D01*
X10604Y778868D01*
X10486Y778720D01*
X10480Y778708D01*
X10472Y778698D01*
X10388Y778530D01*
X10302Y778362D01*
X10298Y778349D01*
X10292Y778337D01*
X10243Y778155D01*
X10192Y777975D01*
X10191Y777962D01*
X10188Y777949D01*
X10161Y777618D01*
X10161Y771782D01*
X10162Y771769D01*
X10161Y771755D01*
X10182Y771569D01*
X10201Y771382D01*
X10205Y771369D01*
X10206Y771355D01*
X10264Y771176D01*
X10319Y770997D01*
X10325Y770985D01*
X10329Y770972D01*
X10421Y770807D01*
X10511Y770643D01*
X10519Y770632D01*
X10526Y770621D01*
X10648Y770477D01*
X10768Y770333D01*
X10779Y770325D01*
X10787Y770315D01*
X10936Y770198D01*
X11082Y770081D01*
X11094Y770075D01*
X11104Y770067D01*
X11274Y769982D01*
X11439Y769895D01*
X11452Y769892D01*
X11464Y769886D01*
X11647Y769836D01*
X11826Y769784D01*
X11840Y769783D01*
X11853Y769779D01*
X12041Y769767D01*
X12228Y769751D01*
X12241Y769753D01*
X12254Y769752D01*
X12442Y769776D01*
X12627Y769798D01*
X12640Y769802D01*
X12653Y769804D01*
X12969Y769906D01*
X15961Y771145D01*
X34839Y771145D01*
X38200Y769753D01*
X40773Y767180D01*
X42165Y763819D01*
X42165Y760181D01*
X40773Y756820D01*
X38200Y754247D01*
X34839Y752855D01*
X15961Y752855D01*
X12969Y754094D01*
X12956Y754098D01*
X12945Y754105D01*
X12765Y754156D01*
X12584Y754211D01*
X12571Y754212D01*
X12558Y754216D01*
X12370Y754231D01*
X12183Y754249D01*
X12170Y754248D01*
X12156Y754249D01*
X11970Y754227D01*
X11783Y754207D01*
X11770Y754203D01*
X11757Y754202D01*
X11578Y754144D01*
X11398Y754088D01*
X11387Y754081D01*
X11374Y754077D01*
X11210Y753985D01*
X11045Y753894D01*
X11035Y753886D01*
X11023Y753879D01*
X10881Y753756D01*
X10737Y753635D01*
X10729Y753625D01*
X10718Y753616D01*
X10604Y753468D01*
X10486Y753320D01*
X10480Y753308D01*
X10472Y753298D01*
X10388Y753130D01*
X10302Y752962D01*
X10298Y752949D01*
X10292Y752937D01*
X10243Y752755D01*
X10192Y752575D01*
X10191Y752562D01*
X10188Y752549D01*
X10161Y752218D01*
X10161Y182964D01*
X10168Y182891D01*
X10166Y182818D01*
X10188Y182691D01*
X10201Y182563D01*
X10222Y182493D01*
X10235Y182421D01*
X10281Y182301D01*
X10319Y182178D01*
X10354Y182114D01*
X10380Y182046D01*
X10449Y181937D01*
X10511Y181824D01*
X10557Y181768D01*
X10597Y181706D01*
X10686Y181614D01*
X10768Y181515D01*
X10825Y181469D01*
X10876Y181416D01*
X10982Y181343D01*
X11082Y181263D01*
X11147Y181229D01*
X11207Y181187D01*
X11326Y181136D01*
X11439Y181077D01*
X11510Y181057D01*
X11577Y181028D01*
X11703Y181001D01*
X11826Y180966D01*
X11899Y180960D01*
X11971Y180945D01*
X12099Y180943D01*
X12228Y180933D01*
X12300Y180942D01*
X12374Y180941D01*
X12500Y180965D01*
X12627Y180980D01*
X12697Y181003D01*
X12769Y181016D01*
X12888Y181065D01*
X13010Y181105D01*
X13074Y181141D01*
X13142Y181168D01*
X13249Y181240D01*
X13361Y181303D01*
X13416Y181351D01*
X13477Y181391D01*
X13568Y181482D01*
X13665Y181566D01*
X13710Y181624D01*
X13762Y181675D01*
X13859Y181815D01*
X13912Y181884D01*
X13927Y181913D01*
X13951Y181948D01*
X17165Y187514D01*
X22036Y192385D01*
X28002Y195830D01*
X34656Y197613D01*
X41544Y197613D01*
X48198Y195830D01*
X54164Y192385D01*
X59035Y187514D01*
X62480Y181548D01*
X64263Y174894D01*
X64263Y168006D01*
X62480Y161352D01*
X59035Y155386D01*
X54164Y150515D01*
X48198Y147070D01*
X41544Y145287D01*
X34656Y145287D01*
X28002Y147070D01*
X22036Y150515D01*
X17165Y155386D01*
X13951Y160952D01*
X13908Y161011D01*
X13873Y161076D01*
X13791Y161174D01*
X13716Y161279D01*
X13663Y161329D01*
X13616Y161385D01*
X13516Y161465D01*
X13421Y161553D01*
X13359Y161591D01*
X13302Y161637D01*
X13188Y161696D01*
X13078Y161764D01*
X13010Y161789D01*
X12945Y161823D01*
X12821Y161858D01*
X12701Y161903D01*
X12628Y161914D01*
X12558Y161934D01*
X12429Y161945D01*
X12303Y161964D01*
X12230Y161961D01*
X12156Y161967D01*
X12029Y161952D01*
X11900Y161946D01*
X11829Y161929D01*
X11757Y161920D01*
X11634Y161880D01*
X11510Y161849D01*
X11444Y161818D01*
X11374Y161795D01*
X11262Y161732D01*
X11146Y161677D01*
X11087Y161633D01*
X11023Y161597D01*
X10926Y161513D01*
X10823Y161437D01*
X10774Y161382D01*
X10718Y161334D01*
X10640Y161233D01*
X10554Y161137D01*
X10517Y161074D01*
X10472Y161016D01*
X10414Y160901D01*
X10349Y160790D01*
X10325Y160721D01*
X10292Y160656D01*
X10259Y160531D01*
X10217Y160410D01*
X10207Y160338D01*
X10188Y160267D01*
X10174Y160097D01*
X10162Y160011D01*
X10164Y159978D01*
X10161Y159936D01*
X10161Y12192D01*
X10163Y12174D01*
X10161Y12156D01*
X10182Y11974D01*
X10201Y11791D01*
X10206Y11774D01*
X10208Y11757D01*
X10265Y11582D01*
X10319Y11406D01*
X10327Y11391D01*
X10333Y11374D01*
X10423Y11214D01*
X10511Y11052D01*
X10522Y11039D01*
X10531Y11023D01*
X10651Y10884D01*
X10768Y10743D01*
X10782Y10732D01*
X10794Y10718D01*
X10939Y10606D01*
X11082Y10491D01*
X11098Y10483D01*
X11112Y10472D01*
X11277Y10390D01*
X11439Y10305D01*
X11456Y10300D01*
X11472Y10292D01*
X11651Y10245D01*
X11826Y10194D01*
X11844Y10192D01*
X11861Y10188D01*
X12192Y10161D01*
X470408Y10161D01*
X470426Y10163D01*
G37*
%LPC*%
G36*
X278344Y324893D02*
X278344Y324893D01*
X276394Y325701D01*
X274901Y327194D01*
X274322Y328593D01*
X274307Y328620D01*
X274297Y328650D01*
X274212Y328798D01*
X274132Y328948D01*
X274112Y328972D01*
X274096Y328999D01*
X273881Y329252D01*
X252701Y350432D01*
X252680Y350449D01*
X252663Y350470D01*
X252525Y350577D01*
X252389Y350687D01*
X252366Y350700D01*
X252345Y350716D01*
X252188Y350794D01*
X252034Y350876D01*
X252008Y350884D01*
X251984Y350896D01*
X251815Y350941D01*
X251648Y350991D01*
X251621Y350993D01*
X251595Y351000D01*
X251265Y351027D01*
X214990Y351027D01*
X213310Y351723D01*
X125701Y439332D01*
X125680Y439349D01*
X125663Y439370D01*
X125525Y439477D01*
X125389Y439587D01*
X125366Y439600D01*
X125345Y439616D01*
X125188Y439694D01*
X125034Y439776D01*
X125008Y439784D01*
X124984Y439796D01*
X124815Y439841D01*
X124648Y439891D01*
X124621Y439893D01*
X124595Y439900D01*
X124265Y439927D01*
X109364Y439927D01*
X109338Y439925D01*
X109311Y439927D01*
X109137Y439905D01*
X108964Y439887D01*
X108938Y439880D01*
X108912Y439876D01*
X108746Y439820D01*
X108579Y439769D01*
X108555Y439756D01*
X108530Y439748D01*
X108379Y439661D01*
X108225Y439577D01*
X108204Y439560D01*
X108181Y439547D01*
X107928Y439332D01*
X106205Y437609D01*
X103217Y436371D01*
X99983Y436371D01*
X96995Y437609D01*
X94709Y439895D01*
X93471Y442883D01*
X93471Y446117D01*
X94709Y449104D01*
X94764Y449160D01*
X94770Y449167D01*
X94776Y449172D01*
X94896Y449322D01*
X95019Y449471D01*
X95023Y449479D01*
X95029Y449486D01*
X95117Y449656D01*
X95208Y449827D01*
X95210Y449835D01*
X95214Y449843D01*
X95268Y450029D01*
X95322Y450213D01*
X95323Y450222D01*
X95326Y450230D01*
X95341Y450422D01*
X95359Y450614D01*
X95358Y450623D01*
X95359Y450632D01*
X95336Y450822D01*
X95315Y451014D01*
X95313Y451022D01*
X95312Y451031D01*
X95252Y451214D01*
X95194Y451398D01*
X95190Y451406D01*
X95187Y451414D01*
X95092Y451581D01*
X94999Y451750D01*
X94993Y451757D01*
X94989Y451765D01*
X94863Y451910D01*
X94739Y452057D01*
X94732Y452063D01*
X94726Y452070D01*
X94574Y452187D01*
X94423Y452307D01*
X94415Y452311D01*
X94408Y452316D01*
X94236Y452402D01*
X94064Y452489D01*
X94055Y452492D01*
X94047Y452496D01*
X93860Y452546D01*
X93676Y452597D01*
X93667Y452598D01*
X93658Y452600D01*
X93328Y452627D01*
X78935Y452627D01*
X78909Y452625D01*
X78882Y452627D01*
X78708Y452605D01*
X78535Y452587D01*
X78509Y452580D01*
X78483Y452576D01*
X78317Y452521D01*
X78150Y452469D01*
X78126Y452456D01*
X78101Y452448D01*
X77949Y452361D01*
X77796Y452277D01*
X77775Y452260D01*
X77752Y452247D01*
X77499Y452032D01*
X68668Y443201D01*
X68651Y443180D01*
X68630Y443163D01*
X68523Y443025D01*
X68413Y442889D01*
X68400Y442866D01*
X68384Y442845D01*
X68306Y442688D01*
X68224Y442534D01*
X68216Y442508D01*
X68204Y442484D01*
X68159Y442315D01*
X68109Y442148D01*
X68107Y442121D01*
X68100Y442095D01*
X68073Y441765D01*
X68073Y405490D01*
X67377Y403810D01*
X53390Y389823D01*
X51710Y389127D01*
X33164Y389127D01*
X33138Y389125D01*
X33111Y389127D01*
X32937Y389105D01*
X32764Y389087D01*
X32738Y389080D01*
X32712Y389076D01*
X32546Y389021D01*
X32379Y388969D01*
X32355Y388956D01*
X32330Y388948D01*
X32178Y388861D01*
X32025Y388777D01*
X32004Y388760D01*
X31981Y388747D01*
X31728Y388532D01*
X30005Y386809D01*
X27017Y385571D01*
X23783Y385571D01*
X20795Y386809D01*
X18509Y389095D01*
X17271Y392083D01*
X17271Y395317D01*
X18509Y398305D01*
X20795Y400591D01*
X23783Y401829D01*
X27017Y401829D01*
X30005Y400591D01*
X31728Y398868D01*
X31749Y398851D01*
X31766Y398830D01*
X31904Y398723D01*
X32040Y398613D01*
X32063Y398600D01*
X32084Y398584D01*
X32241Y398506D01*
X32395Y398424D01*
X32421Y398416D01*
X32445Y398404D01*
X32614Y398359D01*
X32781Y398309D01*
X32808Y398307D01*
X32834Y398300D01*
X33164Y398273D01*
X48065Y398273D01*
X48091Y398275D01*
X48118Y398273D01*
X48292Y398295D01*
X48465Y398313D01*
X48491Y398320D01*
X48517Y398324D01*
X48683Y398379D01*
X48850Y398431D01*
X48874Y398444D01*
X48899Y398452D01*
X49051Y398539D01*
X49204Y398623D01*
X49225Y398640D01*
X49248Y398653D01*
X49501Y398868D01*
X58332Y407699D01*
X58349Y407720D01*
X58370Y407737D01*
X58477Y407875D01*
X58587Y408011D01*
X58600Y408034D01*
X58616Y408055D01*
X58694Y408212D01*
X58776Y408366D01*
X58784Y408392D01*
X58796Y408416D01*
X58841Y408585D01*
X58891Y408752D01*
X58893Y408779D01*
X58900Y408805D01*
X58927Y409135D01*
X58927Y445410D01*
X59623Y447090D01*
X73610Y461077D01*
X75290Y461773D01*
X93328Y461773D01*
X93336Y461774D01*
X93345Y461773D01*
X93537Y461794D01*
X93728Y461813D01*
X93737Y461815D01*
X93746Y461816D01*
X93928Y461874D01*
X94113Y461931D01*
X94121Y461935D01*
X94130Y461938D01*
X94298Y462031D01*
X94467Y462123D01*
X94474Y462128D01*
X94482Y462133D01*
X94630Y462258D01*
X94776Y462380D01*
X94782Y462387D01*
X94789Y462393D01*
X94909Y462545D01*
X95029Y462694D01*
X95033Y462702D01*
X95038Y462709D01*
X95126Y462881D01*
X95214Y463051D01*
X95217Y463060D01*
X95221Y463068D01*
X95273Y463254D01*
X95326Y463438D01*
X95326Y463447D01*
X95329Y463456D01*
X95343Y463648D01*
X95359Y463840D01*
X95358Y463848D01*
X95358Y463857D01*
X95334Y464050D01*
X95312Y464239D01*
X95309Y464248D01*
X95308Y464257D01*
X95246Y464440D01*
X95187Y464622D01*
X95182Y464630D01*
X95180Y464638D01*
X95084Y464804D01*
X94989Y464973D01*
X94983Y464980D01*
X94979Y464987D01*
X94764Y465240D01*
X93471Y466533D01*
X93471Y473267D01*
X98233Y478029D01*
X104967Y478029D01*
X108944Y474052D01*
X108965Y474035D01*
X108982Y474014D01*
X109120Y473907D01*
X109256Y473797D01*
X109279Y473784D01*
X109300Y473768D01*
X109457Y473690D01*
X109611Y473608D01*
X109637Y473600D01*
X109661Y473588D01*
X109830Y473543D01*
X109997Y473493D01*
X110024Y473491D01*
X110050Y473484D01*
X110380Y473457D01*
X175214Y473457D01*
X175236Y473459D01*
X175258Y473457D01*
X175435Y473479D01*
X175614Y473497D01*
X175635Y473503D01*
X175658Y473506D01*
X175827Y473562D01*
X175999Y473615D01*
X176019Y473625D01*
X176040Y473632D01*
X176195Y473721D01*
X176353Y473807D01*
X176370Y473821D01*
X176390Y473832D01*
X176525Y473950D01*
X176662Y474064D01*
X176676Y474082D01*
X176693Y474096D01*
X176802Y474238D01*
X176915Y474378D01*
X176925Y474398D01*
X176939Y474416D01*
X176963Y474462D01*
X179291Y476791D01*
X182279Y478029D01*
X198721Y478029D01*
X201709Y476791D01*
X204049Y474451D01*
X204100Y474356D01*
X204114Y474339D01*
X204125Y474319D01*
X204242Y474184D01*
X204356Y474045D01*
X204374Y474031D01*
X204388Y474014D01*
X204530Y473905D01*
X204669Y473792D01*
X204689Y473781D01*
X204706Y473768D01*
X204867Y473688D01*
X205026Y473605D01*
X205047Y473598D01*
X205067Y473588D01*
X205241Y473542D01*
X205412Y473492D01*
X205434Y473490D01*
X205456Y473484D01*
X205786Y473457D01*
X274610Y473457D01*
X274637Y473459D01*
X274664Y473457D01*
X274838Y473479D01*
X275011Y473497D01*
X275037Y473504D01*
X275063Y473508D01*
X275229Y473563D01*
X275396Y473615D01*
X275420Y473628D01*
X275445Y473636D01*
X275597Y473723D01*
X275750Y473807D01*
X275771Y473824D01*
X275794Y473837D01*
X276047Y474052D01*
X276394Y474399D01*
X278344Y475207D01*
X280456Y475207D01*
X282406Y474399D01*
X283899Y472906D01*
X284707Y470956D01*
X284707Y468844D01*
X283899Y466894D01*
X282406Y465401D01*
X280456Y464593D01*
X278344Y464593D01*
X276394Y465401D01*
X276047Y465748D01*
X276026Y465765D01*
X276009Y465786D01*
X275871Y465893D01*
X275735Y466003D01*
X275712Y466016D01*
X275691Y466032D01*
X275534Y466110D01*
X275380Y466192D01*
X275354Y466200D01*
X275330Y466212D01*
X275161Y466257D01*
X274994Y466307D01*
X274967Y466309D01*
X274941Y466316D01*
X274610Y466343D01*
X205786Y466343D01*
X205764Y466341D01*
X205742Y466343D01*
X205565Y466321D01*
X205386Y466303D01*
X205365Y466297D01*
X205342Y466294D01*
X205173Y466238D01*
X205001Y466185D01*
X204981Y466175D01*
X204960Y466168D01*
X204805Y466079D01*
X204647Y465993D01*
X204630Y465979D01*
X204610Y465968D01*
X204475Y465850D01*
X204338Y465736D01*
X204324Y465718D01*
X204307Y465704D01*
X204198Y465562D01*
X204085Y465422D01*
X204075Y465402D01*
X204061Y465384D01*
X204037Y465338D01*
X201709Y463009D01*
X201619Y462971D01*
X201618Y462971D01*
X198721Y461771D01*
X182279Y461771D01*
X179291Y463009D01*
X176951Y465349D01*
X176900Y465444D01*
X176886Y465461D01*
X176875Y465481D01*
X176758Y465616D01*
X176644Y465755D01*
X176626Y465769D01*
X176612Y465786D01*
X176470Y465895D01*
X176331Y466008D01*
X176311Y466019D01*
X176294Y466032D01*
X176133Y466112D01*
X175974Y466195D01*
X175953Y466202D01*
X175933Y466212D01*
X175759Y466258D01*
X175588Y466308D01*
X175566Y466310D01*
X175544Y466316D01*
X175214Y466343D01*
X110380Y466343D01*
X110354Y466341D01*
X110327Y466343D01*
X110153Y466321D01*
X109980Y466303D01*
X109954Y466296D01*
X109928Y466292D01*
X109762Y466237D01*
X109595Y466185D01*
X109571Y466172D01*
X109546Y466164D01*
X109394Y466077D01*
X109241Y465993D01*
X109220Y465976D01*
X109197Y465963D01*
X108944Y465748D01*
X108436Y465240D01*
X108430Y465233D01*
X108424Y465228D01*
X108303Y465078D01*
X108181Y464929D01*
X108177Y464921D01*
X108171Y464914D01*
X108083Y464744D01*
X107992Y464573D01*
X107990Y464564D01*
X107986Y464557D01*
X107933Y464373D01*
X107878Y464187D01*
X107877Y464178D01*
X107874Y464170D01*
X107859Y463979D01*
X107841Y463786D01*
X107842Y463777D01*
X107841Y463768D01*
X107864Y463579D01*
X107885Y463386D01*
X107887Y463377D01*
X107888Y463369D01*
X107949Y463183D01*
X108006Y463002D01*
X108010Y462994D01*
X108013Y462986D01*
X108109Y462816D01*
X108201Y462650D01*
X108207Y462643D01*
X108211Y462635D01*
X108338Y462489D01*
X108461Y462343D01*
X108468Y462337D01*
X108474Y462330D01*
X108625Y462213D01*
X108777Y462093D01*
X108785Y462089D01*
X108792Y462084D01*
X108964Y461998D01*
X109136Y461911D01*
X109145Y461908D01*
X109153Y461904D01*
X109341Y461854D01*
X109524Y461803D01*
X109533Y461802D01*
X109542Y461800D01*
X109872Y461773D01*
X153310Y461773D01*
X154990Y461077D01*
X166399Y449668D01*
X166420Y449651D01*
X166437Y449630D01*
X166575Y449523D01*
X166711Y449413D01*
X166734Y449400D01*
X166755Y449384D01*
X166912Y449306D01*
X167066Y449224D01*
X167092Y449216D01*
X167116Y449204D01*
X167285Y449159D01*
X167452Y449109D01*
X167479Y449107D01*
X167505Y449100D01*
X167835Y449073D01*
X176132Y449073D01*
X176158Y449075D01*
X176185Y449073D01*
X176359Y449095D01*
X176532Y449113D01*
X176558Y449120D01*
X176584Y449124D01*
X176750Y449179D01*
X176917Y449231D01*
X176941Y449244D01*
X176966Y449252D01*
X177118Y449339D01*
X177271Y449423D01*
X177292Y449440D01*
X177315Y449453D01*
X177568Y449668D01*
X179291Y451391D01*
X182279Y452629D01*
X198721Y452629D01*
X201709Y451391D01*
X203432Y449668D01*
X203453Y449651D01*
X203470Y449630D01*
X203608Y449523D01*
X203744Y449413D01*
X203767Y449400D01*
X203788Y449384D01*
X203945Y449306D01*
X204099Y449224D01*
X204125Y449216D01*
X204149Y449204D01*
X204318Y449159D01*
X204485Y449109D01*
X204512Y449107D01*
X204538Y449100D01*
X204868Y449073D01*
X288868Y449073D01*
X288899Y449076D01*
X288931Y449074D01*
X289100Y449096D01*
X289269Y449113D01*
X289299Y449122D01*
X289330Y449126D01*
X289646Y449227D01*
X291044Y449807D01*
X293156Y449807D01*
X294554Y449227D01*
X294584Y449218D01*
X294612Y449204D01*
X294777Y449160D01*
X294940Y449111D01*
X294971Y449108D01*
X295001Y449100D01*
X295332Y449073D01*
X318410Y449073D01*
X320090Y448377D01*
X346777Y421690D01*
X347473Y420010D01*
X347473Y350664D01*
X347475Y350638D01*
X347473Y350611D01*
X347495Y350437D01*
X347513Y350264D01*
X347520Y350238D01*
X347524Y350212D01*
X347579Y350046D01*
X347631Y349879D01*
X347644Y349855D01*
X347652Y349830D01*
X347739Y349678D01*
X347823Y349525D01*
X347840Y349504D01*
X347853Y349481D01*
X348068Y349228D01*
X351029Y346267D01*
X351029Y339533D01*
X346267Y334771D01*
X339533Y334771D01*
X334771Y339533D01*
X334771Y346267D01*
X337732Y349228D01*
X337749Y349249D01*
X337770Y349266D01*
X337877Y349404D01*
X337987Y349540D01*
X338000Y349563D01*
X338016Y349584D01*
X338094Y349741D01*
X338176Y349895D01*
X338184Y349921D01*
X338196Y349945D01*
X338241Y350114D01*
X338291Y350281D01*
X338293Y350308D01*
X338300Y350334D01*
X338327Y350664D01*
X338327Y416365D01*
X338325Y416391D01*
X338327Y416418D01*
X338305Y416592D01*
X338287Y416765D01*
X338280Y416791D01*
X338276Y416817D01*
X338221Y416983D01*
X338169Y417150D01*
X338156Y417174D01*
X338148Y417199D01*
X338061Y417351D01*
X337977Y417504D01*
X337960Y417525D01*
X337947Y417548D01*
X337732Y417801D01*
X316201Y439332D01*
X316180Y439349D01*
X316163Y439370D01*
X316025Y439477D01*
X315889Y439587D01*
X315866Y439600D01*
X315845Y439616D01*
X315688Y439694D01*
X315534Y439776D01*
X315508Y439784D01*
X315484Y439796D01*
X315315Y439841D01*
X315148Y439891D01*
X315121Y439893D01*
X315095Y439900D01*
X314765Y439927D01*
X295332Y439927D01*
X295301Y439924D01*
X295269Y439926D01*
X295100Y439904D01*
X294931Y439887D01*
X294901Y439878D01*
X294870Y439874D01*
X294554Y439773D01*
X293156Y439193D01*
X291044Y439193D01*
X289646Y439773D01*
X289616Y439782D01*
X289588Y439796D01*
X289423Y439840D01*
X289260Y439889D01*
X289229Y439892D01*
X289199Y439900D01*
X288868Y439927D01*
X204868Y439927D01*
X204842Y439925D01*
X204815Y439927D01*
X204641Y439905D01*
X204468Y439887D01*
X204442Y439880D01*
X204416Y439876D01*
X204250Y439821D01*
X204083Y439769D01*
X204059Y439756D01*
X204034Y439748D01*
X203882Y439661D01*
X203729Y439577D01*
X203708Y439560D01*
X203685Y439547D01*
X203432Y439332D01*
X201709Y437609D01*
X198721Y436371D01*
X182279Y436371D01*
X179291Y437609D01*
X177568Y439332D01*
X177547Y439349D01*
X177530Y439370D01*
X177392Y439477D01*
X177256Y439587D01*
X177233Y439600D01*
X177212Y439616D01*
X177055Y439694D01*
X176901Y439776D01*
X176875Y439784D01*
X176851Y439796D01*
X176682Y439841D01*
X176515Y439891D01*
X176488Y439893D01*
X176462Y439900D01*
X176132Y439927D01*
X164190Y439927D01*
X162510Y440623D01*
X151101Y452032D01*
X151080Y452049D01*
X151063Y452070D01*
X150925Y452177D01*
X150789Y452287D01*
X150766Y452300D01*
X150745Y452316D01*
X150588Y452394D01*
X150434Y452476D01*
X150408Y452484D01*
X150384Y452496D01*
X150215Y452541D01*
X150048Y452591D01*
X150021Y452593D01*
X149995Y452600D01*
X149665Y452627D01*
X129540Y452627D01*
X129535Y452627D01*
X129531Y452627D01*
X129337Y452607D01*
X129139Y452587D01*
X129135Y452586D01*
X129131Y452586D01*
X128945Y452528D01*
X128754Y452469D01*
X128750Y452467D01*
X128746Y452466D01*
X128575Y452372D01*
X128400Y452277D01*
X128397Y452275D01*
X128393Y452272D01*
X128242Y452145D01*
X128091Y452020D01*
X128088Y452016D01*
X128085Y452013D01*
X127962Y451859D01*
X127839Y451706D01*
X127837Y451702D01*
X127834Y451699D01*
X127744Y451524D01*
X127653Y451349D01*
X127652Y451344D01*
X127650Y451340D01*
X127597Y451153D01*
X127542Y450962D01*
X127541Y450957D01*
X127540Y450953D01*
X127525Y450760D01*
X127509Y450560D01*
X127510Y450556D01*
X127509Y450552D01*
X127533Y450358D01*
X127556Y450161D01*
X127557Y450156D01*
X127558Y450152D01*
X127618Y449969D01*
X127681Y449778D01*
X127683Y449774D01*
X127684Y449770D01*
X127780Y449601D01*
X127879Y449427D01*
X127882Y449424D01*
X127884Y449420D01*
X128014Y449271D01*
X128142Y449123D01*
X128145Y449120D01*
X128148Y449116D01*
X128305Y448996D01*
X128460Y448876D01*
X128464Y448874D01*
X128467Y448871D01*
X128763Y448719D01*
X129590Y448377D01*
X217199Y360768D01*
X217220Y360751D01*
X217237Y360730D01*
X217375Y360623D01*
X217511Y360513D01*
X217534Y360500D01*
X217555Y360484D01*
X217712Y360406D01*
X217866Y360324D01*
X217892Y360316D01*
X217916Y360304D01*
X218085Y360259D01*
X218252Y360209D01*
X218279Y360207D01*
X218305Y360200D01*
X218635Y360173D01*
X254910Y360173D01*
X256590Y359477D01*
X258162Y357905D01*
X280348Y335719D01*
X280372Y335699D01*
X280393Y335675D01*
X280528Y335571D01*
X280660Y335463D01*
X280687Y335449D01*
X280712Y335430D01*
X281007Y335278D01*
X282406Y334699D01*
X283899Y333206D01*
X284707Y331256D01*
X284707Y329144D01*
X283899Y327194D01*
X282406Y325701D01*
X280456Y324893D01*
X278344Y324893D01*
G37*
%LPD*%
%LPC*%
G36*
X239356Y221925D02*
X239356Y221925D01*
X235763Y223413D01*
X233013Y226163D01*
X231525Y229756D01*
X231525Y233644D01*
X232456Y235891D01*
X232460Y235904D01*
X232466Y235915D01*
X232518Y236096D01*
X232572Y236276D01*
X232573Y236289D01*
X232577Y236302D01*
X232593Y236490D01*
X232610Y236677D01*
X232609Y236690D01*
X232610Y236704D01*
X232588Y236891D01*
X232569Y237077D01*
X232565Y237090D01*
X232563Y237103D01*
X232505Y237283D01*
X232449Y237462D01*
X232442Y237473D01*
X232438Y237486D01*
X232346Y237650D01*
X232256Y237815D01*
X232247Y237825D01*
X232240Y237837D01*
X232117Y237979D01*
X231996Y238123D01*
X231986Y238131D01*
X231977Y238142D01*
X231829Y238257D01*
X231682Y238374D01*
X231670Y238380D01*
X231659Y238388D01*
X231490Y238472D01*
X231323Y238558D01*
X231311Y238562D01*
X231299Y238568D01*
X231116Y238617D01*
X230936Y238668D01*
X230923Y238669D01*
X230910Y238672D01*
X230579Y238699D01*
X213300Y238699D01*
X213299Y238700D01*
X213299Y294700D01*
X213300Y294701D01*
X269300Y294701D01*
X269301Y294700D01*
X269301Y238700D01*
X269300Y238699D01*
X252021Y238699D01*
X252008Y238698D01*
X251994Y238699D01*
X251808Y238678D01*
X251620Y238659D01*
X251607Y238655D01*
X251594Y238654D01*
X251416Y238597D01*
X251235Y238541D01*
X251224Y238535D01*
X251211Y238531D01*
X251047Y238439D01*
X250881Y238349D01*
X250871Y238341D01*
X250859Y238334D01*
X250716Y238212D01*
X250572Y238092D01*
X250564Y238081D01*
X250554Y238073D01*
X250437Y237924D01*
X250320Y237778D01*
X250314Y237766D01*
X250305Y237756D01*
X250221Y237587D01*
X250134Y237421D01*
X250131Y237408D01*
X250125Y237396D01*
X250075Y237214D01*
X250023Y237034D01*
X250022Y237020D01*
X250018Y237007D01*
X250005Y236819D01*
X249990Y236632D01*
X249992Y236619D01*
X249991Y236606D01*
X250015Y236418D01*
X250037Y236233D01*
X250041Y236220D01*
X250043Y236207D01*
X250144Y235891D01*
X251075Y233644D01*
X251075Y229756D01*
X249587Y226163D01*
X246837Y223413D01*
X243244Y221925D01*
X239356Y221925D01*
G37*
%LPD*%
%LPC*%
G36*
X48200Y632399D02*
X48200Y632399D01*
X48199Y632400D01*
X48199Y688400D01*
X48200Y688401D01*
X65479Y688401D01*
X65492Y688402D01*
X65506Y688401D01*
X65692Y688422D01*
X65880Y688441D01*
X65893Y688445D01*
X65906Y688446D01*
X66084Y688503D01*
X66265Y688559D01*
X66276Y688565D01*
X66289Y688569D01*
X66453Y688661D01*
X66619Y688751D01*
X66629Y688759D01*
X66641Y688766D01*
X66784Y688888D01*
X66928Y689008D01*
X66936Y689019D01*
X66946Y689027D01*
X67063Y689176D01*
X67180Y689322D01*
X67186Y689334D01*
X67195Y689344D01*
X67279Y689513D01*
X67366Y689679D01*
X67369Y689692D01*
X67375Y689704D01*
X67425Y689886D01*
X67477Y690066D01*
X67478Y690080D01*
X67482Y690093D01*
X67495Y690280D01*
X67510Y690468D01*
X67508Y690481D01*
X67509Y690494D01*
X67485Y690682D01*
X67463Y690867D01*
X67459Y690880D01*
X67457Y690893D01*
X67356Y691209D01*
X66425Y693456D01*
X66425Y697344D01*
X67913Y700937D01*
X70663Y703687D01*
X73849Y705006D01*
X74256Y705175D01*
X78144Y705175D01*
X81737Y703687D01*
X84487Y700937D01*
X85975Y697344D01*
X85975Y693456D01*
X85044Y691209D01*
X85040Y691196D01*
X85034Y691185D01*
X84982Y691004D01*
X84928Y690824D01*
X84927Y690811D01*
X84923Y690798D01*
X84907Y690610D01*
X84890Y690423D01*
X84891Y690410D01*
X84890Y690396D01*
X84912Y690209D01*
X84931Y690023D01*
X84935Y690010D01*
X84937Y689997D01*
X84995Y689817D01*
X85051Y689638D01*
X85058Y689627D01*
X85062Y689614D01*
X85155Y689449D01*
X85244Y689285D01*
X85253Y689275D01*
X85260Y689263D01*
X85383Y689121D01*
X85504Y688977D01*
X85514Y688969D01*
X85523Y688958D01*
X85671Y688843D01*
X85818Y688726D01*
X85830Y688720D01*
X85841Y688712D01*
X86010Y688628D01*
X86177Y688542D01*
X86189Y688538D01*
X86201Y688532D01*
X86384Y688483D01*
X86564Y688432D01*
X86577Y688431D01*
X86590Y688428D01*
X86921Y688401D01*
X104200Y688401D01*
X104201Y688400D01*
X104201Y632400D01*
X104200Y632399D01*
X48200Y632399D01*
G37*
%LPD*%
%LPC*%
G36*
X74256Y221925D02*
X74256Y221925D01*
X70663Y223413D01*
X67913Y226163D01*
X66425Y229756D01*
X66425Y233644D01*
X67356Y235891D01*
X67360Y235904D01*
X67366Y235915D01*
X67418Y236095D01*
X67472Y236276D01*
X67474Y236289D01*
X67477Y236302D01*
X67493Y236490D01*
X67510Y236677D01*
X67509Y236690D01*
X67510Y236704D01*
X67488Y236890D01*
X67469Y237077D01*
X67465Y237090D01*
X67463Y237103D01*
X67405Y237283D01*
X67349Y237462D01*
X67343Y237473D01*
X67338Y237486D01*
X67246Y237650D01*
X67156Y237815D01*
X67147Y237825D01*
X67140Y237837D01*
X67018Y237979D01*
X66896Y238123D01*
X66886Y238131D01*
X66877Y238142D01*
X66729Y238256D01*
X66582Y238374D01*
X66570Y238380D01*
X66559Y238388D01*
X66391Y238472D01*
X66224Y238558D01*
X66211Y238562D01*
X66199Y238568D01*
X66016Y238617D01*
X65836Y238668D01*
X65823Y238669D01*
X65810Y238672D01*
X65479Y238699D01*
X48200Y238699D01*
X48199Y238700D01*
X48199Y294700D01*
X48200Y294701D01*
X104200Y294701D01*
X104201Y294700D01*
X104201Y238700D01*
X104200Y238699D01*
X86921Y238699D01*
X86907Y238698D01*
X86894Y238699D01*
X86708Y238678D01*
X86520Y238659D01*
X86507Y238655D01*
X86494Y238654D01*
X86316Y238597D01*
X86135Y238541D01*
X86123Y238535D01*
X86111Y238531D01*
X85947Y238439D01*
X85781Y238349D01*
X85771Y238341D01*
X85759Y238334D01*
X85616Y238211D01*
X85472Y238092D01*
X85464Y238081D01*
X85453Y238073D01*
X85337Y237924D01*
X85220Y237778D01*
X85214Y237766D01*
X85205Y237756D01*
X85120Y237586D01*
X85034Y237421D01*
X85031Y237408D01*
X85024Y237396D01*
X84975Y237214D01*
X84923Y237034D01*
X84922Y237020D01*
X84918Y237007D01*
X84905Y236820D01*
X84890Y236632D01*
X84891Y236619D01*
X84891Y236606D01*
X84915Y236418D01*
X84937Y236233D01*
X84941Y236220D01*
X84943Y236207D01*
X85044Y235891D01*
X85975Y233644D01*
X85975Y229756D01*
X84487Y226163D01*
X81737Y223413D01*
X78144Y221925D01*
X74256Y221925D01*
G37*
%LPD*%
%LPC*%
G36*
X404456Y514025D02*
X404456Y514025D01*
X400863Y515513D01*
X398113Y518263D01*
X396625Y521856D01*
X396625Y525744D01*
X397556Y527991D01*
X397560Y528004D01*
X397566Y528015D01*
X397618Y528195D01*
X397672Y528376D01*
X397674Y528389D01*
X397677Y528402D01*
X397693Y528590D01*
X397710Y528777D01*
X397709Y528790D01*
X397710Y528804D01*
X397688Y528990D01*
X397669Y529177D01*
X397665Y529190D01*
X397663Y529203D01*
X397605Y529383D01*
X397549Y529562D01*
X397543Y529573D01*
X397538Y529586D01*
X397446Y529750D01*
X397356Y529915D01*
X397347Y529925D01*
X397340Y529937D01*
X397218Y530079D01*
X397096Y530223D01*
X397086Y530231D01*
X397077Y530242D01*
X396929Y530356D01*
X396782Y530474D01*
X396770Y530480D01*
X396759Y530488D01*
X396591Y530572D01*
X396424Y530658D01*
X396411Y530662D01*
X396399Y530668D01*
X396216Y530717D01*
X396036Y530768D01*
X396023Y530769D01*
X396010Y530772D01*
X395679Y530799D01*
X378400Y530799D01*
X378399Y530800D01*
X378399Y586800D01*
X378400Y586801D01*
X434400Y586801D01*
X434401Y586800D01*
X434401Y530800D01*
X434400Y530799D01*
X417121Y530799D01*
X417107Y530798D01*
X417094Y530799D01*
X416908Y530778D01*
X416720Y530759D01*
X416707Y530755D01*
X416694Y530754D01*
X416516Y530697D01*
X416335Y530641D01*
X416323Y530635D01*
X416311Y530631D01*
X416147Y530539D01*
X415981Y530449D01*
X415971Y530441D01*
X415959Y530434D01*
X415816Y530311D01*
X415672Y530192D01*
X415664Y530181D01*
X415653Y530173D01*
X415537Y530024D01*
X415420Y529878D01*
X415414Y529866D01*
X415405Y529856D01*
X415320Y529686D01*
X415234Y529521D01*
X415231Y529508D01*
X415224Y529496D01*
X415175Y529314D01*
X415123Y529134D01*
X415122Y529120D01*
X415118Y529107D01*
X415105Y528920D01*
X415090Y528732D01*
X415091Y528719D01*
X415091Y528706D01*
X415115Y528518D01*
X415137Y528333D01*
X415141Y528320D01*
X415143Y528307D01*
X415244Y527991D01*
X416175Y525744D01*
X416175Y521856D01*
X414687Y518263D01*
X411937Y515513D01*
X408344Y514025D01*
X404456Y514025D01*
G37*
%LPD*%
%LPC*%
G36*
X48200Y48199D02*
X48200Y48199D01*
X48199Y48200D01*
X48199Y104200D01*
X48200Y104201D01*
X65479Y104201D01*
X65493Y104202D01*
X65506Y104201D01*
X65692Y104222D01*
X65880Y104241D01*
X65893Y104245D01*
X65906Y104246D01*
X66084Y104303D01*
X66265Y104359D01*
X66277Y104365D01*
X66289Y104369D01*
X66453Y104461D01*
X66619Y104551D01*
X66629Y104559D01*
X66641Y104566D01*
X66784Y104689D01*
X66928Y104808D01*
X66936Y104819D01*
X66947Y104827D01*
X67063Y104976D01*
X67180Y105122D01*
X67186Y105134D01*
X67195Y105144D01*
X67280Y105314D01*
X67366Y105479D01*
X67369Y105492D01*
X67376Y105504D01*
X67425Y105686D01*
X67477Y105866D01*
X67478Y105880D01*
X67482Y105893D01*
X67495Y106080D01*
X67510Y106268D01*
X67509Y106281D01*
X67509Y106294D01*
X67485Y106482D01*
X67463Y106667D01*
X67459Y106680D01*
X67457Y106693D01*
X67356Y107009D01*
X66425Y109256D01*
X66425Y113144D01*
X67913Y116737D01*
X70663Y119487D01*
X71917Y120006D01*
X71918Y120006D01*
X74256Y120975D01*
X78144Y120975D01*
X81737Y119487D01*
X84487Y116737D01*
X85975Y113144D01*
X85975Y109256D01*
X85044Y107009D01*
X85040Y106996D01*
X85034Y106985D01*
X84982Y106805D01*
X84928Y106624D01*
X84926Y106611D01*
X84923Y106598D01*
X84907Y106410D01*
X84890Y106223D01*
X84891Y106210D01*
X84890Y106196D01*
X84912Y106010D01*
X84931Y105823D01*
X84935Y105810D01*
X84937Y105797D01*
X84995Y105617D01*
X85051Y105438D01*
X85057Y105427D01*
X85062Y105414D01*
X85154Y105250D01*
X85244Y105085D01*
X85253Y105075D01*
X85260Y105063D01*
X85382Y104921D01*
X85504Y104777D01*
X85514Y104769D01*
X85523Y104758D01*
X85671Y104644D01*
X85818Y104526D01*
X85830Y104520D01*
X85841Y104512D01*
X86009Y104428D01*
X86176Y104342D01*
X86189Y104338D01*
X86201Y104332D01*
X86384Y104283D01*
X86564Y104232D01*
X86577Y104231D01*
X86590Y104228D01*
X86921Y104201D01*
X104200Y104201D01*
X104201Y104200D01*
X104201Y48200D01*
X104200Y48199D01*
X48200Y48199D01*
G37*
%LPD*%
%LPC*%
G36*
X378400Y48199D02*
X378400Y48199D01*
X378399Y48200D01*
X378399Y104200D01*
X378400Y104201D01*
X395679Y104201D01*
X395693Y104202D01*
X395706Y104201D01*
X395892Y104222D01*
X396080Y104241D01*
X396093Y104245D01*
X396106Y104246D01*
X396284Y104303D01*
X396465Y104359D01*
X396477Y104365D01*
X396489Y104369D01*
X396653Y104461D01*
X396819Y104551D01*
X396829Y104559D01*
X396841Y104566D01*
X396984Y104689D01*
X397128Y104808D01*
X397136Y104819D01*
X397147Y104827D01*
X397263Y104976D01*
X397380Y105122D01*
X397386Y105134D01*
X397395Y105144D01*
X397480Y105314D01*
X397566Y105479D01*
X397569Y105492D01*
X397576Y105504D01*
X397625Y105686D01*
X397677Y105866D01*
X397678Y105880D01*
X397682Y105893D01*
X397695Y106080D01*
X397710Y106268D01*
X397709Y106281D01*
X397709Y106294D01*
X397685Y106482D01*
X397663Y106667D01*
X397659Y106680D01*
X397657Y106693D01*
X397556Y107009D01*
X396625Y109256D01*
X396625Y113144D01*
X398113Y116737D01*
X400863Y119487D01*
X402117Y120006D01*
X402118Y120006D01*
X404456Y120975D01*
X408344Y120975D01*
X411937Y119487D01*
X414687Y116737D01*
X416175Y113144D01*
X416175Y109256D01*
X415244Y107009D01*
X415240Y106996D01*
X415234Y106985D01*
X415182Y106805D01*
X415128Y106624D01*
X415126Y106611D01*
X415123Y106598D01*
X415107Y106410D01*
X415090Y106223D01*
X415091Y106210D01*
X415090Y106196D01*
X415112Y106010D01*
X415131Y105823D01*
X415135Y105810D01*
X415137Y105797D01*
X415195Y105617D01*
X415251Y105438D01*
X415257Y105427D01*
X415262Y105414D01*
X415354Y105250D01*
X415444Y105085D01*
X415453Y105075D01*
X415460Y105063D01*
X415582Y104921D01*
X415704Y104777D01*
X415714Y104769D01*
X415723Y104758D01*
X415871Y104644D01*
X416018Y104526D01*
X416030Y104520D01*
X416041Y104512D01*
X416209Y104428D01*
X416376Y104342D01*
X416389Y104338D01*
X416401Y104332D01*
X416584Y104283D01*
X416764Y104232D01*
X416777Y104231D01*
X416790Y104228D01*
X417121Y104201D01*
X434400Y104201D01*
X434401Y104200D01*
X434401Y48200D01*
X434400Y48199D01*
X378400Y48199D01*
G37*
%LPD*%
%LPC*%
G36*
X213300Y48199D02*
X213300Y48199D01*
X213299Y48200D01*
X213299Y104200D01*
X213300Y104201D01*
X230579Y104201D01*
X230593Y104202D01*
X230606Y104201D01*
X230792Y104222D01*
X230980Y104241D01*
X230993Y104245D01*
X231006Y104246D01*
X231184Y104303D01*
X231365Y104359D01*
X231377Y104365D01*
X231389Y104369D01*
X231553Y104461D01*
X231719Y104551D01*
X231729Y104559D01*
X231741Y104566D01*
X231884Y104689D01*
X232028Y104808D01*
X232036Y104819D01*
X232047Y104827D01*
X232163Y104976D01*
X232280Y105122D01*
X232286Y105134D01*
X232295Y105144D01*
X232380Y105314D01*
X232466Y105479D01*
X232469Y105492D01*
X232476Y105504D01*
X232525Y105686D01*
X232577Y105866D01*
X232578Y105880D01*
X232582Y105893D01*
X232595Y106080D01*
X232610Y106268D01*
X232609Y106281D01*
X232609Y106294D01*
X232585Y106482D01*
X232563Y106667D01*
X232559Y106680D01*
X232557Y106693D01*
X232456Y107009D01*
X231525Y109256D01*
X231525Y113144D01*
X233013Y116737D01*
X235763Y119487D01*
X237017Y120006D01*
X237018Y120006D01*
X239356Y120975D01*
X243244Y120975D01*
X246837Y119487D01*
X249587Y116737D01*
X251075Y113144D01*
X251075Y109256D01*
X250144Y107009D01*
X250140Y106996D01*
X250134Y106985D01*
X250082Y106805D01*
X250028Y106624D01*
X250026Y106611D01*
X250023Y106598D01*
X250007Y106410D01*
X249990Y106223D01*
X249991Y106210D01*
X249990Y106196D01*
X250012Y106010D01*
X250031Y105823D01*
X250035Y105810D01*
X250037Y105797D01*
X250095Y105617D01*
X250151Y105438D01*
X250157Y105427D01*
X250162Y105414D01*
X250254Y105250D01*
X250344Y105085D01*
X250353Y105075D01*
X250360Y105063D01*
X250482Y104921D01*
X250604Y104777D01*
X250614Y104769D01*
X250623Y104758D01*
X250771Y104644D01*
X250918Y104526D01*
X250930Y104520D01*
X250941Y104512D01*
X251109Y104428D01*
X251276Y104342D01*
X251289Y104338D01*
X251301Y104332D01*
X251484Y104283D01*
X251664Y104232D01*
X251677Y104231D01*
X251690Y104228D01*
X252021Y104201D01*
X269300Y104201D01*
X269301Y104200D01*
X269301Y48200D01*
X269300Y48199D01*
X213300Y48199D01*
G37*
%LPD*%
%LPC*%
G36*
X224097Y580493D02*
X224097Y580493D01*
X218293Y586297D01*
X218293Y594503D01*
X220856Y597067D01*
X220975Y597212D01*
X221097Y597356D01*
X221103Y597368D01*
X221111Y597378D01*
X221199Y597543D01*
X221290Y597709D01*
X221294Y597722D01*
X221300Y597734D01*
X221354Y597913D01*
X221410Y598094D01*
X221411Y598107D01*
X221415Y598120D01*
X221432Y598308D01*
X221451Y598494D01*
X221450Y598507D01*
X221451Y598521D01*
X221431Y598710D01*
X221413Y598895D01*
X221409Y598908D01*
X221408Y598921D01*
X221351Y599101D01*
X221297Y599280D01*
X221290Y599292D01*
X221286Y599305D01*
X221196Y599469D01*
X221106Y599635D01*
X221097Y599647D01*
X221092Y599657D01*
X221050Y599706D01*
X220900Y599895D01*
X214964Y606204D01*
X214921Y606242D01*
X214883Y606286D01*
X214769Y606374D01*
X214661Y606468D01*
X214610Y606497D01*
X214565Y606532D01*
X214436Y606596D01*
X214311Y606668D01*
X214256Y606686D01*
X214204Y606712D01*
X214065Y606749D01*
X213929Y606794D01*
X213871Y606801D01*
X213816Y606816D01*
X213608Y606833D01*
X213529Y606843D01*
X213509Y606841D01*
X213485Y606843D01*
X86664Y606843D01*
X86642Y606841D01*
X86620Y606843D01*
X86442Y606821D01*
X86263Y606803D01*
X86242Y606797D01*
X86220Y606794D01*
X86050Y606738D01*
X85879Y606685D01*
X85859Y606675D01*
X85838Y606668D01*
X85682Y606579D01*
X85525Y606493D01*
X85507Y606479D01*
X85488Y606468D01*
X85353Y606350D01*
X85215Y606236D01*
X85201Y606218D01*
X85184Y606204D01*
X85075Y606062D01*
X84963Y605922D01*
X84953Y605902D01*
X84939Y605884D01*
X84787Y605589D01*
X84487Y604863D01*
X81737Y602113D01*
X78144Y600625D01*
X74256Y600625D01*
X70663Y602113D01*
X67913Y604863D01*
X66425Y608456D01*
X66425Y612344D01*
X67913Y615937D01*
X70663Y618687D01*
X74256Y620175D01*
X78144Y620175D01*
X81737Y618687D01*
X84487Y615937D01*
X84787Y615211D01*
X84798Y615191D01*
X84805Y615170D01*
X84893Y615014D01*
X84978Y614856D01*
X84992Y614839D01*
X85003Y614819D01*
X85120Y614684D01*
X85234Y614545D01*
X85251Y614531D01*
X85266Y614514D01*
X85407Y614405D01*
X85547Y614292D01*
X85566Y614281D01*
X85584Y614268D01*
X85745Y614188D01*
X85903Y614105D01*
X85925Y614098D01*
X85945Y614088D01*
X86118Y614042D01*
X86290Y613992D01*
X86312Y613990D01*
X86333Y613984D01*
X86664Y613957D01*
X97663Y613957D01*
X97668Y613957D01*
X97673Y613957D01*
X97867Y613977D01*
X98064Y613997D01*
X98068Y613998D01*
X98073Y613998D01*
X98260Y614057D01*
X98449Y614115D01*
X98453Y614117D01*
X98457Y614118D01*
X98630Y614213D01*
X98803Y614307D01*
X98807Y614309D01*
X98811Y614312D01*
X98963Y614440D01*
X99112Y614564D01*
X99115Y614568D01*
X99119Y614571D01*
X99242Y614726D01*
X99365Y614878D01*
X99367Y614882D01*
X99370Y614886D01*
X99460Y615061D01*
X99550Y615235D01*
X99551Y615240D01*
X99553Y615244D01*
X99607Y615432D01*
X99662Y615622D01*
X99662Y615627D01*
X99663Y615631D01*
X99678Y615824D01*
X99694Y616024D01*
X99694Y616028D01*
X99694Y616033D01*
X99671Y616227D01*
X99648Y616423D01*
X99646Y616428D01*
X99646Y616432D01*
X99584Y616617D01*
X99523Y616806D01*
X99520Y616810D01*
X99519Y616814D01*
X99422Y616985D01*
X99325Y617157D01*
X99322Y617160D01*
X99320Y617164D01*
X99188Y617315D01*
X99062Y617461D01*
X99058Y617464D01*
X99055Y617468D01*
X98897Y617589D01*
X98744Y617708D01*
X98739Y617710D01*
X98736Y617713D01*
X98625Y617770D01*
X97101Y619294D01*
X96293Y621244D01*
X96293Y623356D01*
X97101Y625306D01*
X98594Y626799D01*
X100544Y627607D01*
X102656Y627607D01*
X104606Y626799D01*
X104953Y626452D01*
X104974Y626435D01*
X104991Y626414D01*
X105129Y626307D01*
X105265Y626197D01*
X105288Y626184D01*
X105309Y626168D01*
X105466Y626090D01*
X105620Y626008D01*
X105646Y626000D01*
X105670Y625988D01*
X105839Y625943D01*
X106006Y625893D01*
X106033Y625891D01*
X106059Y625884D01*
X106390Y625857D01*
X261910Y625857D01*
X261937Y625859D01*
X261964Y625857D01*
X262138Y625879D01*
X262311Y625897D01*
X262337Y625904D01*
X262363Y625908D01*
X262529Y625963D01*
X262696Y626015D01*
X262720Y626028D01*
X262745Y626036D01*
X262897Y626123D01*
X263050Y626207D01*
X263071Y626224D01*
X263094Y626237D01*
X263347Y626452D01*
X263694Y626799D01*
X265644Y627607D01*
X267756Y627607D01*
X269706Y626799D01*
X271199Y625306D01*
X272007Y623356D01*
X272007Y621244D01*
X271199Y619294D01*
X269706Y617801D01*
X267756Y616993D01*
X265644Y616993D01*
X263694Y617801D01*
X263347Y618148D01*
X263326Y618165D01*
X263309Y618186D01*
X263171Y618293D01*
X263035Y618403D01*
X263012Y618416D01*
X262991Y618432D01*
X262834Y618510D01*
X262680Y618592D01*
X262654Y618600D01*
X262630Y618612D01*
X262461Y618657D01*
X262294Y618707D01*
X262267Y618709D01*
X262241Y618716D01*
X261910Y618743D01*
X106390Y618743D01*
X106363Y618741D01*
X106336Y618743D01*
X106162Y618721D01*
X105989Y618703D01*
X105963Y618696D01*
X105937Y618692D01*
X105771Y618637D01*
X105604Y618585D01*
X105580Y618572D01*
X105555Y618564D01*
X105403Y618477D01*
X105250Y618393D01*
X105229Y618376D01*
X105206Y618363D01*
X104953Y618148D01*
X104566Y617761D01*
X104404Y617675D01*
X104401Y617672D01*
X104397Y617669D01*
X104247Y617544D01*
X104094Y617418D01*
X104091Y617415D01*
X104088Y617412D01*
X103964Y617258D01*
X103840Y617106D01*
X103838Y617102D01*
X103835Y617098D01*
X103744Y616923D01*
X103653Y616749D01*
X103652Y616745D01*
X103650Y616741D01*
X103595Y616551D01*
X103540Y616363D01*
X103540Y616358D01*
X103538Y616354D01*
X103522Y616155D01*
X103505Y615962D01*
X103506Y615957D01*
X103506Y615952D01*
X103528Y615757D01*
X103551Y615561D01*
X103552Y615557D01*
X103552Y615553D01*
X103613Y615366D01*
X103674Y615178D01*
X103676Y615174D01*
X103677Y615170D01*
X103776Y614996D01*
X103870Y614827D01*
X103873Y614823D01*
X103875Y614819D01*
X104006Y614668D01*
X104132Y614521D01*
X104135Y614518D01*
X104138Y614514D01*
X104292Y614395D01*
X104449Y614272D01*
X104453Y614270D01*
X104456Y614268D01*
X104634Y614179D01*
X104809Y614092D01*
X104813Y614090D01*
X104817Y614088D01*
X105010Y614037D01*
X105197Y613985D01*
X105201Y613985D01*
X105206Y613984D01*
X105537Y613957D01*
X213685Y613957D01*
X213881Y613976D01*
X214077Y613995D01*
X214081Y613996D01*
X214085Y613997D01*
X214136Y614012D01*
X215923Y613958D01*
X215951Y613960D01*
X215985Y613957D01*
X217437Y613957D01*
X218432Y612899D01*
X218453Y612881D01*
X218475Y612855D01*
X219749Y611581D01*
X219802Y611483D01*
X219805Y611479D01*
X219807Y611476D01*
X219826Y611452D01*
X220009Y611224D01*
X229677Y600946D01*
X229720Y600908D01*
X229758Y600864D01*
X229872Y600776D01*
X229980Y600682D01*
X230031Y600653D01*
X230076Y600618D01*
X230205Y600554D01*
X230330Y600482D01*
X230385Y600464D01*
X230437Y600438D01*
X230576Y600401D01*
X230712Y600356D01*
X230770Y600349D01*
X230826Y600334D01*
X231033Y600317D01*
X231112Y600307D01*
X231132Y600309D01*
X231156Y600307D01*
X232303Y600307D01*
X238107Y594503D01*
X238107Y586297D01*
X232303Y580493D01*
X224097Y580493D01*
G37*
%LPD*%
%LPC*%
G36*
X404783Y747267D02*
X404783Y747267D01*
X401795Y748505D01*
X399509Y750791D01*
X398271Y753779D01*
X398271Y770221D01*
X399509Y773209D01*
X399749Y773449D01*
X399760Y773462D01*
X399774Y773474D01*
X399888Y773618D01*
X400004Y773760D01*
X400012Y773776D01*
X400023Y773790D01*
X400107Y773954D01*
X400192Y774116D01*
X400198Y774133D01*
X400206Y774149D01*
X400255Y774326D01*
X400307Y774502D01*
X400309Y774519D01*
X400314Y774537D01*
X400327Y774720D01*
X400344Y774903D01*
X400342Y774920D01*
X400343Y774938D01*
X400320Y775120D01*
X400300Y775303D01*
X400295Y775320D01*
X400293Y775338D01*
X400234Y775511D01*
X400179Y775687D01*
X400170Y775702D01*
X400164Y775719D01*
X400073Y775879D01*
X399984Y776039D01*
X399972Y776053D01*
X399963Y776068D01*
X399749Y776321D01*
X392822Y783248D01*
X392801Y783265D01*
X392783Y783286D01*
X392646Y783393D01*
X392510Y783503D01*
X392487Y783516D01*
X392465Y783532D01*
X392308Y783610D01*
X392154Y783692D01*
X392129Y783700D01*
X392105Y783712D01*
X391935Y783757D01*
X391769Y783807D01*
X391742Y783809D01*
X391716Y783816D01*
X391385Y783843D01*
X328727Y783843D01*
X316622Y795948D01*
X316601Y795965D01*
X316583Y795986D01*
X316446Y796093D01*
X316310Y796203D01*
X316287Y796216D01*
X316265Y796232D01*
X316108Y796310D01*
X315954Y796392D01*
X315929Y796400D01*
X315905Y796412D01*
X315735Y796457D01*
X315569Y796507D01*
X315542Y796509D01*
X315516Y796516D01*
X315185Y796543D01*
X169890Y796543D01*
X169863Y796541D01*
X169836Y796543D01*
X169662Y796521D01*
X169489Y796503D01*
X169463Y796496D01*
X169437Y796492D01*
X169271Y796437D01*
X169104Y796385D01*
X169080Y796372D01*
X169055Y796364D01*
X168903Y796277D01*
X168750Y796193D01*
X168729Y796176D01*
X168706Y796163D01*
X168453Y795948D01*
X168106Y795601D01*
X166156Y794793D01*
X164044Y794793D01*
X162094Y795601D01*
X160601Y797094D01*
X159793Y799044D01*
X159793Y801156D01*
X160601Y803106D01*
X162094Y804599D01*
X163872Y805335D01*
X163876Y805338D01*
X163880Y805339D01*
X164052Y805432D01*
X164227Y805526D01*
X164231Y805528D01*
X164234Y805531D01*
X164385Y805656D01*
X164537Y805782D01*
X164540Y805785D01*
X164544Y805788D01*
X164667Y805941D01*
X164791Y806095D01*
X164793Y806099D01*
X164796Y806102D01*
X164886Y806275D01*
X164978Y806451D01*
X164980Y806455D01*
X164982Y806459D01*
X165036Y806647D01*
X165091Y806838D01*
X165092Y806842D01*
X165093Y806846D01*
X165101Y806946D01*
X165121Y806777D01*
X165122Y806772D01*
X165123Y806768D01*
X165184Y806583D01*
X165246Y806394D01*
X165248Y806390D01*
X165250Y806386D01*
X165346Y806217D01*
X165444Y806043D01*
X165447Y806040D01*
X165449Y806036D01*
X165577Y805889D01*
X165707Y805739D01*
X165711Y805736D01*
X165713Y805732D01*
X165870Y805612D01*
X166025Y805492D01*
X166029Y805490D01*
X166033Y805487D01*
X166328Y805335D01*
X168106Y804599D01*
X168453Y804252D01*
X168474Y804235D01*
X168491Y804214D01*
X168629Y804107D01*
X168765Y803997D01*
X168788Y803984D01*
X168809Y803968D01*
X168966Y803890D01*
X169120Y803808D01*
X169146Y803800D01*
X169170Y803788D01*
X169339Y803743D01*
X169506Y803693D01*
X169533Y803691D01*
X169559Y803684D01*
X169890Y803657D01*
X318973Y803657D01*
X331078Y791552D01*
X331099Y791535D01*
X331117Y791514D01*
X331254Y791407D01*
X331390Y791297D01*
X331413Y791284D01*
X331435Y791268D01*
X331592Y791190D01*
X331746Y791108D01*
X331771Y791100D01*
X331795Y791088D01*
X331965Y791043D01*
X332131Y790993D01*
X332158Y790991D01*
X332184Y790984D01*
X332515Y790957D01*
X361044Y790957D01*
X361052Y790958D01*
X361061Y790957D01*
X361253Y790978D01*
X361444Y790997D01*
X361453Y790999D01*
X361462Y791000D01*
X361644Y791058D01*
X361829Y791115D01*
X361837Y791119D01*
X361846Y791122D01*
X362014Y791215D01*
X362183Y791307D01*
X362190Y791312D01*
X362198Y791317D01*
X362345Y791441D01*
X362492Y791564D01*
X362498Y791571D01*
X362505Y791577D01*
X362624Y791728D01*
X362745Y791878D01*
X362749Y791886D01*
X362754Y791893D01*
X362842Y792066D01*
X362930Y792235D01*
X362933Y792244D01*
X362937Y792252D01*
X362989Y792438D01*
X363042Y792622D01*
X363042Y792631D01*
X363045Y792640D01*
X363059Y792833D01*
X363075Y793024D01*
X363074Y793032D01*
X363074Y793041D01*
X363050Y793234D01*
X363028Y793423D01*
X363025Y793432D01*
X363024Y793441D01*
X362962Y793624D01*
X362903Y793806D01*
X362898Y793814D01*
X362896Y793822D01*
X362802Y793985D01*
X362705Y794157D01*
X362699Y794164D01*
X362695Y794171D01*
X362480Y794424D01*
X360171Y796733D01*
X360171Y803467D01*
X364933Y808229D01*
X371667Y808229D01*
X376429Y803467D01*
X376429Y796733D01*
X374120Y794424D01*
X374114Y794417D01*
X374108Y794412D01*
X373987Y794262D01*
X373865Y794113D01*
X373861Y794105D01*
X373855Y794098D01*
X373767Y793928D01*
X373676Y793757D01*
X373674Y793748D01*
X373670Y793741D01*
X373617Y793556D01*
X373562Y793371D01*
X373561Y793362D01*
X373558Y793354D01*
X373543Y793163D01*
X373525Y792970D01*
X373526Y792961D01*
X373525Y792952D01*
X373548Y792762D01*
X373569Y792570D01*
X373571Y792561D01*
X373572Y792553D01*
X373632Y792371D01*
X373690Y792186D01*
X373694Y792178D01*
X373697Y792170D01*
X373793Y791999D01*
X373885Y791834D01*
X373891Y791827D01*
X373895Y791819D01*
X374021Y791673D01*
X374145Y791527D01*
X374152Y791521D01*
X374158Y791514D01*
X374310Y791397D01*
X374461Y791277D01*
X374469Y791273D01*
X374476Y791268D01*
X374648Y791182D01*
X374820Y791095D01*
X374829Y791092D01*
X374837Y791088D01*
X375023Y791038D01*
X375208Y790987D01*
X375217Y790986D01*
X375226Y790984D01*
X375556Y790957D01*
X395173Y790957D01*
X410088Y776042D01*
X410112Y776023D01*
X410132Y775999D01*
X410267Y775895D01*
X410399Y775787D01*
X410427Y775773D01*
X410451Y775754D01*
X410747Y775602D01*
X411005Y775495D01*
X413291Y773209D01*
X414529Y770221D01*
X414529Y753779D01*
X413291Y750791D01*
X411005Y748505D01*
X408017Y747267D01*
X404783Y747267D01*
G37*
%LPD*%
%LPC*%
G36*
X326833Y607821D02*
X326833Y607821D01*
X322071Y612583D01*
X322071Y619317D01*
X326048Y623294D01*
X326065Y623315D01*
X326086Y623332D01*
X326193Y623470D01*
X326303Y623606D01*
X326316Y623629D01*
X326332Y623650D01*
X326410Y623807D01*
X326492Y623961D01*
X326500Y623987D01*
X326512Y624011D01*
X326557Y624180D01*
X326607Y624347D01*
X326609Y624374D01*
X326616Y624400D01*
X326643Y624730D01*
X326643Y649173D01*
X354127Y676657D01*
X359607Y676657D01*
X359616Y676658D01*
X359625Y676657D01*
X359816Y676678D01*
X360007Y676697D01*
X360016Y676699D01*
X360025Y676700D01*
X360207Y676758D01*
X360392Y676815D01*
X360400Y676819D01*
X360409Y676822D01*
X360577Y676915D01*
X360746Y677007D01*
X360753Y677012D01*
X360761Y677017D01*
X360908Y677141D01*
X361056Y677264D01*
X361061Y677271D01*
X361068Y677277D01*
X361187Y677428D01*
X361308Y677578D01*
X361312Y677586D01*
X361318Y677593D01*
X361405Y677766D01*
X361493Y677935D01*
X361496Y677944D01*
X361500Y677952D01*
X361552Y678138D01*
X361605Y678322D01*
X361606Y678331D01*
X361608Y678340D01*
X361622Y678533D01*
X361638Y678724D01*
X361637Y678732D01*
X361637Y678741D01*
X361613Y678934D01*
X361591Y679123D01*
X361588Y679132D01*
X361587Y679141D01*
X361526Y679324D01*
X361466Y679506D01*
X361462Y679514D01*
X361459Y679522D01*
X361363Y679688D01*
X361268Y679857D01*
X361262Y679864D01*
X361258Y679871D01*
X361043Y680124D01*
X359155Y682012D01*
X359155Y683769D01*
X368300Y683769D01*
X377445Y683769D01*
X377445Y682012D01*
X375557Y680124D01*
X375551Y680117D01*
X375544Y680112D01*
X375424Y679962D01*
X375302Y679813D01*
X375298Y679805D01*
X375292Y679798D01*
X375204Y679628D01*
X375113Y679457D01*
X375111Y679448D01*
X375107Y679441D01*
X375053Y679256D01*
X374998Y679071D01*
X374998Y679062D01*
X374995Y679054D01*
X374979Y678863D01*
X374962Y678670D01*
X374963Y678661D01*
X374962Y678652D01*
X374984Y678463D01*
X375005Y678270D01*
X375008Y678261D01*
X375009Y678253D01*
X375069Y678071D01*
X375127Y677886D01*
X375131Y677878D01*
X375134Y677870D01*
X375229Y677701D01*
X375322Y677534D01*
X375327Y677527D01*
X375332Y677519D01*
X375458Y677373D01*
X375582Y677227D01*
X375589Y677221D01*
X375595Y677214D01*
X375746Y677097D01*
X375898Y676977D01*
X375906Y676973D01*
X375913Y676968D01*
X376085Y676882D01*
X376257Y676795D01*
X376266Y676792D01*
X376274Y676788D01*
X376460Y676738D01*
X376645Y676687D01*
X376654Y676686D01*
X376662Y676684D01*
X376993Y676657D01*
X395173Y676657D01*
X407278Y664552D01*
X407299Y664535D01*
X407317Y664514D01*
X407454Y664407D01*
X407590Y664297D01*
X407613Y664284D01*
X407635Y664268D01*
X407792Y664190D01*
X407946Y664108D01*
X407971Y664100D01*
X407995Y664088D01*
X408165Y664043D01*
X408331Y663993D01*
X408358Y663991D01*
X408384Y663984D01*
X408715Y663957D01*
X435720Y663957D01*
X435746Y663959D01*
X435773Y663957D01*
X435947Y663979D01*
X436120Y663997D01*
X436146Y664004D01*
X436172Y664008D01*
X436338Y664063D01*
X436505Y664115D01*
X436529Y664128D01*
X436554Y664136D01*
X436705Y664223D01*
X436859Y664307D01*
X436880Y664324D01*
X436903Y664337D01*
X437156Y664552D01*
X440348Y667744D01*
X440365Y667765D01*
X440386Y667782D01*
X440492Y667920D01*
X440603Y668056D01*
X440616Y668079D01*
X440632Y668100D01*
X440710Y668257D01*
X440792Y668411D01*
X440800Y668437D01*
X440812Y668461D01*
X440857Y668630D01*
X440907Y668797D01*
X440909Y668824D01*
X440916Y668850D01*
X440943Y669180D01*
X440943Y677020D01*
X440941Y677046D01*
X440943Y677073D01*
X440921Y677247D01*
X440903Y677420D01*
X440896Y677446D01*
X440892Y677472D01*
X440837Y677638D01*
X440785Y677805D01*
X440772Y677829D01*
X440764Y677854D01*
X440677Y678006D01*
X440593Y678159D01*
X440576Y678180D01*
X440563Y678203D01*
X440348Y678456D01*
X436371Y682433D01*
X436371Y689167D01*
X441133Y693929D01*
X447867Y693929D01*
X452629Y689167D01*
X452629Y682433D01*
X448652Y678456D01*
X448635Y678435D01*
X448614Y678418D01*
X448507Y678280D01*
X448397Y678144D01*
X448384Y678121D01*
X448368Y678100D01*
X448290Y677943D01*
X448208Y677789D01*
X448200Y677763D01*
X448188Y677739D01*
X448143Y677570D01*
X448093Y677403D01*
X448091Y677376D01*
X448084Y677350D01*
X448057Y677020D01*
X448057Y669180D01*
X448059Y669154D01*
X448057Y669127D01*
X448079Y668953D01*
X448097Y668780D01*
X448104Y668754D01*
X448108Y668728D01*
X448163Y668562D01*
X448215Y668395D01*
X448228Y668371D01*
X448236Y668346D01*
X448323Y668194D01*
X448407Y668041D01*
X448424Y668020D01*
X448437Y667997D01*
X448652Y667744D01*
X452629Y663767D01*
X452629Y657033D01*
X447867Y652271D01*
X441133Y652271D01*
X437156Y656248D01*
X437135Y656265D01*
X437118Y656286D01*
X436980Y656393D01*
X436844Y656503D01*
X436821Y656516D01*
X436800Y656532D01*
X436643Y656610D01*
X436489Y656692D01*
X436463Y656700D01*
X436439Y656712D01*
X436270Y656757D01*
X436103Y656807D01*
X436076Y656809D01*
X436050Y656816D01*
X435720Y656843D01*
X404927Y656843D01*
X392822Y668948D01*
X392801Y668965D01*
X392783Y668986D01*
X392646Y669093D01*
X392510Y669203D01*
X392487Y669216D01*
X392465Y669232D01*
X392308Y669310D01*
X392154Y669392D01*
X392129Y669400D01*
X392105Y669412D01*
X391935Y669457D01*
X391769Y669507D01*
X391742Y669509D01*
X391716Y669516D01*
X391385Y669543D01*
X375556Y669543D01*
X375548Y669542D01*
X375539Y669543D01*
X375347Y669522D01*
X375156Y669503D01*
X375147Y669501D01*
X375138Y669500D01*
X374956Y669442D01*
X374771Y669385D01*
X374763Y669381D01*
X374754Y669378D01*
X374586Y669285D01*
X374417Y669193D01*
X374410Y669188D01*
X374402Y669183D01*
X374255Y669059D01*
X374108Y668936D01*
X374102Y668929D01*
X374095Y668923D01*
X373976Y668772D01*
X373855Y668622D01*
X373851Y668614D01*
X373846Y668607D01*
X373758Y668434D01*
X373670Y668265D01*
X373667Y668256D01*
X373663Y668248D01*
X373611Y668062D01*
X373558Y667878D01*
X373558Y667869D01*
X373555Y667860D01*
X373541Y667667D01*
X373525Y667476D01*
X373526Y667468D01*
X373526Y667459D01*
X373550Y667266D01*
X373572Y667077D01*
X373575Y667068D01*
X373576Y667059D01*
X373638Y666876D01*
X373697Y666694D01*
X373702Y666686D01*
X373704Y666678D01*
X373800Y666512D01*
X373895Y666343D01*
X373901Y666336D01*
X373905Y666329D01*
X374120Y666076D01*
X376429Y663767D01*
X376429Y657033D01*
X372452Y653056D01*
X372435Y653035D01*
X372414Y653018D01*
X372307Y652880D01*
X372197Y652744D01*
X372184Y652721D01*
X372168Y652700D01*
X372090Y652543D01*
X372008Y652389D01*
X372000Y652363D01*
X371988Y652339D01*
X371943Y652170D01*
X371893Y652003D01*
X371891Y651976D01*
X371884Y651950D01*
X371857Y651620D01*
X371857Y650015D01*
X371859Y649988D01*
X371857Y649961D01*
X371879Y649787D01*
X371897Y649614D01*
X371904Y649588D01*
X371908Y649562D01*
X371963Y649396D01*
X372015Y649229D01*
X372028Y649206D01*
X372036Y649180D01*
X372123Y649029D01*
X372207Y648875D01*
X372224Y648855D01*
X372237Y648831D01*
X372452Y648578D01*
X377306Y643724D01*
X377327Y643707D01*
X377345Y643686D01*
X377482Y643579D01*
X377618Y643469D01*
X377641Y643456D01*
X377663Y643440D01*
X377820Y643362D01*
X377974Y643280D01*
X377999Y643272D01*
X378023Y643260D01*
X378193Y643215D01*
X378359Y643165D01*
X378386Y643163D01*
X378412Y643156D01*
X378743Y643129D01*
X384367Y643129D01*
X389129Y638367D01*
X389129Y631633D01*
X384367Y626871D01*
X377633Y626871D01*
X372871Y631633D01*
X372871Y637257D01*
X372869Y637284D01*
X372871Y637311D01*
X372849Y637485D01*
X372831Y637658D01*
X372824Y637683D01*
X372820Y637710D01*
X372765Y637876D01*
X372713Y638043D01*
X372700Y638066D01*
X372692Y638092D01*
X372605Y638243D01*
X372521Y638397D01*
X372504Y638417D01*
X372491Y638441D01*
X372276Y638694D01*
X364743Y646227D01*
X364743Y651620D01*
X364741Y651646D01*
X364743Y651673D01*
X364721Y651847D01*
X364703Y652020D01*
X364696Y652046D01*
X364692Y652072D01*
X364637Y652238D01*
X364585Y652405D01*
X364572Y652429D01*
X364564Y652454D01*
X364477Y652606D01*
X364393Y652759D01*
X364376Y652780D01*
X364363Y652803D01*
X364148Y653056D01*
X360171Y657033D01*
X360171Y663767D01*
X362480Y666076D01*
X362486Y666083D01*
X362492Y666088D01*
X362613Y666238D01*
X362735Y666387D01*
X362739Y666395D01*
X362745Y666402D01*
X362833Y666572D01*
X362924Y666743D01*
X362926Y666752D01*
X362930Y666759D01*
X362983Y666944D01*
X363038Y667129D01*
X363039Y667138D01*
X363042Y667146D01*
X363057Y667337D01*
X363075Y667530D01*
X363074Y667539D01*
X363075Y667548D01*
X363052Y667737D01*
X363031Y667930D01*
X363029Y667939D01*
X363028Y667947D01*
X362969Y668128D01*
X362910Y668314D01*
X362906Y668322D01*
X362903Y668330D01*
X362808Y668499D01*
X362715Y668666D01*
X362709Y668673D01*
X362705Y668681D01*
X362579Y668827D01*
X362455Y668973D01*
X362448Y668979D01*
X362442Y668986D01*
X362290Y669103D01*
X362139Y669223D01*
X362131Y669227D01*
X362124Y669232D01*
X361952Y669318D01*
X361780Y669405D01*
X361771Y669408D01*
X361763Y669412D01*
X361577Y669462D01*
X361392Y669513D01*
X361383Y669514D01*
X361374Y669516D01*
X361044Y669543D01*
X357915Y669543D01*
X357888Y669541D01*
X357861Y669543D01*
X357687Y669521D01*
X357514Y669503D01*
X357489Y669496D01*
X357462Y669492D01*
X357296Y669437D01*
X357129Y669385D01*
X357106Y669372D01*
X357080Y669364D01*
X356929Y669277D01*
X356775Y669193D01*
X356755Y669176D01*
X356731Y669163D01*
X356478Y668948D01*
X334352Y646822D01*
X334335Y646801D01*
X334314Y646783D01*
X334207Y646646D01*
X334097Y646510D01*
X334084Y646487D01*
X334068Y646465D01*
X333990Y646308D01*
X333908Y646154D01*
X333900Y646129D01*
X333888Y646105D01*
X333843Y645935D01*
X333793Y645769D01*
X333791Y645742D01*
X333784Y645716D01*
X333757Y645385D01*
X333757Y624730D01*
X333759Y624704D01*
X333757Y624677D01*
X333779Y624503D01*
X333797Y624330D01*
X333804Y624304D01*
X333808Y624278D01*
X333864Y624112D01*
X333915Y623945D01*
X333928Y623921D01*
X333936Y623896D01*
X334023Y623744D01*
X334107Y623591D01*
X334124Y623570D01*
X334137Y623547D01*
X334352Y623294D01*
X338329Y619317D01*
X338329Y612583D01*
X333567Y607821D01*
X326833Y607821D01*
G37*
%LPD*%
%LPC*%
G36*
X316444Y464593D02*
X316444Y464593D01*
X314494Y465401D01*
X313001Y466894D01*
X312193Y468844D01*
X312193Y470956D01*
X313001Y472906D01*
X313348Y473253D01*
X313365Y473274D01*
X313386Y473291D01*
X313493Y473429D01*
X313603Y473565D01*
X313616Y473588D01*
X313632Y473609D01*
X313710Y473766D01*
X313792Y473920D01*
X313800Y473946D01*
X313812Y473970D01*
X313857Y474139D01*
X313907Y474306D01*
X313909Y474333D01*
X313916Y474359D01*
X313943Y474690D01*
X313943Y489712D01*
X313941Y489730D01*
X313943Y489748D01*
X313922Y489930D01*
X313903Y490113D01*
X313898Y490130D01*
X313896Y490147D01*
X313839Y490322D01*
X313785Y490498D01*
X313777Y490513D01*
X313771Y490530D01*
X313681Y490690D01*
X313593Y490852D01*
X313582Y490865D01*
X313573Y490881D01*
X313453Y491020D01*
X313336Y491161D01*
X313322Y491172D01*
X313310Y491186D01*
X313165Y491298D01*
X313022Y491413D01*
X313006Y491421D01*
X312992Y491432D01*
X312827Y491514D01*
X312665Y491599D01*
X312648Y491604D01*
X312632Y491612D01*
X312453Y491659D01*
X312278Y491710D01*
X312260Y491712D01*
X312243Y491716D01*
X311912Y491743D01*
X205786Y491743D01*
X205764Y491741D01*
X205742Y491743D01*
X205565Y491721D01*
X205386Y491703D01*
X205365Y491697D01*
X205342Y491694D01*
X205173Y491638D01*
X205001Y491585D01*
X204981Y491575D01*
X204960Y491568D01*
X204805Y491479D01*
X204647Y491393D01*
X204630Y491379D01*
X204610Y491368D01*
X204475Y491250D01*
X204338Y491136D01*
X204324Y491118D01*
X204307Y491104D01*
X204198Y490962D01*
X204085Y490822D01*
X204075Y490802D01*
X204061Y490784D01*
X204037Y490738D01*
X201709Y488409D01*
X199144Y487346D01*
X198721Y487171D01*
X182279Y487171D01*
X179291Y488409D01*
X177005Y490695D01*
X175767Y493683D01*
X175767Y496917D01*
X177005Y499905D01*
X179291Y502191D01*
X182279Y503429D01*
X198721Y503429D01*
X201709Y502191D01*
X204049Y499851D01*
X204100Y499756D01*
X204114Y499739D01*
X204125Y499719D01*
X204242Y499584D01*
X204356Y499445D01*
X204374Y499431D01*
X204388Y499414D01*
X204530Y499305D01*
X204669Y499192D01*
X204689Y499181D01*
X204706Y499168D01*
X204867Y499088D01*
X205026Y499005D01*
X205047Y498998D01*
X205067Y498988D01*
X205241Y498942D01*
X205412Y498892D01*
X205434Y498890D01*
X205456Y498884D01*
X205786Y498857D01*
X311912Y498857D01*
X311930Y498859D01*
X311948Y498857D01*
X312130Y498878D01*
X312313Y498897D01*
X312330Y498902D01*
X312347Y498904D01*
X312522Y498961D01*
X312698Y499015D01*
X312713Y499023D01*
X312730Y499029D01*
X312890Y499119D01*
X313052Y499207D01*
X313065Y499218D01*
X313081Y499227D01*
X313220Y499347D01*
X313361Y499464D01*
X313372Y499478D01*
X313386Y499490D01*
X313498Y499635D01*
X313613Y499778D01*
X313621Y499794D01*
X313632Y499808D01*
X313714Y499973D01*
X313799Y500135D01*
X313804Y500152D01*
X313812Y500168D01*
X313859Y500347D01*
X313910Y500522D01*
X313912Y500540D01*
X313916Y500557D01*
X313943Y500888D01*
X313943Y588120D01*
X313941Y588146D01*
X313943Y588173D01*
X313921Y588347D01*
X313903Y588520D01*
X313896Y588546D01*
X313892Y588572D01*
X313837Y588738D01*
X313785Y588905D01*
X313772Y588929D01*
X313764Y588954D01*
X313677Y589106D01*
X313593Y589259D01*
X313576Y589280D01*
X313563Y589303D01*
X313348Y589556D01*
X309371Y593533D01*
X309371Y600267D01*
X314133Y605029D01*
X320867Y605029D01*
X325629Y600267D01*
X325629Y593533D01*
X321652Y589556D01*
X321635Y589535D01*
X321614Y589518D01*
X321507Y589380D01*
X321397Y589244D01*
X321384Y589221D01*
X321368Y589200D01*
X321290Y589043D01*
X321208Y588889D01*
X321200Y588863D01*
X321188Y588839D01*
X321143Y588670D01*
X321093Y588503D01*
X321091Y588476D01*
X321084Y588450D01*
X321057Y588120D01*
X321057Y474690D01*
X321059Y474663D01*
X321057Y474636D01*
X321079Y474462D01*
X321097Y474289D01*
X321104Y474263D01*
X321108Y474237D01*
X321163Y474071D01*
X321215Y473904D01*
X321228Y473880D01*
X321236Y473855D01*
X321323Y473703D01*
X321407Y473550D01*
X321424Y473529D01*
X321437Y473506D01*
X321652Y473253D01*
X321999Y472906D01*
X322807Y470956D01*
X322807Y468844D01*
X321999Y466894D01*
X320506Y465401D01*
X318556Y464593D01*
X316444Y464593D01*
G37*
%LPD*%
%LPC*%
G36*
X215879Y526723D02*
X215879Y526723D01*
X215878Y526728D01*
X215877Y526732D01*
X215816Y526917D01*
X215754Y527106D01*
X215752Y527110D01*
X215750Y527114D01*
X215654Y527283D01*
X215556Y527457D01*
X215553Y527460D01*
X215551Y527464D01*
X215423Y527611D01*
X215293Y527761D01*
X215289Y527764D01*
X215287Y527768D01*
X215130Y527888D01*
X214975Y528008D01*
X214971Y528010D01*
X214967Y528013D01*
X214672Y528165D01*
X212894Y528901D01*
X212547Y529248D01*
X212526Y529265D01*
X212509Y529286D01*
X212371Y529393D01*
X212235Y529503D01*
X212212Y529516D01*
X212191Y529532D01*
X212034Y529610D01*
X211880Y529692D01*
X211854Y529700D01*
X211830Y529712D01*
X211661Y529757D01*
X211494Y529807D01*
X211467Y529809D01*
X211441Y529816D01*
X211110Y529843D01*
X30190Y529843D01*
X30163Y529841D01*
X30136Y529843D01*
X29962Y529821D01*
X29789Y529803D01*
X29763Y529796D01*
X29737Y529792D01*
X29571Y529737D01*
X29404Y529685D01*
X29380Y529672D01*
X29355Y529664D01*
X29203Y529577D01*
X29050Y529493D01*
X29029Y529476D01*
X29006Y529463D01*
X28753Y529248D01*
X28406Y528901D01*
X26456Y528093D01*
X24344Y528093D01*
X22394Y528901D01*
X20901Y530394D01*
X20093Y532344D01*
X20093Y534456D01*
X20901Y536406D01*
X22394Y537899D01*
X24344Y538707D01*
X26456Y538707D01*
X28406Y537899D01*
X28753Y537552D01*
X28774Y537535D01*
X28791Y537514D01*
X28929Y537407D01*
X29065Y537297D01*
X29088Y537284D01*
X29109Y537268D01*
X29266Y537190D01*
X29420Y537108D01*
X29446Y537100D01*
X29470Y537088D01*
X29639Y537043D01*
X29806Y536993D01*
X29833Y536991D01*
X29859Y536984D01*
X30190Y536957D01*
X170544Y536957D01*
X170552Y536958D01*
X170561Y536957D01*
X170753Y536978D01*
X170944Y536997D01*
X170953Y536999D01*
X170962Y537000D01*
X171144Y537058D01*
X171329Y537115D01*
X171337Y537119D01*
X171346Y537122D01*
X171514Y537215D01*
X171683Y537307D01*
X171690Y537312D01*
X171698Y537317D01*
X171845Y537441D01*
X171992Y537564D01*
X171998Y537571D01*
X172005Y537577D01*
X172124Y537728D01*
X172245Y537878D01*
X172249Y537886D01*
X172254Y537893D01*
X172342Y538066D01*
X172430Y538235D01*
X172433Y538244D01*
X172437Y538252D01*
X172489Y538438D01*
X172542Y538622D01*
X172542Y538631D01*
X172545Y538640D01*
X172559Y538833D01*
X172575Y539024D01*
X172574Y539032D01*
X172574Y539041D01*
X172550Y539234D01*
X172528Y539423D01*
X172525Y539432D01*
X172524Y539441D01*
X172462Y539624D01*
X172403Y539806D01*
X172398Y539814D01*
X172396Y539822D01*
X172302Y539985D01*
X172205Y540157D01*
X172199Y540164D01*
X172195Y540171D01*
X171980Y540424D01*
X169671Y542733D01*
X169671Y549467D01*
X174433Y554229D01*
X180057Y554229D01*
X180084Y554231D01*
X180111Y554229D01*
X180285Y554251D01*
X180458Y554269D01*
X180483Y554276D01*
X180510Y554280D01*
X180676Y554335D01*
X180843Y554387D01*
X180866Y554400D01*
X180892Y554408D01*
X181043Y554495D01*
X181197Y554579D01*
X181217Y554596D01*
X181241Y554609D01*
X181494Y554824D01*
X199048Y572378D01*
X199065Y572399D01*
X199086Y572417D01*
X199193Y572554D01*
X199303Y572690D01*
X199316Y572713D01*
X199332Y572735D01*
X199410Y572892D01*
X199492Y573046D01*
X199500Y573071D01*
X199512Y573095D01*
X199557Y573265D01*
X199607Y573431D01*
X199609Y573458D01*
X199616Y573484D01*
X199643Y573815D01*
X199643Y579105D01*
X199641Y579132D01*
X199643Y579158D01*
X199621Y579332D01*
X199603Y579506D01*
X199596Y579531D01*
X199592Y579558D01*
X199536Y579724D01*
X199485Y579891D01*
X199472Y579914D01*
X199464Y579940D01*
X199377Y580091D01*
X199293Y580245D01*
X199276Y580265D01*
X199263Y580288D01*
X199048Y580541D01*
X193293Y586297D01*
X193293Y594503D01*
X199097Y600307D01*
X207303Y600307D01*
X213107Y594503D01*
X213107Y586297D01*
X207352Y580541D01*
X207335Y580521D01*
X207314Y580503D01*
X207207Y580365D01*
X207097Y580230D01*
X207084Y580206D01*
X207068Y580185D01*
X206990Y580029D01*
X206908Y579874D01*
X206900Y579849D01*
X206888Y579825D01*
X206843Y579655D01*
X206793Y579488D01*
X206791Y579462D01*
X206784Y579436D01*
X206757Y579105D01*
X206757Y570027D01*
X186524Y549794D01*
X186507Y549773D01*
X186486Y549755D01*
X186379Y549618D01*
X186269Y549482D01*
X186256Y549459D01*
X186240Y549437D01*
X186162Y549280D01*
X186080Y549126D01*
X186072Y549101D01*
X186060Y549077D01*
X186015Y548907D01*
X185965Y548741D01*
X185963Y548714D01*
X185956Y548688D01*
X185929Y548357D01*
X185929Y542733D01*
X183620Y540424D01*
X183614Y540417D01*
X183608Y540412D01*
X183487Y540262D01*
X183365Y540113D01*
X183361Y540105D01*
X183355Y540098D01*
X183267Y539928D01*
X183176Y539757D01*
X183174Y539748D01*
X183170Y539741D01*
X183117Y539556D01*
X183062Y539371D01*
X183061Y539362D01*
X183058Y539354D01*
X183043Y539163D01*
X183025Y538970D01*
X183026Y538961D01*
X183025Y538952D01*
X183048Y538763D01*
X183069Y538570D01*
X183071Y538561D01*
X183072Y538553D01*
X183132Y538371D01*
X183190Y538186D01*
X183194Y538178D01*
X183197Y538170D01*
X183292Y538001D01*
X183385Y537834D01*
X183391Y537827D01*
X183395Y537819D01*
X183521Y537673D01*
X183645Y537527D01*
X183652Y537521D01*
X183658Y537514D01*
X183810Y537397D01*
X183961Y537277D01*
X183969Y537273D01*
X183976Y537268D01*
X184148Y537182D01*
X184320Y537095D01*
X184329Y537092D01*
X184337Y537088D01*
X184523Y537038D01*
X184708Y536987D01*
X184717Y536986D01*
X184726Y536984D01*
X185056Y536957D01*
X211110Y536957D01*
X211137Y536959D01*
X211164Y536957D01*
X211338Y536979D01*
X211511Y536997D01*
X211537Y537004D01*
X211563Y537008D01*
X211729Y537063D01*
X211896Y537115D01*
X211920Y537128D01*
X211945Y537136D01*
X212097Y537223D01*
X212250Y537307D01*
X212271Y537324D01*
X212294Y537337D01*
X212547Y537552D01*
X212894Y537899D01*
X214844Y538707D01*
X216956Y538707D01*
X218906Y537899D01*
X220399Y536406D01*
X221207Y534456D01*
X221207Y532344D01*
X220399Y530394D01*
X218906Y528901D01*
X217128Y528165D01*
X217124Y528162D01*
X217120Y528161D01*
X216948Y528068D01*
X216773Y527974D01*
X216769Y527972D01*
X216766Y527969D01*
X216615Y527844D01*
X216463Y527718D01*
X216460Y527715D01*
X216456Y527712D01*
X216333Y527559D01*
X216209Y527405D01*
X216207Y527401D01*
X216204Y527398D01*
X216114Y527225D01*
X216022Y527049D01*
X216020Y527045D01*
X216018Y527041D01*
X215964Y526853D01*
X215909Y526662D01*
X215908Y526658D01*
X215907Y526654D01*
X215899Y526554D01*
X215879Y526723D01*
G37*
%LPD*%
%LPC*%
G36*
X278344Y655093D02*
X278344Y655093D01*
X276394Y655901D01*
X274901Y657394D01*
X274093Y659344D01*
X274093Y661456D01*
X274901Y663406D01*
X276394Y664899D01*
X278344Y665707D01*
X278835Y665707D01*
X278862Y665709D01*
X278889Y665707D01*
X279063Y665729D01*
X279236Y665747D01*
X279262Y665754D01*
X279288Y665758D01*
X279454Y665813D01*
X279621Y665865D01*
X279645Y665878D01*
X279670Y665886D01*
X279821Y665973D01*
X279975Y666057D01*
X279995Y666074D01*
X280019Y666087D01*
X280272Y666302D01*
X313348Y699378D01*
X316027Y702057D01*
X416785Y702057D01*
X416812Y702059D01*
X416839Y702057D01*
X417013Y702079D01*
X417186Y702097D01*
X417211Y702104D01*
X417238Y702108D01*
X417404Y702163D01*
X417571Y702215D01*
X417594Y702228D01*
X417620Y702236D01*
X417771Y702323D01*
X417925Y702407D01*
X417945Y702424D01*
X417969Y702437D01*
X418222Y702652D01*
X435776Y720206D01*
X435793Y720227D01*
X435814Y720244D01*
X435921Y720382D01*
X436031Y720518D01*
X436044Y720541D01*
X436060Y720563D01*
X436138Y720719D01*
X436220Y720873D01*
X436228Y720899D01*
X436240Y720923D01*
X436285Y721092D01*
X436335Y721259D01*
X436337Y721286D01*
X436344Y721312D01*
X436371Y721643D01*
X436371Y727267D01*
X441133Y732029D01*
X447867Y732029D01*
X452629Y727267D01*
X452629Y720533D01*
X447867Y715771D01*
X442243Y715771D01*
X442216Y715769D01*
X442189Y715771D01*
X442015Y715749D01*
X441842Y715731D01*
X441816Y715724D01*
X441790Y715720D01*
X441624Y715664D01*
X441457Y715613D01*
X441433Y715600D01*
X441408Y715592D01*
X441257Y715505D01*
X441103Y715421D01*
X441083Y715404D01*
X441059Y715391D01*
X440806Y715176D01*
X420573Y694943D01*
X376993Y694943D01*
X376984Y694942D01*
X376975Y694943D01*
X376784Y694922D01*
X376593Y694903D01*
X376584Y694901D01*
X376575Y694900D01*
X376393Y694842D01*
X376208Y694785D01*
X376200Y694781D01*
X376191Y694778D01*
X376023Y694685D01*
X375854Y694593D01*
X375847Y694588D01*
X375839Y694583D01*
X375692Y694459D01*
X375544Y694336D01*
X375539Y694329D01*
X375532Y694323D01*
X375413Y694172D01*
X375292Y694022D01*
X375288Y694014D01*
X375282Y694007D01*
X375195Y693834D01*
X375107Y693665D01*
X375104Y693656D01*
X375100Y693648D01*
X375048Y693462D01*
X374995Y693278D01*
X374994Y693269D01*
X374992Y693260D01*
X374978Y693067D01*
X374962Y692876D01*
X374963Y692868D01*
X374963Y692859D01*
X374987Y692666D01*
X375009Y692477D01*
X375012Y692468D01*
X375013Y692459D01*
X375074Y692276D01*
X375134Y692094D01*
X375138Y692086D01*
X375141Y692078D01*
X375237Y691912D01*
X375332Y691743D01*
X375338Y691736D01*
X375342Y691729D01*
X375557Y691476D01*
X377445Y689588D01*
X377445Y687831D01*
X368300Y687831D01*
X359155Y687831D01*
X359155Y689588D01*
X361043Y691476D01*
X361049Y691483D01*
X361056Y691488D01*
X361176Y691638D01*
X361298Y691787D01*
X361302Y691795D01*
X361308Y691802D01*
X361396Y691972D01*
X361487Y692143D01*
X361489Y692152D01*
X361493Y692159D01*
X361547Y692344D01*
X361602Y692529D01*
X361602Y692538D01*
X361605Y692546D01*
X361621Y692737D01*
X361638Y692930D01*
X361637Y692939D01*
X361638Y692948D01*
X361616Y693137D01*
X361595Y693330D01*
X361592Y693339D01*
X361591Y693347D01*
X361531Y693529D01*
X361473Y693714D01*
X361469Y693722D01*
X361466Y693730D01*
X361371Y693899D01*
X361278Y694066D01*
X361273Y694073D01*
X361268Y694081D01*
X361142Y694227D01*
X361018Y694373D01*
X361011Y694379D01*
X361005Y694386D01*
X360854Y694503D01*
X360702Y694623D01*
X360694Y694627D01*
X360687Y694632D01*
X360515Y694718D01*
X360343Y694805D01*
X360334Y694808D01*
X360326Y694812D01*
X360140Y694862D01*
X359955Y694913D01*
X359946Y694914D01*
X359938Y694916D01*
X359607Y694943D01*
X319815Y694943D01*
X319788Y694941D01*
X319761Y694943D01*
X319587Y694921D01*
X319414Y694903D01*
X319388Y694896D01*
X319362Y694892D01*
X319196Y694837D01*
X319029Y694785D01*
X319005Y694772D01*
X318980Y694764D01*
X318829Y694677D01*
X318675Y694593D01*
X318655Y694576D01*
X318631Y694563D01*
X318378Y694348D01*
X285302Y661272D01*
X285285Y661251D01*
X285264Y661234D01*
X285157Y661096D01*
X285047Y660960D01*
X285034Y660937D01*
X285018Y660915D01*
X284940Y660758D01*
X284858Y660604D01*
X284850Y660579D01*
X284838Y660555D01*
X284793Y660385D01*
X284743Y660219D01*
X284741Y660192D01*
X284734Y660166D01*
X284707Y659835D01*
X284707Y659344D01*
X283899Y657394D01*
X282406Y655901D01*
X280456Y655093D01*
X278344Y655093D01*
G37*
%LPD*%
%LPC*%
G36*
X98233Y487171D02*
X98233Y487171D01*
X93471Y491933D01*
X93471Y498667D01*
X98233Y503429D01*
X103857Y503429D01*
X103884Y503431D01*
X103911Y503429D01*
X104085Y503451D01*
X104258Y503469D01*
X104284Y503476D01*
X104310Y503480D01*
X104476Y503536D01*
X104643Y503587D01*
X104667Y503600D01*
X104692Y503608D01*
X104843Y503695D01*
X104997Y503779D01*
X105017Y503796D01*
X105041Y503809D01*
X105294Y504024D01*
X122848Y521578D01*
X125527Y524257D01*
X213895Y524257D01*
X213899Y524257D01*
X213904Y524257D01*
X214098Y524277D01*
X214296Y524297D01*
X214300Y524298D01*
X214304Y524298D01*
X214492Y524357D01*
X214680Y524415D01*
X214684Y524417D01*
X214689Y524418D01*
X214863Y524514D01*
X215034Y524607D01*
X215038Y524609D01*
X215042Y524612D01*
X215195Y524740D01*
X215344Y524864D01*
X215346Y524868D01*
X215350Y524871D01*
X215473Y525026D01*
X215596Y525178D01*
X215598Y525182D01*
X215601Y525186D01*
X215693Y525364D01*
X215782Y525535D01*
X215783Y525540D01*
X215785Y525544D01*
X215838Y525733D01*
X215893Y525922D01*
X215893Y525927D01*
X215895Y525931D01*
X215901Y526019D01*
X215919Y525861D01*
X215921Y525857D01*
X215921Y525853D01*
X215983Y525663D01*
X216042Y525478D01*
X216045Y525474D01*
X216046Y525470D01*
X216143Y525298D01*
X216239Y525126D01*
X216242Y525123D01*
X216244Y525119D01*
X216372Y524971D01*
X216501Y524821D01*
X216504Y524818D01*
X216507Y524814D01*
X216662Y524694D01*
X216818Y524572D01*
X216822Y524570D01*
X216825Y524568D01*
X217001Y524480D01*
X217177Y524392D01*
X217182Y524390D01*
X217186Y524388D01*
X217377Y524337D01*
X217566Y524285D01*
X217570Y524285D01*
X217574Y524284D01*
X217905Y524257D01*
X226285Y524257D01*
X226312Y524259D01*
X226339Y524257D01*
X226513Y524279D01*
X226686Y524297D01*
X226711Y524304D01*
X226738Y524308D01*
X226904Y524363D01*
X227071Y524415D01*
X227094Y524428D01*
X227120Y524436D01*
X227271Y524523D01*
X227425Y524607D01*
X227445Y524624D01*
X227469Y524637D01*
X227722Y524852D01*
X245276Y542406D01*
X245293Y542427D01*
X245314Y542445D01*
X245421Y542582D01*
X245531Y542718D01*
X245544Y542741D01*
X245560Y542763D01*
X245638Y542920D01*
X245720Y543074D01*
X245728Y543099D01*
X245740Y543123D01*
X245785Y543293D01*
X245835Y543459D01*
X245837Y543486D01*
X245844Y543512D01*
X245871Y543843D01*
X245871Y549467D01*
X250633Y554229D01*
X257367Y554229D01*
X262129Y549467D01*
X262129Y542733D01*
X257367Y537971D01*
X251743Y537971D01*
X251716Y537969D01*
X251689Y537971D01*
X251515Y537949D01*
X251342Y537931D01*
X251317Y537924D01*
X251290Y537920D01*
X251124Y537865D01*
X250957Y537813D01*
X250934Y537800D01*
X250908Y537792D01*
X250757Y537705D01*
X250603Y537621D01*
X250583Y537604D01*
X250559Y537591D01*
X250306Y537376D01*
X230073Y517143D01*
X129315Y517143D01*
X129288Y517141D01*
X129261Y517143D01*
X129087Y517121D01*
X128914Y517103D01*
X128889Y517096D01*
X128862Y517092D01*
X128696Y517037D01*
X128529Y516985D01*
X128506Y516972D01*
X128480Y516964D01*
X128329Y516877D01*
X128175Y516793D01*
X128155Y516776D01*
X128131Y516763D01*
X127878Y516548D01*
X110324Y498994D01*
X110307Y498973D01*
X110286Y498956D01*
X110179Y498818D01*
X110069Y498682D01*
X110056Y498659D01*
X110040Y498637D01*
X109962Y498481D01*
X109880Y498327D01*
X109872Y498301D01*
X109860Y498277D01*
X109815Y498108D01*
X109765Y497941D01*
X109763Y497914D01*
X109756Y497888D01*
X109729Y497557D01*
X109729Y491933D01*
X104967Y487171D01*
X98233Y487171D01*
G37*
%LPD*%
%LPC*%
G36*
X168083Y906271D02*
X168083Y906271D01*
X164106Y910248D01*
X164085Y910265D01*
X164068Y910286D01*
X163930Y910393D01*
X163794Y910503D01*
X163771Y910516D01*
X163750Y910532D01*
X163593Y910610D01*
X163439Y910692D01*
X163413Y910700D01*
X163389Y910712D01*
X163220Y910757D01*
X163053Y910807D01*
X163026Y910809D01*
X163000Y910816D01*
X162670Y910843D01*
X100127Y910843D01*
X59943Y951027D01*
X59943Y957856D01*
X59941Y957883D01*
X59943Y957910D01*
X59921Y958084D01*
X59903Y958257D01*
X59896Y958283D01*
X59892Y958309D01*
X59837Y958475D01*
X59785Y958642D01*
X59772Y958666D01*
X59764Y958691D01*
X59677Y958843D01*
X59593Y958996D01*
X59576Y959016D01*
X59563Y959040D01*
X59348Y959293D01*
X57470Y961171D01*
X56387Y963785D01*
X56387Y966615D01*
X57470Y969229D01*
X59471Y971230D01*
X62085Y972313D01*
X64915Y972313D01*
X67529Y971230D01*
X69530Y969229D01*
X70613Y966615D01*
X70613Y963785D01*
X69530Y961171D01*
X67652Y959293D01*
X67635Y959272D01*
X67614Y959255D01*
X67507Y959117D01*
X67397Y958981D01*
X67384Y958958D01*
X67368Y958936D01*
X67290Y958780D01*
X67208Y958626D01*
X67200Y958600D01*
X67188Y958576D01*
X67143Y958407D01*
X67093Y958240D01*
X67091Y958213D01*
X67084Y958187D01*
X67057Y957856D01*
X67057Y954815D01*
X67059Y954788D01*
X67057Y954761D01*
X67079Y954587D01*
X67097Y954414D01*
X67104Y954389D01*
X67108Y954362D01*
X67163Y954196D01*
X67215Y954029D01*
X67228Y954006D01*
X67236Y953980D01*
X67323Y953829D01*
X67407Y953675D01*
X67424Y953655D01*
X67437Y953631D01*
X67652Y953378D01*
X102478Y918552D01*
X102499Y918535D01*
X102517Y918514D01*
X102654Y918407D01*
X102790Y918297D01*
X102813Y918284D01*
X102835Y918268D01*
X102992Y918190D01*
X103146Y918108D01*
X103171Y918100D01*
X103195Y918088D01*
X103365Y918043D01*
X103531Y917993D01*
X103558Y917991D01*
X103584Y917984D01*
X103915Y917957D01*
X162670Y917957D01*
X162696Y917959D01*
X162723Y917957D01*
X162897Y917979D01*
X163070Y917997D01*
X163096Y918004D01*
X163122Y918008D01*
X163288Y918064D01*
X163455Y918115D01*
X163479Y918128D01*
X163504Y918136D01*
X163656Y918223D01*
X163809Y918307D01*
X163830Y918324D01*
X163853Y918337D01*
X164106Y918552D01*
X168083Y922529D01*
X174817Y922529D01*
X179579Y917767D01*
X179579Y911033D01*
X174817Y906271D01*
X168083Y906271D01*
G37*
%LPD*%
%LPC*%
G36*
X23783Y410971D02*
X23783Y410971D01*
X20795Y412209D01*
X18509Y414495D01*
X17271Y417483D01*
X17271Y420717D01*
X18509Y423705D01*
X20795Y425991D01*
X22567Y426725D01*
X23783Y427229D01*
X27017Y427229D01*
X30005Y425991D01*
X32345Y423651D01*
X32396Y423556D01*
X32410Y423539D01*
X32421Y423519D01*
X32538Y423384D01*
X32652Y423245D01*
X32670Y423231D01*
X32684Y423214D01*
X32826Y423105D01*
X32965Y422992D01*
X32985Y422981D01*
X33002Y422968D01*
X33163Y422888D01*
X33322Y422805D01*
X33343Y422798D01*
X33363Y422788D01*
X33537Y422742D01*
X33708Y422692D01*
X33730Y422690D01*
X33752Y422684D01*
X34082Y422657D01*
X35785Y422657D01*
X35812Y422659D01*
X35839Y422657D01*
X36013Y422679D01*
X36186Y422697D01*
X36211Y422704D01*
X36238Y422708D01*
X36404Y422763D01*
X36571Y422815D01*
X36594Y422828D01*
X36620Y422836D01*
X36771Y422923D01*
X36925Y423007D01*
X36945Y423024D01*
X36969Y423037D01*
X37222Y423252D01*
X46648Y432678D01*
X46665Y432699D01*
X46686Y432717D01*
X46793Y432854D01*
X46903Y432990D01*
X46916Y433013D01*
X46932Y433035D01*
X47010Y433192D01*
X47092Y433346D01*
X47100Y433371D01*
X47112Y433395D01*
X47157Y433565D01*
X47207Y433731D01*
X47209Y433758D01*
X47216Y433784D01*
X47243Y434115D01*
X47243Y454885D01*
X47241Y454912D01*
X47243Y454939D01*
X47221Y455113D01*
X47203Y455286D01*
X47196Y455311D01*
X47192Y455338D01*
X47137Y455504D01*
X47085Y455671D01*
X47072Y455694D01*
X47064Y455720D01*
X46977Y455871D01*
X46893Y456025D01*
X46876Y456045D01*
X46863Y456069D01*
X46648Y456322D01*
X37222Y465748D01*
X37201Y465765D01*
X37183Y465786D01*
X37046Y465893D01*
X36910Y466003D01*
X36887Y466016D01*
X36865Y466032D01*
X36708Y466110D01*
X36554Y466192D01*
X36529Y466200D01*
X36505Y466212D01*
X36335Y466257D01*
X36169Y466307D01*
X36142Y466309D01*
X36116Y466316D01*
X35785Y466343D01*
X34180Y466343D01*
X34154Y466341D01*
X34127Y466343D01*
X33953Y466321D01*
X33780Y466303D01*
X33754Y466296D01*
X33728Y466292D01*
X33562Y466237D01*
X33395Y466185D01*
X33371Y466172D01*
X33346Y466164D01*
X33194Y466077D01*
X33041Y465993D01*
X33020Y465976D01*
X32997Y465963D01*
X32744Y465748D01*
X28767Y461771D01*
X22033Y461771D01*
X17271Y466533D01*
X17271Y473267D01*
X21248Y477244D01*
X21265Y477265D01*
X21286Y477282D01*
X21393Y477420D01*
X21503Y477556D01*
X21516Y477579D01*
X21532Y477600D01*
X21610Y477757D01*
X21692Y477911D01*
X21700Y477937D01*
X21712Y477961D01*
X21757Y478130D01*
X21807Y478297D01*
X21809Y478324D01*
X21816Y478350D01*
X21843Y478680D01*
X21843Y486520D01*
X21841Y486546D01*
X21843Y486573D01*
X21821Y486747D01*
X21803Y486920D01*
X21796Y486946D01*
X21792Y486972D01*
X21737Y487138D01*
X21685Y487305D01*
X21672Y487329D01*
X21664Y487354D01*
X21577Y487506D01*
X21493Y487659D01*
X21476Y487680D01*
X21463Y487703D01*
X21248Y487956D01*
X17271Y491933D01*
X17271Y498667D01*
X22033Y503429D01*
X28767Y503429D01*
X33529Y498667D01*
X33529Y491933D01*
X29552Y487956D01*
X29535Y487935D01*
X29514Y487918D01*
X29407Y487780D01*
X29297Y487644D01*
X29284Y487621D01*
X29268Y487600D01*
X29190Y487443D01*
X29108Y487289D01*
X29100Y487263D01*
X29088Y487239D01*
X29043Y487069D01*
X28993Y486903D01*
X28991Y486876D01*
X28984Y486850D01*
X28957Y486520D01*
X28957Y478680D01*
X28959Y478654D01*
X28957Y478627D01*
X28979Y478453D01*
X28997Y478280D01*
X29004Y478254D01*
X29008Y478228D01*
X29063Y478062D01*
X29115Y477895D01*
X29128Y477871D01*
X29136Y477846D01*
X29223Y477694D01*
X29307Y477541D01*
X29324Y477520D01*
X29337Y477497D01*
X29552Y477244D01*
X32744Y474052D01*
X32765Y474035D01*
X32782Y474014D01*
X32920Y473907D01*
X33056Y473797D01*
X33079Y473784D01*
X33100Y473768D01*
X33257Y473690D01*
X33411Y473608D01*
X33437Y473600D01*
X33461Y473588D01*
X33630Y473543D01*
X33797Y473493D01*
X33824Y473491D01*
X33850Y473484D01*
X34180Y473457D01*
X39573Y473457D01*
X54357Y458673D01*
X54357Y430327D01*
X39573Y415543D01*
X34082Y415543D01*
X34060Y415541D01*
X34038Y415543D01*
X33861Y415521D01*
X33682Y415503D01*
X33661Y415497D01*
X33638Y415494D01*
X33469Y415438D01*
X33297Y415385D01*
X33277Y415375D01*
X33256Y415368D01*
X33101Y415279D01*
X32943Y415193D01*
X32926Y415179D01*
X32906Y415168D01*
X32771Y415050D01*
X32634Y414936D01*
X32620Y414918D01*
X32603Y414904D01*
X32494Y414762D01*
X32381Y414622D01*
X32371Y414602D01*
X32357Y414584D01*
X32333Y414538D01*
X30005Y412209D01*
X27017Y410971D01*
X23783Y410971D01*
G37*
%LPD*%
%LPC*%
G36*
X344295Y249839D02*
X344295Y249839D01*
X344295Y282912D01*
X345188Y283805D01*
X377612Y283805D01*
X378505Y282912D01*
X378505Y250488D01*
X377612Y249595D01*
X344539Y249595D01*
X344530Y249594D01*
X344521Y249595D01*
X344327Y249574D01*
X344273Y249569D01*
X344295Y249839D01*
G37*
%LPD*%
%LPC*%
G36*
X141988Y643295D02*
X141988Y643295D01*
X141095Y644188D01*
X141095Y676612D01*
X141988Y677505D01*
X174412Y677505D01*
X175305Y676612D01*
X175305Y644188D01*
X174412Y643295D01*
X141988Y643295D01*
G37*
%LPD*%
%LPC*%
G36*
X231988Y643295D02*
X231988Y643295D01*
X231095Y644188D01*
X231095Y676612D01*
X231988Y677505D01*
X264412Y677505D01*
X265305Y676612D01*
X265305Y644188D01*
X264412Y643295D01*
X231988Y643295D01*
G37*
%LPD*%
%LPC*%
G36*
X276033Y830071D02*
X276033Y830071D01*
X271271Y834833D01*
X271271Y840457D01*
X271269Y840484D01*
X271271Y840511D01*
X271249Y840685D01*
X271231Y840858D01*
X271224Y840883D01*
X271220Y840910D01*
X271165Y841076D01*
X271113Y841243D01*
X271100Y841266D01*
X271092Y841292D01*
X271005Y841443D01*
X270921Y841597D01*
X270904Y841617D01*
X270891Y841641D01*
X270676Y841894D01*
X237743Y874827D01*
X237743Y883905D01*
X237741Y883932D01*
X237743Y883958D01*
X237721Y884132D01*
X237703Y884306D01*
X237696Y884331D01*
X237692Y884358D01*
X237637Y884524D01*
X237585Y884691D01*
X237572Y884714D01*
X237564Y884740D01*
X237477Y884891D01*
X237393Y885045D01*
X237376Y885065D01*
X237363Y885088D01*
X237148Y885341D01*
X231393Y891097D01*
X231393Y899303D01*
X237197Y905107D01*
X245403Y905107D01*
X251207Y899303D01*
X251207Y891097D01*
X245452Y885341D01*
X245435Y885321D01*
X245414Y885303D01*
X245307Y885165D01*
X245197Y885030D01*
X245184Y885006D01*
X245168Y884985D01*
X245090Y884828D01*
X245008Y884674D01*
X245000Y884649D01*
X244988Y884625D01*
X244943Y884455D01*
X244893Y884288D01*
X244891Y884262D01*
X244884Y884236D01*
X244857Y883905D01*
X244857Y878615D01*
X244859Y878588D01*
X244857Y878561D01*
X244879Y878387D01*
X244897Y878214D01*
X244904Y878189D01*
X244908Y878162D01*
X244963Y877996D01*
X245015Y877829D01*
X245028Y877806D01*
X245036Y877780D01*
X245123Y877629D01*
X245207Y877475D01*
X245224Y877455D01*
X245237Y877431D01*
X245452Y877178D01*
X275706Y846924D01*
X275727Y846907D01*
X275745Y846886D01*
X275882Y846779D01*
X276018Y846669D01*
X276041Y846656D01*
X276063Y846640D01*
X276220Y846562D01*
X276374Y846480D01*
X276399Y846472D01*
X276423Y846460D01*
X276593Y846415D01*
X276759Y846365D01*
X276786Y846363D01*
X276812Y846356D01*
X277143Y846329D01*
X282767Y846329D01*
X287529Y841567D01*
X287529Y834833D01*
X282767Y830071D01*
X276033Y830071D01*
G37*
%LPD*%
%LPC*%
G36*
X430183Y747267D02*
X430183Y747267D01*
X427195Y748505D01*
X424909Y750791D01*
X423671Y753779D01*
X423671Y770221D01*
X424909Y773209D01*
X427195Y775495D01*
X428655Y776100D01*
X428656Y776100D01*
X430183Y776733D01*
X433417Y776733D01*
X436405Y775495D01*
X436899Y775001D01*
X436912Y774990D01*
X436924Y774976D01*
X437067Y774863D01*
X437210Y774746D01*
X437226Y774738D01*
X437240Y774727D01*
X437404Y774644D01*
X437566Y774557D01*
X437583Y774552D01*
X437599Y774544D01*
X437776Y774495D01*
X437952Y774443D01*
X437970Y774441D01*
X437987Y774436D01*
X438169Y774423D01*
X438353Y774406D01*
X438370Y774408D01*
X438388Y774407D01*
X438570Y774430D01*
X438753Y774450D01*
X438770Y774455D01*
X438788Y774457D01*
X438962Y774516D01*
X439137Y774571D01*
X439152Y774580D01*
X439169Y774586D01*
X439329Y774678D01*
X439489Y774766D01*
X439503Y774778D01*
X439518Y774787D01*
X439771Y775001D01*
X440348Y775578D01*
X440365Y775599D01*
X440386Y775617D01*
X440493Y775755D01*
X440603Y775890D01*
X440616Y775913D01*
X440632Y775935D01*
X440710Y776091D01*
X440792Y776246D01*
X440800Y776271D01*
X440812Y776295D01*
X440857Y776465D01*
X440907Y776632D01*
X440909Y776658D01*
X440916Y776684D01*
X440943Y777015D01*
X440943Y791320D01*
X440941Y791346D01*
X440943Y791373D01*
X440921Y791547D01*
X440903Y791720D01*
X440896Y791746D01*
X440892Y791772D01*
X440836Y791938D01*
X440785Y792105D01*
X440772Y792129D01*
X440764Y792154D01*
X440677Y792306D01*
X440593Y792459D01*
X440576Y792480D01*
X440563Y792503D01*
X440348Y792756D01*
X436371Y796733D01*
X436371Y803467D01*
X441133Y808229D01*
X447867Y808229D01*
X452629Y803467D01*
X452629Y796733D01*
X448652Y792756D01*
X448635Y792735D01*
X448614Y792718D01*
X448507Y792580D01*
X448397Y792444D01*
X448384Y792421D01*
X448368Y792400D01*
X448290Y792243D01*
X448208Y792089D01*
X448200Y792063D01*
X448188Y792039D01*
X448143Y791870D01*
X448093Y791703D01*
X448091Y791676D01*
X448084Y791650D01*
X448057Y791320D01*
X448057Y773227D01*
X440524Y765694D01*
X440507Y765673D01*
X440486Y765655D01*
X440379Y765518D01*
X440269Y765382D01*
X440256Y765359D01*
X440240Y765337D01*
X440162Y765180D01*
X440080Y765026D01*
X440072Y765001D01*
X440060Y764977D01*
X440015Y764807D01*
X439965Y764641D01*
X439963Y764614D01*
X439956Y764588D01*
X439929Y764257D01*
X439929Y753779D01*
X438691Y750791D01*
X436405Y748505D01*
X433417Y747267D01*
X430183Y747267D01*
G37*
%LPD*%
%LPC*%
G36*
X404456Y599025D02*
X404456Y599025D01*
X400863Y600513D01*
X398113Y603263D01*
X396625Y606856D01*
X396625Y610744D01*
X398113Y614337D01*
X400863Y617087D01*
X401589Y617387D01*
X401609Y617398D01*
X401630Y617405D01*
X401786Y617493D01*
X401944Y617578D01*
X401961Y617592D01*
X401981Y617603D01*
X402116Y617720D01*
X402255Y617834D01*
X402269Y617851D01*
X402286Y617866D01*
X402395Y618007D01*
X402508Y618147D01*
X402519Y618166D01*
X402532Y618184D01*
X402612Y618345D01*
X402695Y618503D01*
X402702Y618525D01*
X402712Y618545D01*
X402758Y618718D01*
X402808Y618890D01*
X402810Y618912D01*
X402816Y618933D01*
X402843Y619264D01*
X402843Y623773D01*
X417627Y638557D01*
X423020Y638557D01*
X423046Y638559D01*
X423073Y638557D01*
X423247Y638579D01*
X423420Y638597D01*
X423446Y638604D01*
X423472Y638608D01*
X423638Y638664D01*
X423805Y638715D01*
X423829Y638728D01*
X423854Y638736D01*
X424006Y638823D01*
X424159Y638907D01*
X424180Y638924D01*
X424203Y638937D01*
X424456Y639152D01*
X428433Y643129D01*
X435167Y643129D01*
X439929Y638367D01*
X439929Y631633D01*
X435167Y626871D01*
X428433Y626871D01*
X424456Y630848D01*
X424435Y630865D01*
X424418Y630886D01*
X424280Y630993D01*
X424144Y631103D01*
X424121Y631116D01*
X424100Y631132D01*
X423943Y631210D01*
X423789Y631292D01*
X423763Y631300D01*
X423739Y631312D01*
X423570Y631357D01*
X423403Y631407D01*
X423376Y631409D01*
X423350Y631416D01*
X423020Y631443D01*
X421415Y631443D01*
X421388Y631441D01*
X421361Y631443D01*
X421187Y631421D01*
X421014Y631403D01*
X420989Y631396D01*
X420962Y631392D01*
X420796Y631337D01*
X420629Y631285D01*
X420606Y631272D01*
X420580Y631264D01*
X420429Y631177D01*
X420275Y631093D01*
X420255Y631076D01*
X420231Y631063D01*
X419978Y630848D01*
X410552Y621422D01*
X410535Y621401D01*
X410514Y621383D01*
X410407Y621246D01*
X410297Y621110D01*
X410284Y621087D01*
X410268Y621065D01*
X410190Y620908D01*
X410108Y620754D01*
X410100Y620729D01*
X410088Y620705D01*
X410043Y620535D01*
X409993Y620369D01*
X409991Y620342D01*
X409984Y620316D01*
X409957Y619985D01*
X409957Y619264D01*
X409959Y619242D01*
X409957Y619220D01*
X409979Y619042D01*
X409997Y618863D01*
X410003Y618842D01*
X410006Y618820D01*
X410062Y618650D01*
X410115Y618479D01*
X410125Y618459D01*
X410132Y618438D01*
X410221Y618282D01*
X410307Y618125D01*
X410321Y618107D01*
X410332Y618088D01*
X410449Y617953D01*
X410564Y617815D01*
X410582Y617801D01*
X410596Y617784D01*
X410738Y617675D01*
X410878Y617563D01*
X410898Y617553D01*
X410916Y617539D01*
X411211Y617387D01*
X411937Y617087D01*
X414687Y614337D01*
X416175Y610744D01*
X416175Y606856D01*
X414687Y603263D01*
X411937Y600513D01*
X408344Y599025D01*
X404456Y599025D01*
G37*
%LPD*%
%LPC*%
G36*
X276033Y855471D02*
X276033Y855471D01*
X271271Y860233D01*
X271271Y865857D01*
X271269Y865884D01*
X271271Y865911D01*
X271249Y866085D01*
X271231Y866258D01*
X271224Y866283D01*
X271220Y866310D01*
X271165Y866476D01*
X271113Y866643D01*
X271100Y866666D01*
X271092Y866692D01*
X271005Y866843D01*
X270921Y866997D01*
X270904Y867017D01*
X270891Y867041D01*
X270676Y867294D01*
X265822Y872148D01*
X265801Y872165D01*
X265783Y872186D01*
X265646Y872293D01*
X265510Y872403D01*
X265487Y872416D01*
X265465Y872432D01*
X265308Y872510D01*
X265154Y872592D01*
X265129Y872600D01*
X265105Y872612D01*
X264935Y872657D01*
X264903Y872667D01*
X262743Y874827D01*
X262743Y877829D01*
X262746Y877832D01*
X262769Y877875D01*
X262797Y877914D01*
X262863Y878053D01*
X262935Y878188D01*
X262948Y878234D01*
X262969Y878278D01*
X263006Y878427D01*
X263049Y878574D01*
X263054Y878622D01*
X263065Y878669D01*
X263080Y878911D01*
X263086Y878975D01*
X263084Y878986D01*
X263085Y879000D01*
X262986Y883705D01*
X262985Y883710D01*
X262986Y883716D01*
X262961Y883909D01*
X262937Y884105D01*
X262936Y884110D01*
X262935Y884115D01*
X262872Y884302D01*
X262811Y884487D01*
X262809Y884492D01*
X262807Y884497D01*
X262708Y884668D01*
X262612Y884837D01*
X262609Y884841D01*
X262606Y884846D01*
X262391Y885099D01*
X256393Y891097D01*
X256393Y899303D01*
X262197Y905107D01*
X270403Y905107D01*
X276207Y899303D01*
X276207Y891097D01*
X270687Y885577D01*
X270656Y885539D01*
X270621Y885507D01*
X270529Y885384D01*
X270432Y885265D01*
X270409Y885223D01*
X270381Y885184D01*
X270315Y885045D01*
X270243Y884910D01*
X270230Y884863D01*
X270209Y884820D01*
X270172Y884671D01*
X270129Y884524D01*
X270124Y884475D01*
X270113Y884429D01*
X270098Y884187D01*
X270092Y884123D01*
X270093Y884111D01*
X270093Y884098D01*
X270208Y878620D01*
X270209Y878615D01*
X270209Y878610D01*
X270234Y878413D01*
X270257Y878221D01*
X270258Y878216D01*
X270259Y878211D01*
X270321Y878027D01*
X270383Y877838D01*
X270386Y877834D01*
X270387Y877829D01*
X270485Y877660D01*
X270582Y877489D01*
X270586Y877485D01*
X270588Y877480D01*
X270803Y877227D01*
X275706Y872324D01*
X275727Y872307D01*
X275745Y872286D01*
X275882Y872180D01*
X276018Y872069D01*
X276042Y872056D01*
X276063Y872040D01*
X276219Y871962D01*
X276374Y871880D01*
X276399Y871872D01*
X276423Y871860D01*
X276592Y871815D01*
X276759Y871765D01*
X276786Y871763D01*
X276812Y871756D01*
X277143Y871729D01*
X282767Y871729D01*
X287529Y866967D01*
X287529Y860233D01*
X282767Y855471D01*
X276033Y855471D01*
G37*
%LPD*%
%LPC*%
G36*
X168083Y830071D02*
X168083Y830071D01*
X163321Y834833D01*
X163321Y841567D01*
X168083Y846329D01*
X174817Y846329D01*
X178794Y842352D01*
X178815Y842335D01*
X178832Y842314D01*
X178970Y842207D01*
X179106Y842097D01*
X179129Y842084D01*
X179150Y842068D01*
X179307Y841990D01*
X179461Y841908D01*
X179487Y841900D01*
X179511Y841888D01*
X179680Y841843D01*
X179847Y841793D01*
X179874Y841791D01*
X179900Y841784D01*
X180230Y841757D01*
X194420Y841757D01*
X194446Y841759D01*
X194473Y841757D01*
X194647Y841779D01*
X194820Y841797D01*
X194846Y841804D01*
X194872Y841808D01*
X195038Y841863D01*
X195205Y841915D01*
X195229Y841928D01*
X195254Y841936D01*
X195406Y842023D01*
X195559Y842107D01*
X195580Y842124D01*
X195603Y842137D01*
X195856Y842352D01*
X199833Y846329D01*
X206567Y846329D01*
X211329Y841567D01*
X211329Y834833D01*
X206567Y830071D01*
X199833Y830071D01*
X195856Y834048D01*
X195835Y834065D01*
X195818Y834086D01*
X195680Y834193D01*
X195544Y834303D01*
X195521Y834316D01*
X195500Y834332D01*
X195343Y834410D01*
X195189Y834492D01*
X195163Y834500D01*
X195139Y834512D01*
X194970Y834557D01*
X194803Y834607D01*
X194776Y834609D01*
X194750Y834616D01*
X194420Y834643D01*
X180230Y834643D01*
X180204Y834641D01*
X180177Y834643D01*
X180003Y834621D01*
X179830Y834603D01*
X179804Y834596D01*
X179778Y834592D01*
X179612Y834536D01*
X179445Y834485D01*
X179421Y834472D01*
X179396Y834464D01*
X179244Y834377D01*
X179091Y834293D01*
X179070Y834276D01*
X179047Y834263D01*
X178794Y834048D01*
X174817Y830071D01*
X168083Y830071D01*
G37*
%LPD*%
%LPC*%
G36*
X320761Y181355D02*
X320761Y181355D01*
X317400Y182747D01*
X314827Y185320D01*
X313435Y188681D01*
X313435Y192319D01*
X314827Y195680D01*
X317400Y198253D01*
X320761Y199645D01*
X339639Y199645D01*
X343000Y198253D01*
X345573Y195680D01*
X346965Y192319D01*
X346965Y188681D01*
X345573Y185320D01*
X343000Y182747D01*
X339639Y181355D01*
X320761Y181355D01*
G37*
%LPD*%
%LPC*%
G36*
X320761Y130555D02*
X320761Y130555D01*
X317400Y131947D01*
X314827Y134520D01*
X313435Y137881D01*
X313435Y141519D01*
X314827Y144880D01*
X317400Y147453D01*
X319793Y148444D01*
X320761Y148845D01*
X339639Y148845D01*
X343000Y147453D01*
X345573Y144880D01*
X346965Y141519D01*
X346965Y137881D01*
X345573Y134520D01*
X343000Y131947D01*
X339639Y130555D01*
X320761Y130555D01*
G37*
%LPD*%
%LPC*%
G36*
X99983Y410971D02*
X99983Y410971D01*
X96995Y412209D01*
X94709Y414495D01*
X93471Y417483D01*
X93471Y420717D01*
X94709Y423705D01*
X96995Y425991D01*
X98767Y426725D01*
X99983Y427229D01*
X103217Y427229D01*
X106205Y425991D01*
X108545Y423651D01*
X108596Y423556D01*
X108610Y423539D01*
X108621Y423519D01*
X108738Y423384D01*
X108852Y423245D01*
X108870Y423231D01*
X108884Y423214D01*
X109026Y423105D01*
X109165Y422992D01*
X109185Y422981D01*
X109202Y422968D01*
X109363Y422888D01*
X109522Y422805D01*
X109543Y422798D01*
X109563Y422788D01*
X109737Y422742D01*
X109908Y422692D01*
X109930Y422690D01*
X109952Y422684D01*
X110282Y422657D01*
X118220Y422657D01*
X118246Y422659D01*
X118273Y422657D01*
X118447Y422679D01*
X118620Y422697D01*
X118646Y422704D01*
X118672Y422708D01*
X118838Y422763D01*
X119005Y422815D01*
X119029Y422828D01*
X119054Y422836D01*
X119206Y422923D01*
X119359Y423007D01*
X119380Y423024D01*
X119403Y423037D01*
X119656Y423252D01*
X123633Y427229D01*
X130367Y427229D01*
X135129Y422467D01*
X135129Y415733D01*
X130367Y410971D01*
X123633Y410971D01*
X119656Y414948D01*
X119635Y414965D01*
X119618Y414986D01*
X119480Y415093D01*
X119344Y415203D01*
X119321Y415216D01*
X119300Y415232D01*
X119143Y415310D01*
X118989Y415392D01*
X118963Y415400D01*
X118939Y415412D01*
X118770Y415457D01*
X118603Y415507D01*
X118576Y415509D01*
X118550Y415516D01*
X118220Y415543D01*
X110282Y415543D01*
X110260Y415541D01*
X110238Y415543D01*
X110061Y415521D01*
X109882Y415503D01*
X109861Y415497D01*
X109838Y415494D01*
X109669Y415438D01*
X109497Y415385D01*
X109477Y415375D01*
X109456Y415368D01*
X109301Y415279D01*
X109143Y415193D01*
X109126Y415179D01*
X109106Y415168D01*
X108971Y415050D01*
X108834Y414936D01*
X108820Y414918D01*
X108803Y414904D01*
X108694Y414762D01*
X108581Y414622D01*
X108571Y414602D01*
X108557Y414584D01*
X108533Y414538D01*
X106205Y412209D01*
X103217Y410971D01*
X99983Y410971D01*
G37*
%LPD*%
%LPC*%
G36*
X379383Y747267D02*
X379383Y747267D01*
X376395Y748505D01*
X374109Y750791D01*
X372871Y753779D01*
X372871Y770221D01*
X374109Y773209D01*
X376395Y775495D01*
X377855Y776100D01*
X377856Y776100D01*
X379383Y776733D01*
X382617Y776733D01*
X385605Y775495D01*
X387891Y773209D01*
X389129Y770221D01*
X389129Y753779D01*
X387891Y750791D01*
X385605Y748505D01*
X382617Y747267D01*
X379383Y747267D01*
G37*
%LPD*%
%LPC*%
G36*
X239356Y16425D02*
X239356Y16425D01*
X235763Y17913D01*
X233013Y20663D01*
X231525Y24256D01*
X231525Y28144D01*
X233013Y31737D01*
X235763Y34487D01*
X239356Y35975D01*
X243244Y35975D01*
X246837Y34487D01*
X249587Y31737D01*
X251075Y28144D01*
X251075Y24256D01*
X249587Y20663D01*
X246837Y17913D01*
X243244Y16425D01*
X239356Y16425D01*
G37*
%LPD*%
%LPC*%
G36*
X239356Y306925D02*
X239356Y306925D01*
X235763Y308413D01*
X233013Y311163D01*
X231525Y314756D01*
X231525Y318644D01*
X233013Y322237D01*
X235763Y324987D01*
X239356Y326475D01*
X243244Y326475D01*
X246837Y324987D01*
X249587Y322237D01*
X251075Y318644D01*
X251075Y314756D01*
X249587Y311163D01*
X246837Y308413D01*
X243244Y306925D01*
X239356Y306925D01*
G37*
%LPD*%
%LPC*%
G36*
X74256Y306925D02*
X74256Y306925D01*
X70663Y308413D01*
X67913Y311163D01*
X66425Y314756D01*
X66425Y318644D01*
X67913Y322237D01*
X70663Y324987D01*
X74256Y326475D01*
X78144Y326475D01*
X81737Y324987D01*
X84487Y322237D01*
X85975Y318644D01*
X85975Y314756D01*
X84487Y311163D01*
X81737Y308413D01*
X78144Y306925D01*
X74256Y306925D01*
G37*
%LPD*%
%LPC*%
G36*
X74256Y16425D02*
X74256Y16425D01*
X70663Y17913D01*
X67913Y20663D01*
X66425Y24256D01*
X66425Y28144D01*
X67913Y31737D01*
X70663Y34487D01*
X74256Y35975D01*
X78144Y35975D01*
X81737Y34487D01*
X84487Y31737D01*
X85975Y28144D01*
X85975Y24256D01*
X84487Y20663D01*
X81737Y17913D01*
X78144Y16425D01*
X74256Y16425D01*
G37*
%LPD*%
%LPC*%
G36*
X404456Y16425D02*
X404456Y16425D01*
X400863Y17913D01*
X398113Y20663D01*
X396625Y24256D01*
X396625Y28144D01*
X398113Y31737D01*
X400863Y34487D01*
X404456Y35975D01*
X408344Y35975D01*
X411937Y34487D01*
X414687Y31737D01*
X416175Y28144D01*
X416175Y24256D01*
X414687Y20663D01*
X411937Y17913D01*
X408344Y16425D01*
X404456Y16425D01*
G37*
%LPD*%
%LPC*%
G36*
X199833Y855471D02*
X199833Y855471D01*
X195071Y860233D01*
X195071Y866967D01*
X199833Y871729D01*
X206567Y871729D01*
X211329Y866967D01*
X211329Y860233D01*
X206567Y855471D01*
X199833Y855471D01*
G37*
%LPD*%
%LPC*%
G36*
X390333Y855471D02*
X390333Y855471D01*
X385571Y860233D01*
X385571Y866967D01*
X390333Y871729D01*
X397067Y871729D01*
X401829Y866967D01*
X401829Y860233D01*
X397067Y855471D01*
X390333Y855471D01*
G37*
%LPD*%
%LPC*%
G36*
X301433Y220471D02*
X301433Y220471D01*
X296671Y225233D01*
X296671Y231967D01*
X301433Y236729D01*
X308167Y236729D01*
X312929Y231967D01*
X312929Y225233D01*
X308167Y220471D01*
X301433Y220471D01*
G37*
%LPD*%
%LPC*%
G36*
X364933Y715771D02*
X364933Y715771D01*
X360171Y720533D01*
X360171Y727267D01*
X364933Y732029D01*
X371667Y732029D01*
X376429Y727267D01*
X376429Y720533D01*
X371667Y715771D01*
X364933Y715771D01*
G37*
%LPD*%
%LPC*%
G36*
X99983Y385571D02*
X99983Y385571D01*
X96995Y386809D01*
X94709Y389095D01*
X93471Y392083D01*
X93471Y395317D01*
X94709Y398305D01*
X96995Y400591D01*
X99983Y401829D01*
X103217Y401829D01*
X106205Y400591D01*
X108491Y398305D01*
X109729Y395317D01*
X109729Y392083D01*
X108491Y389095D01*
X106205Y386809D01*
X103217Y385571D01*
X99983Y385571D01*
G37*
%LPD*%
%LPC*%
G36*
X23783Y360171D02*
X23783Y360171D01*
X20795Y361409D01*
X18509Y363695D01*
X17271Y366683D01*
X17271Y369917D01*
X18509Y372905D01*
X20795Y375191D01*
X23783Y376429D01*
X27017Y376429D01*
X30005Y375191D01*
X32291Y372905D01*
X33529Y369917D01*
X33529Y366683D01*
X32291Y363695D01*
X30005Y361409D01*
X27017Y360171D01*
X23783Y360171D01*
G37*
%LPD*%
%LPC*%
G36*
X99983Y360171D02*
X99983Y360171D01*
X96995Y361409D01*
X94709Y363695D01*
X93471Y366683D01*
X93471Y369917D01*
X94709Y372905D01*
X96995Y375191D01*
X99983Y376429D01*
X103217Y376429D01*
X106205Y375191D01*
X108491Y372905D01*
X109729Y369917D01*
X109729Y366683D01*
X108491Y363695D01*
X106205Y361409D01*
X103217Y360171D01*
X99983Y360171D01*
G37*
%LPD*%
%LPC*%
G36*
X23783Y436371D02*
X23783Y436371D01*
X20795Y437609D01*
X18509Y439895D01*
X17271Y442883D01*
X17271Y446117D01*
X18509Y449105D01*
X20795Y451391D01*
X23783Y452629D01*
X27017Y452629D01*
X30005Y451391D01*
X32291Y449105D01*
X33529Y446117D01*
X33529Y442883D01*
X32291Y439895D01*
X30005Y437609D01*
X27017Y436371D01*
X23783Y436371D01*
G37*
%LPD*%
%LPC*%
G36*
X36685Y958087D02*
X36685Y958087D01*
X34071Y959170D01*
X32070Y961171D01*
X30987Y963785D01*
X30987Y966615D01*
X32070Y969229D01*
X34071Y971230D01*
X36685Y972313D01*
X39515Y972313D01*
X42129Y971230D01*
X44130Y969229D01*
X45213Y966615D01*
X45213Y963785D01*
X44130Y961171D01*
X42129Y959170D01*
X40744Y958596D01*
X39515Y958087D01*
X36685Y958087D01*
G37*
%LPD*%
%LPC*%
G36*
X332739Y167639D02*
X332739Y167639D01*
X332739Y175261D01*
X338620Y175261D01*
X340199Y175011D01*
X341720Y174516D01*
X343145Y173790D01*
X344439Y172850D01*
X345570Y171719D01*
X346510Y170425D01*
X347236Y169000D01*
X347679Y167639D01*
X332739Y167639D01*
G37*
%LPD*%
%LPC*%
G36*
X312721Y167639D02*
X312721Y167639D01*
X313164Y169000D01*
X313890Y170425D01*
X314830Y171719D01*
X315961Y172850D01*
X317255Y173790D01*
X318680Y174516D01*
X320201Y175011D01*
X321780Y175261D01*
X327661Y175261D01*
X327661Y167639D01*
X312721Y167639D01*
G37*
%LPD*%
%LPC*%
G36*
X332739Y154939D02*
X332739Y154939D01*
X332739Y162561D01*
X347679Y162561D01*
X347236Y161200D01*
X346510Y159775D01*
X345570Y158481D01*
X344439Y157350D01*
X343145Y156410D01*
X341720Y155684D01*
X340199Y155189D01*
X338620Y154939D01*
X332739Y154939D01*
G37*
%LPD*%
%LPC*%
G36*
X321780Y154939D02*
X321780Y154939D01*
X320201Y155189D01*
X318680Y155684D01*
X317255Y156410D01*
X315961Y157350D01*
X314830Y158481D01*
X313890Y159775D01*
X313164Y161200D01*
X312721Y162561D01*
X327661Y162561D01*
X327661Y154939D01*
X321780Y154939D01*
G37*
%LPD*%
%LPC*%
G36*
X180949Y593149D02*
X180949Y593149D01*
X180949Y601323D01*
X186917Y601323D01*
X187563Y601150D01*
X188142Y600815D01*
X188615Y600342D01*
X188950Y599763D01*
X189123Y599117D01*
X189123Y593149D01*
X180949Y593149D01*
G37*
%LPD*%
%LPC*%
G36*
X219049Y897949D02*
X219049Y897949D01*
X219049Y906123D01*
X225017Y906123D01*
X225663Y905950D01*
X226242Y905615D01*
X226715Y905142D01*
X227050Y904563D01*
X227223Y903917D01*
X227223Y897949D01*
X219049Y897949D01*
G37*
%LPD*%
%LPC*%
G36*
X219049Y892451D02*
X219049Y892451D01*
X227223Y892451D01*
X227223Y886483D01*
X227050Y885837D01*
X226715Y885258D01*
X226242Y884785D01*
X225663Y884450D01*
X225017Y884277D01*
X219049Y884277D01*
X219049Y892451D01*
G37*
%LPD*%
%LPC*%
G36*
X205377Y897949D02*
X205377Y897949D01*
X205377Y903917D01*
X205550Y904563D01*
X205885Y905142D01*
X206358Y905615D01*
X206937Y905950D01*
X207583Y906123D01*
X213551Y906123D01*
X213551Y897949D01*
X205377Y897949D01*
G37*
%LPD*%
%LPC*%
G36*
X180949Y579477D02*
X180949Y579477D01*
X180949Y587651D01*
X189123Y587651D01*
X189123Y581683D01*
X188950Y581037D01*
X188615Y580458D01*
X188142Y579985D01*
X187563Y579650D01*
X186917Y579477D01*
X180949Y579477D01*
G37*
%LPD*%
%LPC*%
G36*
X167277Y593149D02*
X167277Y593149D01*
X167277Y599117D01*
X167450Y599763D01*
X167785Y600342D01*
X168258Y600815D01*
X168837Y601150D01*
X169483Y601323D01*
X175451Y601323D01*
X175451Y593149D01*
X167277Y593149D01*
G37*
%LPD*%
%LPC*%
G36*
X169483Y579477D02*
X169483Y579477D01*
X168837Y579650D01*
X168258Y579985D01*
X167785Y580458D01*
X167450Y581037D01*
X167277Y581683D01*
X167277Y587651D01*
X175451Y587651D01*
X175451Y579477D01*
X169483Y579477D01*
G37*
%LPD*%
%LPC*%
G36*
X207583Y884277D02*
X207583Y884277D01*
X206937Y884450D01*
X206358Y884785D01*
X205885Y885258D01*
X205550Y885837D01*
X205377Y886483D01*
X205377Y892451D01*
X213551Y892451D01*
X213551Y884277D01*
X207583Y884277D01*
G37*
%LPD*%
%LPC*%
G36*
X78949Y204449D02*
X78949Y204449D01*
X78949Y212153D01*
X80342Y211700D01*
X81856Y210929D01*
X83230Y209931D01*
X84431Y208730D01*
X85429Y207356D01*
X86200Y205842D01*
X86653Y204449D01*
X78949Y204449D01*
G37*
%LPD*%
%LPC*%
G36*
X244049Y204449D02*
X244049Y204449D01*
X244049Y212153D01*
X245442Y211700D01*
X246956Y210929D01*
X248330Y209931D01*
X249531Y208730D01*
X250529Y207356D01*
X251300Y205842D01*
X251753Y204449D01*
X244049Y204449D01*
G37*
%LPD*%
%LPC*%
G36*
X78949Y143949D02*
X78949Y143949D01*
X78949Y151653D01*
X80342Y151200D01*
X81856Y150429D01*
X83230Y149431D01*
X84431Y148230D01*
X85429Y146856D01*
X86200Y145342D01*
X86653Y143949D01*
X78949Y143949D01*
G37*
%LPD*%
%LPC*%
G36*
X409149Y143949D02*
X409149Y143949D01*
X409149Y151653D01*
X410542Y151200D01*
X412056Y150429D01*
X413430Y149431D01*
X414631Y148230D01*
X415629Y146856D01*
X416400Y145342D01*
X416853Y143949D01*
X409149Y143949D01*
G37*
%LPD*%
%LPC*%
G36*
X244049Y143949D02*
X244049Y143949D01*
X244049Y151653D01*
X245442Y151200D01*
X246956Y150429D01*
X248330Y149431D01*
X249531Y148230D01*
X250529Y146856D01*
X251300Y145342D01*
X251753Y143949D01*
X244049Y143949D01*
G37*
%LPD*%
%LPC*%
G36*
X78949Y728149D02*
X78949Y728149D01*
X78949Y735853D01*
X80342Y735400D01*
X81856Y734629D01*
X83230Y733631D01*
X84431Y732430D01*
X85429Y731056D01*
X86200Y729542D01*
X86653Y728149D01*
X78949Y728149D01*
G37*
%LPD*%
%LPC*%
G36*
X409149Y496549D02*
X409149Y496549D01*
X409149Y504253D01*
X410542Y503800D01*
X412056Y503029D01*
X413430Y502031D01*
X414631Y500830D01*
X415629Y499456D01*
X416400Y497942D01*
X416853Y496549D01*
X409149Y496549D01*
G37*
%LPD*%
%LPC*%
G36*
X409149Y491051D02*
X409149Y491051D01*
X416853Y491051D01*
X416400Y489658D01*
X415629Y488144D01*
X414631Y486770D01*
X413430Y485569D01*
X412056Y484571D01*
X410542Y483800D01*
X409149Y483347D01*
X409149Y491051D01*
G37*
%LPD*%
%LPC*%
G36*
X65747Y143949D02*
X65747Y143949D01*
X66200Y145342D01*
X66971Y146856D01*
X67969Y148230D01*
X69170Y149431D01*
X70544Y150429D01*
X72058Y151200D01*
X73451Y151653D01*
X73451Y143949D01*
X65747Y143949D01*
G37*
%LPD*%
%LPC*%
G36*
X65747Y728149D02*
X65747Y728149D01*
X66200Y729542D01*
X66971Y731056D01*
X67969Y732430D01*
X69170Y733631D01*
X70544Y734629D01*
X72058Y735400D01*
X73451Y735853D01*
X73451Y728149D01*
X65747Y728149D01*
G37*
%LPD*%
%LPC*%
G36*
X78949Y138451D02*
X78949Y138451D01*
X86653Y138451D01*
X86200Y137058D01*
X85429Y135544D01*
X84431Y134170D01*
X83230Y132969D01*
X81856Y131971D01*
X80342Y131200D01*
X78949Y130747D01*
X78949Y138451D01*
G37*
%LPD*%
%LPC*%
G36*
X244049Y138451D02*
X244049Y138451D01*
X251753Y138451D01*
X251300Y137058D01*
X250529Y135544D01*
X249531Y134170D01*
X248330Y132969D01*
X246956Y131971D01*
X245442Y131200D01*
X244049Y130747D01*
X244049Y138451D01*
G37*
%LPD*%
%LPC*%
G36*
X409149Y138451D02*
X409149Y138451D01*
X416853Y138451D01*
X416400Y137058D01*
X415629Y135544D01*
X414631Y134170D01*
X413430Y132969D01*
X412056Y131971D01*
X410542Y131200D01*
X409149Y130747D01*
X409149Y138451D01*
G37*
%LPD*%
%LPC*%
G36*
X230847Y204449D02*
X230847Y204449D01*
X231300Y205842D01*
X232071Y207356D01*
X233069Y208730D01*
X234270Y209931D01*
X235644Y210929D01*
X237158Y211700D01*
X238551Y212153D01*
X238551Y204449D01*
X230847Y204449D01*
G37*
%LPD*%
%LPC*%
G36*
X395947Y143949D02*
X395947Y143949D01*
X396400Y145342D01*
X397171Y146856D01*
X398169Y148230D01*
X399370Y149431D01*
X400744Y150429D01*
X402258Y151200D01*
X403651Y151653D01*
X403651Y143949D01*
X395947Y143949D01*
G37*
%LPD*%
%LPC*%
G36*
X65747Y204449D02*
X65747Y204449D01*
X66200Y205842D01*
X66971Y207356D01*
X67969Y208730D01*
X69170Y209931D01*
X70544Y210929D01*
X72058Y211700D01*
X73451Y212153D01*
X73451Y204449D01*
X65747Y204449D01*
G37*
%LPD*%
%LPC*%
G36*
X230847Y143949D02*
X230847Y143949D01*
X231300Y145342D01*
X232071Y146856D01*
X233069Y148230D01*
X234270Y149431D01*
X235644Y150429D01*
X237158Y151200D01*
X238551Y151653D01*
X238551Y143949D01*
X230847Y143949D01*
G37*
%LPD*%
%LPC*%
G36*
X395947Y496549D02*
X395947Y496549D01*
X396400Y497942D01*
X397171Y499456D01*
X398169Y500830D01*
X399370Y502031D01*
X400744Y503029D01*
X402258Y503800D01*
X403651Y504253D01*
X403651Y496549D01*
X395947Y496549D01*
G37*
%LPD*%
%LPC*%
G36*
X78949Y198951D02*
X78949Y198951D01*
X86653Y198951D01*
X86200Y197558D01*
X85429Y196044D01*
X84431Y194670D01*
X83230Y193469D01*
X81856Y192471D01*
X80342Y191700D01*
X78949Y191247D01*
X78949Y198951D01*
G37*
%LPD*%
%LPC*%
G36*
X78949Y722651D02*
X78949Y722651D01*
X86653Y722651D01*
X86200Y721258D01*
X85429Y719744D01*
X84431Y718370D01*
X83230Y717169D01*
X81856Y716171D01*
X80342Y715400D01*
X78949Y714947D01*
X78949Y722651D01*
G37*
%LPD*%
%LPC*%
G36*
X244049Y198951D02*
X244049Y198951D01*
X251753Y198951D01*
X251300Y197558D01*
X250529Y196044D01*
X249531Y194670D01*
X248330Y193469D01*
X246956Y192471D01*
X245442Y191700D01*
X244049Y191247D01*
X244049Y198951D01*
G37*
%LPD*%
%LPC*%
G36*
X237158Y191700D02*
X237158Y191700D01*
X235644Y192471D01*
X234270Y193469D01*
X233069Y194670D01*
X232071Y196044D01*
X231300Y197558D01*
X230847Y198951D01*
X238551Y198951D01*
X238551Y191247D01*
X237158Y191700D01*
G37*
%LPD*%
%LPC*%
G36*
X402258Y131200D02*
X402258Y131200D01*
X400744Y131971D01*
X399370Y132969D01*
X398169Y134170D01*
X397171Y135544D01*
X396400Y137058D01*
X395947Y138451D01*
X403651Y138451D01*
X403651Y130747D01*
X402258Y131200D01*
G37*
%LPD*%
%LPC*%
G36*
X72058Y191700D02*
X72058Y191700D01*
X70544Y192471D01*
X69170Y193469D01*
X67969Y194670D01*
X66971Y196044D01*
X66200Y197558D01*
X65747Y198951D01*
X73451Y198951D01*
X73451Y191247D01*
X72058Y191700D01*
G37*
%LPD*%
%LPC*%
G36*
X402258Y483800D02*
X402258Y483800D01*
X400744Y484571D01*
X399370Y485569D01*
X398169Y486770D01*
X397171Y488144D01*
X396400Y489658D01*
X395947Y491051D01*
X403651Y491051D01*
X403651Y483347D01*
X402258Y483800D01*
G37*
%LPD*%
%LPC*%
G36*
X72058Y131200D02*
X72058Y131200D01*
X70544Y131971D01*
X69170Y132969D01*
X67969Y134170D01*
X66971Y135544D01*
X66200Y137058D01*
X65747Y138451D01*
X73451Y138451D01*
X73451Y130747D01*
X72058Y131200D01*
G37*
%LPD*%
%LPC*%
G36*
X72058Y715400D02*
X72058Y715400D01*
X70544Y716171D01*
X69170Y717169D01*
X67969Y718370D01*
X66971Y719744D01*
X66200Y721258D01*
X65747Y722651D01*
X73451Y722651D01*
X73451Y714947D01*
X72058Y715400D01*
G37*
%LPD*%
%LPC*%
G36*
X237158Y131200D02*
X237158Y131200D01*
X235644Y131971D01*
X234270Y132969D01*
X233069Y134170D01*
X232071Y135544D01*
X231300Y137058D01*
X230847Y138451D01*
X238551Y138451D01*
X238551Y130747D01*
X237158Y131200D01*
G37*
%LPD*%
%LPC*%
G36*
X205231Y421131D02*
X205231Y421131D01*
X205231Y428245D01*
X206988Y428245D01*
X212345Y422888D01*
X212345Y421131D01*
X205231Y421131D01*
G37*
%LPD*%
%LPC*%
G36*
X421131Y865631D02*
X421131Y865631D01*
X421131Y872745D01*
X422888Y872745D01*
X428245Y867388D01*
X428245Y865631D01*
X421131Y865631D01*
G37*
%LPD*%
%LPC*%
G36*
X344931Y598931D02*
X344931Y598931D01*
X344931Y606045D01*
X346688Y606045D01*
X352045Y600688D01*
X352045Y598931D01*
X344931Y598931D01*
G37*
%LPD*%
%LPC*%
G36*
X409955Y865631D02*
X409955Y865631D01*
X409955Y867388D01*
X415312Y872745D01*
X417069Y872745D01*
X417069Y865631D01*
X409955Y865631D01*
G37*
%LPD*%
%LPC*%
G36*
X333755Y598931D02*
X333755Y598931D01*
X333755Y600688D01*
X339112Y606045D01*
X340869Y606045D01*
X340869Y598931D01*
X333755Y598931D01*
G37*
%LPD*%
%LPC*%
G36*
X194055Y421131D02*
X194055Y421131D01*
X194055Y422888D01*
X199412Y428245D01*
X201169Y428245D01*
X201169Y421131D01*
X194055Y421131D01*
G37*
%LPD*%
%LPC*%
G36*
X205231Y409955D02*
X205231Y409955D01*
X205231Y417069D01*
X212345Y417069D01*
X212345Y415312D01*
X206988Y409955D01*
X205231Y409955D01*
G37*
%LPD*%
%LPC*%
G36*
X344931Y587755D02*
X344931Y587755D01*
X344931Y594869D01*
X352045Y594869D01*
X352045Y593112D01*
X346688Y587755D01*
X344931Y587755D01*
G37*
%LPD*%
%LPC*%
G36*
X421131Y854455D02*
X421131Y854455D01*
X421131Y861569D01*
X428245Y861569D01*
X428245Y859812D01*
X422888Y854455D01*
X421131Y854455D01*
G37*
%LPD*%
%LPC*%
G36*
X339112Y587755D02*
X339112Y587755D01*
X333755Y593112D01*
X333755Y594869D01*
X340869Y594869D01*
X340869Y587755D01*
X339112Y587755D01*
G37*
%LPD*%
%LPC*%
G36*
X415312Y854455D02*
X415312Y854455D01*
X409955Y859812D01*
X409955Y861569D01*
X417069Y861569D01*
X417069Y854455D01*
X415312Y854455D01*
G37*
%LPD*%
%LPC*%
G36*
X199412Y409955D02*
X199412Y409955D01*
X194055Y415312D01*
X194055Y417069D01*
X201169Y417069D01*
X201169Y409955D01*
X199412Y409955D01*
G37*
%LPD*%
%LPC*%
G36*
X90931Y967231D02*
X90931Y967231D01*
X90931Y973084D01*
X91271Y973016D01*
X92750Y972404D01*
X94082Y971514D01*
X95214Y970382D01*
X96104Y969050D01*
X96716Y967571D01*
X96784Y967231D01*
X90931Y967231D01*
G37*
%LPD*%
%LPC*%
G36*
X81016Y967231D02*
X81016Y967231D01*
X81084Y967571D01*
X81696Y969050D01*
X82586Y970382D01*
X83718Y971514D01*
X85050Y972404D01*
X86529Y973016D01*
X86869Y973084D01*
X86869Y967231D01*
X81016Y967231D01*
G37*
%LPD*%
%LPC*%
G36*
X90931Y963169D02*
X90931Y963169D01*
X96784Y963169D01*
X96716Y962829D01*
X96104Y961350D01*
X95214Y960018D01*
X94082Y958886D01*
X92750Y957996D01*
X91271Y957384D01*
X90931Y957316D01*
X90931Y963169D01*
G37*
%LPD*%
%LPC*%
G36*
X86529Y957384D02*
X86529Y957384D01*
X85050Y957996D01*
X83718Y958886D01*
X82586Y960018D01*
X81696Y961350D01*
X81084Y962829D01*
X81016Y963169D01*
X86869Y963169D01*
X86869Y957316D01*
X86529Y957384D01*
G37*
%LPD*%
D10*
X406400Y608800D03*
X406400Y523800D03*
X406400Y493800D03*
D11*
X419100Y342900D03*
X342900Y342900D03*
D12*
X101600Y368300D03*
X101600Y393700D03*
X25400Y393700D03*
X25400Y368300D03*
X101600Y419100D03*
X101600Y444500D03*
X25400Y419100D03*
X25400Y444500D03*
D13*
X183896Y495300D02*
X197104Y495300D01*
X197104Y444500D02*
X183896Y444500D01*
X183896Y469900D02*
X197104Y469900D01*
D14*
X381400Y196700D03*
D15*
X406400Y196700D03*
X431400Y196700D03*
D16*
X451400Y266700D03*
X361400Y266700D03*
D13*
X381000Y755396D02*
X381000Y768604D01*
X431800Y768604D02*
X431800Y755396D01*
X406400Y755396D02*
X406400Y768604D01*
D17*
X393700Y863600D03*
X419100Y863600D03*
D18*
X304800Y228600D03*
X304800Y304800D03*
D17*
X317500Y596900D03*
X330200Y615950D03*
X342900Y596900D03*
D11*
X431800Y635000D03*
X381000Y635000D03*
X444500Y660400D03*
X368300Y660400D03*
X444500Y685800D03*
X368300Y685800D03*
D17*
X127000Y419100D03*
X203200Y419100D03*
D11*
X101600Y469900D03*
X25400Y469900D03*
D17*
X368300Y723900D03*
X444500Y723900D03*
X25400Y495300D03*
X101600Y495300D03*
X203200Y838200D03*
X279400Y838200D03*
D18*
X171450Y838200D03*
X171450Y914400D03*
D11*
X254000Y546100D03*
X177800Y546100D03*
D14*
X216300Y895200D03*
D15*
X241300Y895200D03*
X266300Y895200D03*
D16*
X286300Y965200D03*
X196300Y965200D03*
D17*
X203200Y863600D03*
X279400Y863600D03*
D19*
X88900Y965200D03*
X63500Y965200D03*
X38100Y965200D03*
D10*
X76200Y610400D03*
X76200Y695400D03*
X76200Y725400D03*
D14*
X178200Y590400D03*
D15*
X203200Y590400D03*
X228200Y590400D03*
D16*
X248200Y660400D03*
X158200Y660400D03*
D11*
X444500Y800100D03*
X368300Y800100D03*
D10*
X406400Y26200D03*
X406400Y111200D03*
X406400Y141200D03*
X76200Y316700D03*
X76200Y231700D03*
X76200Y201700D03*
X241300Y316700D03*
X241300Y231700D03*
X241300Y201700D03*
X76200Y26200D03*
X76200Y111200D03*
X76200Y141200D03*
D20*
X322580Y190500D02*
X337820Y190500D01*
X337820Y165100D02*
X322580Y165100D01*
X322580Y139700D02*
X337820Y139700D01*
D10*
X241300Y26200D03*
X241300Y111200D03*
X241300Y141200D03*
D20*
X449580Y355600D02*
X464820Y355600D01*
X464820Y381000D02*
X449580Y381000D01*
X33020Y762000D02*
X17780Y762000D01*
X17780Y787400D02*
X33020Y787400D01*
X33020Y812800D02*
X17780Y812800D01*
X17780Y838200D02*
X33020Y838200D01*
X33020Y863600D02*
X17780Y863600D01*
X17780Y889000D02*
X33020Y889000D01*
D21*
X381000Y196700D02*
X381400Y196700D01*
X381000Y196700D02*
X381000Y203200D01*
X304800Y279400D01*
X304800Y304800D01*
D22*
X279400Y330200D02*
X254000Y355600D01*
X215900Y355600D01*
X127000Y444500D02*
X101600Y444500D01*
X127000Y444500D02*
X215900Y355600D01*
D23*
X279400Y330200D03*
D21*
X419100Y342900D02*
X419100Y228600D01*
X431800Y215900D01*
X431800Y196700D01*
X431400Y196700D01*
D22*
X190500Y444500D02*
X165100Y444500D01*
X63500Y444500D02*
X63500Y406400D01*
X50800Y393700D01*
X25400Y393700D01*
X152400Y457200D02*
X165100Y444500D01*
X152400Y457200D02*
X76200Y457200D01*
X63500Y444500D01*
X342900Y419100D02*
X342900Y342900D01*
X342900Y419100D02*
X317500Y444500D01*
X292100Y444500D01*
X190500Y444500D01*
D23*
X292100Y444500D03*
D21*
X406400Y355600D02*
X406400Y196700D01*
X406400Y355600D02*
X431800Y381000D01*
X457200Y381000D01*
X368300Y647700D02*
X368300Y660400D01*
X368300Y647700D02*
X381000Y635000D01*
X444500Y660400D02*
X444500Y685800D01*
X444500Y660400D02*
X406400Y660400D01*
X393700Y673100D01*
X355600Y673100D01*
X330200Y647700D01*
X330200Y615950D01*
D23*
X431800Y419100D03*
D21*
X431800Y635000D02*
X419100Y635000D01*
X406400Y622300D01*
X406400Y608800D01*
X127000Y419100D02*
X101600Y419100D01*
X38100Y419100D02*
X25400Y419100D01*
X38100Y419100D02*
X50800Y431800D01*
X50800Y457200D01*
X38100Y469900D01*
X25400Y469900D01*
X25400Y495300D01*
X101600Y469900D02*
X190500Y469900D01*
X279400Y469900D01*
X279400Y660400D02*
X317500Y698500D01*
X419100Y698500D01*
X444500Y723900D01*
D23*
X279400Y660400D03*
X279400Y469900D03*
D21*
X317500Y495300D02*
X317500Y596900D01*
X317500Y495300D02*
X317500Y469900D01*
X317500Y495300D02*
X190500Y495300D01*
D23*
X317500Y469900D03*
D21*
X203200Y838200D02*
X171450Y838200D01*
X127000Y520700D02*
X101600Y495300D01*
X127000Y520700D02*
X228600Y520700D01*
X254000Y546100D01*
X241300Y876300D02*
X241300Y895200D01*
X241300Y876300D02*
X279400Y838200D01*
X266700Y876300D02*
X266300Y895200D01*
X266300Y876300D02*
X266700Y876300D01*
X279400Y863600D01*
X171450Y914400D02*
X101600Y914400D01*
X63500Y952500D01*
X63500Y965200D01*
X203200Y590400D02*
X203200Y571500D01*
X177800Y546100D01*
X215900Y610400D02*
X76200Y610400D01*
X228200Y590400D02*
X228600Y590400D01*
X228600Y596900D02*
X215900Y610400D01*
X228600Y596900D02*
X228600Y590400D01*
X444500Y774700D02*
X444500Y800100D01*
X444500Y774700D02*
X431800Y762000D01*
X317500Y800100D02*
X165100Y800100D01*
X330200Y787400D02*
X393700Y787400D01*
X330200Y787400D02*
X317500Y800100D01*
X406400Y774700D02*
X406400Y762000D01*
X406400Y774700D02*
X393700Y787400D01*
D23*
X165100Y800100D03*
D21*
X25400Y812800D02*
X317500Y812800D01*
X330200Y825500D01*
X444500Y825500D01*
X393700Y165100D02*
X368300Y139700D01*
X393700Y165100D02*
X393700Y419100D01*
D23*
X393700Y419100D03*
X368300Y139700D03*
X444500Y825500D03*
D21*
X127000Y787400D02*
X25400Y787400D01*
D23*
X127000Y787400D03*
D21*
X101600Y622300D02*
X266700Y622300D01*
X63500Y838200D02*
X25400Y838200D01*
D23*
X266700Y622300D03*
X101600Y622300D03*
X63500Y838200D03*
D21*
X25400Y533400D02*
X215900Y533400D01*
D23*
X25400Y533400D03*
X215900Y533400D03*
M02*
