M48
;GenerationSoftware,Autodesk,EAGLE,9.6.2*%
;CreationDate,2022-06-13T14:21:00Z*%
FMAT,2
ICI,OFF
METRIC,TZ,000.000
T7C0.350
T6C0.610
T5C0.813
T4C1.016
T3C1.100
T2C2.100
T1C3.200
%
G90
M71
T1
X40640Y95250
X3810Y17145
T2
X28630Y96520
X19630Y96520
X36140Y26670
X45140Y26670
X24820Y66040
X15820Y66040
T3
X24130Y14120
X24130Y11120
X24130Y2620
X24130Y89520
X26630Y89520
X24130Y31670
X7620Y14120
X7620Y11120
X7620Y61040
X7620Y69540
X40640Y60880
X40640Y52380
X40640Y49380
X7620Y2620
X24130Y20170
X24130Y23170
X21630Y89520
X7620Y20170
X7620Y23170
X7620Y31670
X40640Y14120
X40640Y11120
X40640Y2620
X7620Y72540
X17820Y59040
X22820Y59040
X38140Y19670
X40640Y19670
X43140Y19670
X20320Y59040
T4
X2540Y83820
X2540Y81280
X2540Y78740
X2540Y76200
X45720Y38100
X45720Y35560
X2540Y86360
X33020Y19050
X33020Y16510
X33020Y13970
X2540Y88900
T5
X43180Y63500
X38100Y63500
X44450Y66040
X36830Y66040
X44450Y68580
X36830Y68580
X12700Y41910
X20320Y41910
X10160Y46990
X2540Y46990
X36830Y72390
X44450Y72390
X2540Y49530
X10160Y49530
X20320Y83820
X27940Y83820
X17145Y83820
X17145Y91440
X25400Y54610
X17780Y54610
X34290Y59690
X33020Y61595
X31750Y59690
X30480Y30480
X30480Y22860
X20320Y86360
X27940Y86360
X41910Y34290
X34290Y34290
X10160Y36830
X41910Y86360
X39370Y86360
X40640Y76200
X43180Y76200
X38100Y76200
X19050Y46990
X19050Y44450
X19050Y49530
X44450Y80010
X36830Y80010
X2540Y44450
X2540Y41910
X10160Y44450
X10160Y41910
X2540Y36830
X2540Y39370
X10160Y39370
T6
X3810Y96520
X6350Y96520
X8890Y96520
T7
X21590Y53340
X2540Y53340
X6350Y83820
X10160Y62230
X26670Y62230
X12700Y78740
X44450Y82550
X36830Y13970
X39370Y41910
X16510Y80010
X31750Y46990
X27940Y46990
X27940Y66040
X43180Y41910
X29210Y44450
X27940Y33020
M30