G04 EAGLE Gerber RS-274X export*
G75*
%MOMM*%
%FSLAX34Y34*%
%LPD*%
%IN*%
%IPPOS*%
%AMOC8*
5,1,8,0,0,1.08239X$1,22.5*%
G01*
%ADD10C,0.254000*%


D10*
X0Y0D02*
X482600Y0D01*
X482600Y990600D01*
X0Y990600D01*
X0Y0D01*
X54102Y170926D02*
X54033Y169881D01*
X53897Y168842D01*
X53692Y167814D01*
X53421Y166802D01*
X53084Y165810D01*
X52683Y164842D01*
X52220Y163903D01*
X51696Y162995D01*
X51114Y162124D01*
X50476Y161293D01*
X49786Y160505D01*
X49045Y159764D01*
X48257Y159074D01*
X47426Y158436D01*
X46555Y157854D01*
X45647Y157330D01*
X44708Y156867D01*
X43740Y156466D01*
X42748Y156129D01*
X41736Y155858D01*
X40708Y155653D01*
X39669Y155517D01*
X38624Y155448D01*
X37576Y155448D01*
X36531Y155517D01*
X35492Y155653D01*
X34464Y155858D01*
X33452Y156129D01*
X32460Y156466D01*
X31492Y156867D01*
X30553Y157330D01*
X29645Y157854D01*
X28774Y158436D01*
X27943Y159074D01*
X27155Y159764D01*
X26414Y160505D01*
X25724Y161293D01*
X25086Y162124D01*
X24504Y162995D01*
X23980Y163903D01*
X23517Y164842D01*
X23116Y165810D01*
X22779Y166802D01*
X22508Y167814D01*
X22303Y168842D01*
X22167Y169881D01*
X22098Y170926D01*
X22098Y171974D01*
X22167Y173019D01*
X22303Y174058D01*
X22508Y175086D01*
X22779Y176098D01*
X23116Y177090D01*
X23517Y178058D01*
X23980Y178997D01*
X24504Y179905D01*
X25086Y180776D01*
X25724Y181607D01*
X26414Y182395D01*
X27155Y183136D01*
X27943Y183826D01*
X28774Y184464D01*
X29645Y185046D01*
X30553Y185570D01*
X31492Y186033D01*
X32460Y186434D01*
X33452Y186771D01*
X34464Y187042D01*
X35492Y187247D01*
X36531Y187383D01*
X37576Y187452D01*
X38624Y187452D01*
X39669Y187383D01*
X40708Y187247D01*
X41736Y187042D01*
X42748Y186771D01*
X43740Y186434D01*
X44708Y186033D01*
X45647Y185570D01*
X46555Y185046D01*
X47426Y184464D01*
X48257Y183826D01*
X49045Y183136D01*
X49786Y182395D01*
X50476Y181607D01*
X51114Y180776D01*
X51696Y179905D01*
X52220Y178997D01*
X52683Y178058D01*
X53084Y177090D01*
X53421Y176098D01*
X53692Y175086D01*
X53897Y174058D01*
X54033Y173019D01*
X54102Y171974D01*
X54102Y170926D01*
X422402Y951976D02*
X422333Y950931D01*
X422197Y949892D01*
X421992Y948864D01*
X421721Y947852D01*
X421384Y946860D01*
X420983Y945892D01*
X420520Y944953D01*
X419996Y944045D01*
X419414Y943174D01*
X418776Y942343D01*
X418086Y941555D01*
X417345Y940814D01*
X416557Y940124D01*
X415726Y939486D01*
X414855Y938904D01*
X413947Y938380D01*
X413008Y937917D01*
X412040Y937516D01*
X411048Y937179D01*
X410036Y936908D01*
X409008Y936703D01*
X407969Y936567D01*
X406924Y936498D01*
X405876Y936498D01*
X404831Y936567D01*
X403792Y936703D01*
X402764Y936908D01*
X401752Y937179D01*
X400760Y937516D01*
X399792Y937917D01*
X398853Y938380D01*
X397945Y938904D01*
X397074Y939486D01*
X396243Y940124D01*
X395455Y940814D01*
X394714Y941555D01*
X394024Y942343D01*
X393386Y943174D01*
X392804Y944045D01*
X392280Y944953D01*
X391817Y945892D01*
X391416Y946860D01*
X391079Y947852D01*
X390808Y948864D01*
X390603Y949892D01*
X390467Y950931D01*
X390398Y951976D01*
X390398Y953024D01*
X390467Y954069D01*
X390603Y955108D01*
X390808Y956136D01*
X391079Y957148D01*
X391416Y958140D01*
X391817Y959108D01*
X392280Y960047D01*
X392804Y960955D01*
X393386Y961826D01*
X394024Y962657D01*
X394714Y963445D01*
X395455Y964186D01*
X396243Y964876D01*
X397074Y965514D01*
X397945Y966096D01*
X398853Y966620D01*
X399792Y967083D01*
X400760Y967484D01*
X401752Y967821D01*
X402764Y968092D01*
X403792Y968297D01*
X404831Y968433D01*
X405876Y968502D01*
X406924Y968502D01*
X407969Y968433D01*
X409008Y968297D01*
X410036Y968092D01*
X411048Y967821D01*
X412040Y967484D01*
X413008Y967083D01*
X413947Y966620D01*
X414855Y966096D01*
X415726Y965514D01*
X416557Y964876D01*
X417345Y964186D01*
X418086Y963445D01*
X418776Y962657D01*
X419414Y961826D01*
X419996Y960955D01*
X420520Y960047D01*
X420983Y959108D01*
X421384Y958140D01*
X421721Y957148D01*
X421992Y956136D01*
X422197Y955108D01*
X422333Y954069D01*
X422402Y953024D01*
X422402Y951976D01*
M02*
