G04 EAGLE Gerber RS-274X export*
G75*
%MOMM*%
%FSLAX34Y34*%
%LPD*%
%INSoldermask Bottom*%
%IPPOS*%
%AMOC8*
5,1,8,0,0,1.08239X$1,22.5*%
G01*
%ADD10C,3.403600*%
%ADD11C,1.853200*%
%ADD12P,1.649562X8X202.500000*%
%ADD13C,1.524000*%
%ADD14C,1.524000*%
%ADD15R,1.879600X1.879600*%
%ADD16P,2.034460X8X292.500000*%
%ADD17R,3.319200X3.319200*%
%ADD18P,1.649562X8X22.500000*%
%ADD19P,1.649562X8X112.500000*%
%ADD20C,1.320800*%
%ADD21C,1.727200*%
%ADD22C,0.959600*%


D10*
X38100Y171450D03*
X406400Y952500D03*
D11*
X406400Y608800D03*
X406400Y523800D03*
X406400Y493800D03*
D12*
X419100Y342900D03*
X342900Y342900D03*
D13*
X101600Y368300D03*
X101600Y393700D03*
X25400Y393700D03*
X25400Y368300D03*
X101600Y419100D03*
X101600Y444500D03*
X25400Y419100D03*
X25400Y444500D03*
D14*
X183896Y495300D02*
X197104Y495300D01*
X197104Y444500D02*
X183896Y444500D01*
X183896Y469900D02*
X197104Y469900D01*
D15*
X381400Y196700D03*
D16*
X406400Y196700D03*
X431400Y196700D03*
D17*
X451400Y266700D03*
X361400Y266700D03*
D14*
X381000Y755396D02*
X381000Y768604D01*
X431800Y768604D02*
X431800Y755396D01*
X406400Y755396D02*
X406400Y768604D01*
D18*
X393700Y863600D03*
X419100Y863600D03*
D19*
X304800Y228600D03*
X304800Y304800D03*
D18*
X317500Y596900D03*
X330200Y615950D03*
X342900Y596900D03*
D12*
X431800Y635000D03*
X381000Y635000D03*
X444500Y660400D03*
X368300Y660400D03*
X444500Y685800D03*
X368300Y685800D03*
D18*
X127000Y419100D03*
X203200Y419100D03*
D12*
X101600Y469900D03*
X25400Y469900D03*
D18*
X368300Y723900D03*
X444500Y723900D03*
X25400Y495300D03*
X101600Y495300D03*
X203200Y838200D03*
X279400Y838200D03*
D19*
X171450Y838200D03*
X171450Y914400D03*
D12*
X254000Y546100D03*
X177800Y546100D03*
D15*
X216300Y895200D03*
D16*
X241300Y895200D03*
X266300Y895200D03*
D17*
X286300Y965200D03*
X196300Y965200D03*
D18*
X203200Y863600D03*
X279400Y863600D03*
D20*
X88900Y965200D03*
X63500Y965200D03*
X38100Y965200D03*
D11*
X76200Y610400D03*
X76200Y695400D03*
X76200Y725400D03*
D15*
X178200Y590400D03*
D16*
X203200Y590400D03*
X228200Y590400D03*
D17*
X248200Y660400D03*
X158200Y660400D03*
D12*
X444500Y800100D03*
X368300Y800100D03*
D11*
X406400Y26200D03*
X406400Y111200D03*
X406400Y141200D03*
X76200Y316700D03*
X76200Y231700D03*
X76200Y201700D03*
X241300Y316700D03*
X241300Y231700D03*
X241300Y201700D03*
X76200Y26200D03*
X76200Y111200D03*
X76200Y141200D03*
D21*
X322580Y190500D02*
X337820Y190500D01*
X337820Y165100D02*
X322580Y165100D01*
X322580Y139700D02*
X337820Y139700D01*
D11*
X241300Y26200D03*
X241300Y111200D03*
X241300Y141200D03*
D21*
X449580Y355600D02*
X464820Y355600D01*
X464820Y381000D02*
X449580Y381000D01*
X33020Y762000D02*
X17780Y762000D01*
X17780Y787400D02*
X33020Y787400D01*
X33020Y812800D02*
X17780Y812800D01*
X17780Y838200D02*
X33020Y838200D01*
X33020Y863600D02*
X17780Y863600D01*
X17780Y889000D02*
X33020Y889000D01*
D22*
X279400Y330200D03*
X292100Y444500D03*
X431800Y419100D03*
X279400Y660400D03*
X279400Y469900D03*
X317500Y469900D03*
X165100Y800100D03*
X393700Y419100D03*
X368300Y139700D03*
X444500Y825500D03*
X127000Y787400D03*
X266700Y622300D03*
X101600Y622300D03*
X63500Y838200D03*
X25400Y533400D03*
X215900Y533400D03*
M02*
