G04 EAGLE Gerber RS-274X export*
G75*
%MOMM*%
%FSLAX34Y34*%
%LPD*%
%INBoard Outline*%
%IPPOS*%
%AMOC8*
5,1,8,0,0,1.08239X$1,22.5*%
G01*
%ADD10C,0.000000*%
%ADD11C,0.254000*%


D10*
X0Y0D02*
X482600Y0D01*
X482600Y990600D01*
X0Y990600D01*
X0Y0D01*
X22098Y171450D02*
X22103Y171843D01*
X22117Y172235D01*
X22141Y172627D01*
X22175Y173018D01*
X22218Y173409D01*
X22271Y173798D01*
X22334Y174186D01*
X22405Y174572D01*
X22487Y174956D01*
X22578Y175338D01*
X22678Y175718D01*
X22787Y176095D01*
X22906Y176470D01*
X23033Y176841D01*
X23170Y177209D01*
X23316Y177574D01*
X23471Y177935D01*
X23634Y178292D01*
X23807Y178645D01*
X23987Y178993D01*
X24177Y179337D01*
X24375Y179677D01*
X24581Y180011D01*
X24795Y180340D01*
X25017Y180664D01*
X25247Y180982D01*
X25485Y181295D01*
X25730Y181602D01*
X25983Y181902D01*
X26243Y182196D01*
X26511Y182484D01*
X26785Y182765D01*
X27066Y183039D01*
X27354Y183307D01*
X27648Y183567D01*
X27948Y183820D01*
X28255Y184065D01*
X28568Y184303D01*
X28886Y184533D01*
X29210Y184755D01*
X29539Y184969D01*
X29873Y185175D01*
X30213Y185373D01*
X30557Y185563D01*
X30905Y185743D01*
X31258Y185916D01*
X31615Y186079D01*
X31976Y186234D01*
X32341Y186380D01*
X32709Y186517D01*
X33080Y186644D01*
X33455Y186763D01*
X33832Y186872D01*
X34212Y186972D01*
X34594Y187063D01*
X34978Y187145D01*
X35364Y187216D01*
X35752Y187279D01*
X36141Y187332D01*
X36532Y187375D01*
X36923Y187409D01*
X37315Y187433D01*
X37707Y187447D01*
X38100Y187452D01*
X38493Y187447D01*
X38885Y187433D01*
X39277Y187409D01*
X39668Y187375D01*
X40059Y187332D01*
X40448Y187279D01*
X40836Y187216D01*
X41222Y187145D01*
X41606Y187063D01*
X41988Y186972D01*
X42368Y186872D01*
X42745Y186763D01*
X43120Y186644D01*
X43491Y186517D01*
X43859Y186380D01*
X44224Y186234D01*
X44585Y186079D01*
X44942Y185916D01*
X45295Y185743D01*
X45643Y185563D01*
X45987Y185373D01*
X46327Y185175D01*
X46661Y184969D01*
X46990Y184755D01*
X47314Y184533D01*
X47632Y184303D01*
X47945Y184065D01*
X48252Y183820D01*
X48552Y183567D01*
X48846Y183307D01*
X49134Y183039D01*
X49415Y182765D01*
X49689Y182484D01*
X49957Y182196D01*
X50217Y181902D01*
X50470Y181602D01*
X50715Y181295D01*
X50953Y180982D01*
X51183Y180664D01*
X51405Y180340D01*
X51619Y180011D01*
X51825Y179677D01*
X52023Y179337D01*
X52213Y178993D01*
X52393Y178645D01*
X52566Y178292D01*
X52729Y177935D01*
X52884Y177574D01*
X53030Y177209D01*
X53167Y176841D01*
X53294Y176470D01*
X53413Y176095D01*
X53522Y175718D01*
X53622Y175338D01*
X53713Y174956D01*
X53795Y174572D01*
X53866Y174186D01*
X53929Y173798D01*
X53982Y173409D01*
X54025Y173018D01*
X54059Y172627D01*
X54083Y172235D01*
X54097Y171843D01*
X54102Y171450D01*
X54097Y171057D01*
X54083Y170665D01*
X54059Y170273D01*
X54025Y169882D01*
X53982Y169491D01*
X53929Y169102D01*
X53866Y168714D01*
X53795Y168328D01*
X53713Y167944D01*
X53622Y167562D01*
X53522Y167182D01*
X53413Y166805D01*
X53294Y166430D01*
X53167Y166059D01*
X53030Y165691D01*
X52884Y165326D01*
X52729Y164965D01*
X52566Y164608D01*
X52393Y164255D01*
X52213Y163907D01*
X52023Y163563D01*
X51825Y163223D01*
X51619Y162889D01*
X51405Y162560D01*
X51183Y162236D01*
X50953Y161918D01*
X50715Y161605D01*
X50470Y161298D01*
X50217Y160998D01*
X49957Y160704D01*
X49689Y160416D01*
X49415Y160135D01*
X49134Y159861D01*
X48846Y159593D01*
X48552Y159333D01*
X48252Y159080D01*
X47945Y158835D01*
X47632Y158597D01*
X47314Y158367D01*
X46990Y158145D01*
X46661Y157931D01*
X46327Y157725D01*
X45987Y157527D01*
X45643Y157337D01*
X45295Y157157D01*
X44942Y156984D01*
X44585Y156821D01*
X44224Y156666D01*
X43859Y156520D01*
X43491Y156383D01*
X43120Y156256D01*
X42745Y156137D01*
X42368Y156028D01*
X41988Y155928D01*
X41606Y155837D01*
X41222Y155755D01*
X40836Y155684D01*
X40448Y155621D01*
X40059Y155568D01*
X39668Y155525D01*
X39277Y155491D01*
X38885Y155467D01*
X38493Y155453D01*
X38100Y155448D01*
X37707Y155453D01*
X37315Y155467D01*
X36923Y155491D01*
X36532Y155525D01*
X36141Y155568D01*
X35752Y155621D01*
X35364Y155684D01*
X34978Y155755D01*
X34594Y155837D01*
X34212Y155928D01*
X33832Y156028D01*
X33455Y156137D01*
X33080Y156256D01*
X32709Y156383D01*
X32341Y156520D01*
X31976Y156666D01*
X31615Y156821D01*
X31258Y156984D01*
X30905Y157157D01*
X30557Y157337D01*
X30213Y157527D01*
X29873Y157725D01*
X29539Y157931D01*
X29210Y158145D01*
X28886Y158367D01*
X28568Y158597D01*
X28255Y158835D01*
X27948Y159080D01*
X27648Y159333D01*
X27354Y159593D01*
X27066Y159861D01*
X26785Y160135D01*
X26511Y160416D01*
X26243Y160704D01*
X25983Y160998D01*
X25730Y161298D01*
X25485Y161605D01*
X25247Y161918D01*
X25017Y162236D01*
X24795Y162560D01*
X24581Y162889D01*
X24375Y163223D01*
X24177Y163563D01*
X23987Y163907D01*
X23807Y164255D01*
X23634Y164608D01*
X23471Y164965D01*
X23316Y165326D01*
X23170Y165691D01*
X23033Y166059D01*
X22906Y166430D01*
X22787Y166805D01*
X22678Y167182D01*
X22578Y167562D01*
X22487Y167944D01*
X22405Y168328D01*
X22334Y168714D01*
X22271Y169102D01*
X22218Y169491D01*
X22175Y169882D01*
X22141Y170273D01*
X22117Y170665D01*
X22103Y171057D01*
X22098Y171450D01*
X390398Y952500D02*
X390403Y952893D01*
X390417Y953285D01*
X390441Y953677D01*
X390475Y954068D01*
X390518Y954459D01*
X390571Y954848D01*
X390634Y955236D01*
X390705Y955622D01*
X390787Y956006D01*
X390878Y956388D01*
X390978Y956768D01*
X391087Y957145D01*
X391206Y957520D01*
X391333Y957891D01*
X391470Y958259D01*
X391616Y958624D01*
X391771Y958985D01*
X391934Y959342D01*
X392107Y959695D01*
X392287Y960043D01*
X392477Y960387D01*
X392675Y960727D01*
X392881Y961061D01*
X393095Y961390D01*
X393317Y961714D01*
X393547Y962032D01*
X393785Y962345D01*
X394030Y962652D01*
X394283Y962952D01*
X394543Y963246D01*
X394811Y963534D01*
X395085Y963815D01*
X395366Y964089D01*
X395654Y964357D01*
X395948Y964617D01*
X396248Y964870D01*
X396555Y965115D01*
X396868Y965353D01*
X397186Y965583D01*
X397510Y965805D01*
X397839Y966019D01*
X398173Y966225D01*
X398513Y966423D01*
X398857Y966613D01*
X399205Y966793D01*
X399558Y966966D01*
X399915Y967129D01*
X400276Y967284D01*
X400641Y967430D01*
X401009Y967567D01*
X401380Y967694D01*
X401755Y967813D01*
X402132Y967922D01*
X402512Y968022D01*
X402894Y968113D01*
X403278Y968195D01*
X403664Y968266D01*
X404052Y968329D01*
X404441Y968382D01*
X404832Y968425D01*
X405223Y968459D01*
X405615Y968483D01*
X406007Y968497D01*
X406400Y968502D01*
X406793Y968497D01*
X407185Y968483D01*
X407577Y968459D01*
X407968Y968425D01*
X408359Y968382D01*
X408748Y968329D01*
X409136Y968266D01*
X409522Y968195D01*
X409906Y968113D01*
X410288Y968022D01*
X410668Y967922D01*
X411045Y967813D01*
X411420Y967694D01*
X411791Y967567D01*
X412159Y967430D01*
X412524Y967284D01*
X412885Y967129D01*
X413242Y966966D01*
X413595Y966793D01*
X413943Y966613D01*
X414287Y966423D01*
X414627Y966225D01*
X414961Y966019D01*
X415290Y965805D01*
X415614Y965583D01*
X415932Y965353D01*
X416245Y965115D01*
X416552Y964870D01*
X416852Y964617D01*
X417146Y964357D01*
X417434Y964089D01*
X417715Y963815D01*
X417989Y963534D01*
X418257Y963246D01*
X418517Y962952D01*
X418770Y962652D01*
X419015Y962345D01*
X419253Y962032D01*
X419483Y961714D01*
X419705Y961390D01*
X419919Y961061D01*
X420125Y960727D01*
X420323Y960387D01*
X420513Y960043D01*
X420693Y959695D01*
X420866Y959342D01*
X421029Y958985D01*
X421184Y958624D01*
X421330Y958259D01*
X421467Y957891D01*
X421594Y957520D01*
X421713Y957145D01*
X421822Y956768D01*
X421922Y956388D01*
X422013Y956006D01*
X422095Y955622D01*
X422166Y955236D01*
X422229Y954848D01*
X422282Y954459D01*
X422325Y954068D01*
X422359Y953677D01*
X422383Y953285D01*
X422397Y952893D01*
X422402Y952500D01*
X422397Y952107D01*
X422383Y951715D01*
X422359Y951323D01*
X422325Y950932D01*
X422282Y950541D01*
X422229Y950152D01*
X422166Y949764D01*
X422095Y949378D01*
X422013Y948994D01*
X421922Y948612D01*
X421822Y948232D01*
X421713Y947855D01*
X421594Y947480D01*
X421467Y947109D01*
X421330Y946741D01*
X421184Y946376D01*
X421029Y946015D01*
X420866Y945658D01*
X420693Y945305D01*
X420513Y944957D01*
X420323Y944613D01*
X420125Y944273D01*
X419919Y943939D01*
X419705Y943610D01*
X419483Y943286D01*
X419253Y942968D01*
X419015Y942655D01*
X418770Y942348D01*
X418517Y942048D01*
X418257Y941754D01*
X417989Y941466D01*
X417715Y941185D01*
X417434Y940911D01*
X417146Y940643D01*
X416852Y940383D01*
X416552Y940130D01*
X416245Y939885D01*
X415932Y939647D01*
X415614Y939417D01*
X415290Y939195D01*
X414961Y938981D01*
X414627Y938775D01*
X414287Y938577D01*
X413943Y938387D01*
X413595Y938207D01*
X413242Y938034D01*
X412885Y937871D01*
X412524Y937716D01*
X412159Y937570D01*
X411791Y937433D01*
X411420Y937306D01*
X411045Y937187D01*
X410668Y937078D01*
X410288Y936978D01*
X409906Y936887D01*
X409522Y936805D01*
X409136Y936734D01*
X408748Y936671D01*
X408359Y936618D01*
X407968Y936575D01*
X407577Y936541D01*
X407185Y936517D01*
X406793Y936503D01*
X406400Y936498D01*
X406007Y936503D01*
X405615Y936517D01*
X405223Y936541D01*
X404832Y936575D01*
X404441Y936618D01*
X404052Y936671D01*
X403664Y936734D01*
X403278Y936805D01*
X402894Y936887D01*
X402512Y936978D01*
X402132Y937078D01*
X401755Y937187D01*
X401380Y937306D01*
X401009Y937433D01*
X400641Y937570D01*
X400276Y937716D01*
X399915Y937871D01*
X399558Y938034D01*
X399205Y938207D01*
X398857Y938387D01*
X398513Y938577D01*
X398173Y938775D01*
X397839Y938981D01*
X397510Y939195D01*
X397186Y939417D01*
X396868Y939647D01*
X396555Y939885D01*
X396248Y940130D01*
X395948Y940383D01*
X395654Y940643D01*
X395366Y940911D01*
X395085Y941185D01*
X394811Y941466D01*
X394543Y941754D01*
X394283Y942048D01*
X394030Y942348D01*
X393785Y942655D01*
X393547Y942968D01*
X393317Y943286D01*
X393095Y943610D01*
X392881Y943939D01*
X392675Y944273D01*
X392477Y944613D01*
X392287Y944957D01*
X392107Y945305D01*
X391934Y945658D01*
X391771Y946015D01*
X391616Y946376D01*
X391470Y946741D01*
X391333Y947109D01*
X391206Y947480D01*
X391087Y947855D01*
X390978Y948232D01*
X390878Y948612D01*
X390787Y948994D01*
X390705Y949378D01*
X390634Y949764D01*
X390571Y950152D01*
X390518Y950541D01*
X390475Y950932D01*
X390441Y951323D01*
X390417Y951715D01*
X390403Y952107D01*
X390398Y952500D01*
D11*
X0Y0D02*
X482600Y0D01*
X482600Y990600D01*
X0Y990600D01*
X0Y0D01*
X54102Y170926D02*
X54033Y169881D01*
X53897Y168842D01*
X53692Y167814D01*
X53421Y166802D01*
X53084Y165810D01*
X52683Y164842D01*
X52220Y163903D01*
X51696Y162995D01*
X51114Y162124D01*
X50476Y161293D01*
X49786Y160505D01*
X49045Y159764D01*
X48257Y159074D01*
X47426Y158436D01*
X46555Y157854D01*
X45647Y157330D01*
X44708Y156867D01*
X43740Y156466D01*
X42748Y156129D01*
X41736Y155858D01*
X40708Y155653D01*
X39669Y155517D01*
X38624Y155448D01*
X37576Y155448D01*
X36531Y155517D01*
X35492Y155653D01*
X34464Y155858D01*
X33452Y156129D01*
X32460Y156466D01*
X31492Y156867D01*
X30553Y157330D01*
X29645Y157854D01*
X28774Y158436D01*
X27943Y159074D01*
X27155Y159764D01*
X26414Y160505D01*
X25724Y161293D01*
X25086Y162124D01*
X24504Y162995D01*
X23980Y163903D01*
X23517Y164842D01*
X23116Y165810D01*
X22779Y166802D01*
X22508Y167814D01*
X22303Y168842D01*
X22167Y169881D01*
X22098Y170926D01*
X22098Y171974D01*
X22167Y173019D01*
X22303Y174058D01*
X22508Y175086D01*
X22779Y176098D01*
X23116Y177090D01*
X23517Y178058D01*
X23980Y178997D01*
X24504Y179905D01*
X25086Y180776D01*
X25724Y181607D01*
X26414Y182395D01*
X27155Y183136D01*
X27943Y183826D01*
X28774Y184464D01*
X29645Y185046D01*
X30553Y185570D01*
X31492Y186033D01*
X32460Y186434D01*
X33452Y186771D01*
X34464Y187042D01*
X35492Y187247D01*
X36531Y187383D01*
X37576Y187452D01*
X38624Y187452D01*
X39669Y187383D01*
X40708Y187247D01*
X41736Y187042D01*
X42748Y186771D01*
X43740Y186434D01*
X44708Y186033D01*
X45647Y185570D01*
X46555Y185046D01*
X47426Y184464D01*
X48257Y183826D01*
X49045Y183136D01*
X49786Y182395D01*
X50476Y181607D01*
X51114Y180776D01*
X51696Y179905D01*
X52220Y178997D01*
X52683Y178058D01*
X53084Y177090D01*
X53421Y176098D01*
X53692Y175086D01*
X53897Y174058D01*
X54033Y173019D01*
X54102Y171974D01*
X54102Y170926D01*
X422402Y951976D02*
X422333Y950931D01*
X422197Y949892D01*
X421992Y948864D01*
X421721Y947852D01*
X421384Y946860D01*
X420983Y945892D01*
X420520Y944953D01*
X419996Y944045D01*
X419414Y943174D01*
X418776Y942343D01*
X418086Y941555D01*
X417345Y940814D01*
X416557Y940124D01*
X415726Y939486D01*
X414855Y938904D01*
X413947Y938380D01*
X413008Y937917D01*
X412040Y937516D01*
X411048Y937179D01*
X410036Y936908D01*
X409008Y936703D01*
X407969Y936567D01*
X406924Y936498D01*
X405876Y936498D01*
X404831Y936567D01*
X403792Y936703D01*
X402764Y936908D01*
X401752Y937179D01*
X400760Y937516D01*
X399792Y937917D01*
X398853Y938380D01*
X397945Y938904D01*
X397074Y939486D01*
X396243Y940124D01*
X395455Y940814D01*
X394714Y941555D01*
X394024Y942343D01*
X393386Y943174D01*
X392804Y944045D01*
X392280Y944953D01*
X391817Y945892D01*
X391416Y946860D01*
X391079Y947852D01*
X390808Y948864D01*
X390603Y949892D01*
X390467Y950931D01*
X390398Y951976D01*
X390398Y953024D01*
X390467Y954069D01*
X390603Y955108D01*
X390808Y956136D01*
X391079Y957148D01*
X391416Y958140D01*
X391817Y959108D01*
X392280Y960047D01*
X392804Y960955D01*
X393386Y961826D01*
X394024Y962657D01*
X394714Y963445D01*
X395455Y964186D01*
X396243Y964876D01*
X397074Y965514D01*
X397945Y966096D01*
X398853Y966620D01*
X399792Y967083D01*
X400760Y967484D01*
X401752Y967821D01*
X402764Y968092D01*
X403792Y968297D01*
X404831Y968433D01*
X405876Y968502D01*
X406924Y968502D01*
X407969Y968433D01*
X409008Y968297D01*
X410036Y968092D01*
X411048Y967821D01*
X412040Y967484D01*
X413008Y967083D01*
X413947Y966620D01*
X414855Y966096D01*
X415726Y965514D01*
X416557Y964876D01*
X417345Y964186D01*
X418086Y963445D01*
X418776Y962657D01*
X419414Y961826D01*
X419996Y960955D01*
X420520Y960047D01*
X420983Y959108D01*
X421384Y958140D01*
X421721Y957148D01*
X421992Y956136D01*
X422197Y955108D01*
X422333Y954069D01*
X422402Y953024D01*
X422402Y951976D01*
M02*
