M48
;GenerationSoftware,Autodesk,EAGLE,9.6.2*%
;CreationDate,2022-05-04T14:29:06Z*%
FMAT,2
ICI,OFF
METRIC,TZ,000.000
T5C0.350
T4C0.813
T3C0.914
T2C1.016
T1C3.200
%
G90
M71
T1
X44450Y17145
X7620Y95250
T2
X45720Y88900
X45720Y86360
X45720Y83820
X45720Y81280
X45720Y78740
X45720Y76200
X2540Y38100
X2540Y35560
X15240Y13970
X15240Y16510
X15240Y19050
T3
X29210Y6350
X29210Y3810
X26670Y6350
X26670Y3810
X24130Y6350
X24130Y3810
X21590Y6350
X21590Y3810
X19050Y6350
X19050Y3810
X40640Y38100
X33020Y38100
T4
X27940Y43180
X20320Y43180
X27940Y33020
X27940Y35560
X27940Y40640
X27940Y38100
X20320Y40640
X20320Y38100
X20320Y35560
X20320Y33020
X20320Y30480
X20320Y27940
X27940Y54610
X27940Y57150
X27940Y69850
X20320Y69850
X27940Y59690
X27940Y62230
X27940Y67310
X27940Y64770
X20320Y67310
X20320Y64770
X20320Y62230
X20320Y59690
X20320Y57150
X20320Y54610
X27940Y77470
X27940Y80010
X20320Y80010
X20320Y77470
X27940Y82550
X27940Y85090
X20320Y82550
X20320Y85090
X33020Y72390
X40640Y72390
X17780Y88900
X12700Y88900
X33020Y45720
X40640Y45720
X26670Y88900
X21590Y88900
X39370Y48260
X34290Y48260
X33020Y43180
X40640Y43180
X33020Y33020
X40640Y33020
X44450Y41910
X44450Y36830
X15240Y43180
X7620Y43180
X33020Y83820
X40640Y83820
X15240Y45720
X7620Y45720
X15240Y22860
X7620Y22860
X33020Y86360
X40640Y86360
X7620Y25400
X15240Y25400
X7620Y40640
X38735Y5080
X15240Y30480
X7620Y30480
X33020Y67310
X40640Y67310
X33020Y69850
X40640Y69850
X7620Y72390
X15240Y72390
X15240Y33020
X7620Y33020
X7620Y69850
X15240Y69850
X8890Y74930
X13970Y74930
X15240Y77470
X7620Y77470
X13970Y83185
X8890Y83185
X11430Y80645
X11430Y83185
X7620Y59690
X15240Y59690
X33020Y78740
X40640Y78740
X7620Y52070
X15240Y52070
X15240Y54610
X7620Y54610
X7620Y64770
X15240Y64770
X15240Y57150
X7620Y57150
X7620Y62230
X15240Y62230
X33020Y81280
X40640Y81280
X21590Y24130
X26670Y24130
X21590Y50800
X26670Y50800
X26670Y46990
X21590Y46990
X26670Y73660
X21590Y73660
X40640Y30480
X33020Y30480
X33020Y88900
X40640Y88900
X27940Y30480
X27940Y27940
X41275Y5080
X33020Y57150
X40640Y57150
X15240Y27940
X7620Y27940
X33020Y76200
X40640Y76200
X6985Y5080
X9525Y5080
X34290Y22860
X39370Y22860
X36830Y25400
X36830Y22860
X27940Y20955
X20320Y20955
X15240Y40640
T5
X38100Y55880
X10160Y69850
X3810Y64770
X16510Y67310
X35560Y38100
X12700Y25400
X12700Y29210
X22860Y83820
X36830Y44450
X27940Y25400
X39370Y60960
X30480Y60960
X24130Y80010
X24130Y45720
X25400Y19050
X25400Y77470
X38100Y81280
X12700Y44450
X30480Y26670
X41910Y74930
X8255Y36830
M30