G04 EAGLE Gerber RS-274X export*
G75*
%MOMM*%
%FSLAX34Y34*%
%LPD*%
%INSoldermask Top*%
%IPPOS*%
%AMOC8*
5,1,8,0,0,1.08239X$1,22.5*%
G01*
%ADD10C,3.403600*%
%ADD11C,1.524000*%
%ADD12C,1.524000*%
%ADD13P,1.649562X8X202.500000*%
%ADD14P,1.649562X8X22.500000*%
%ADD15P,1.649562X8X292.500000*%
%ADD16C,1.727200*%
%ADD17P,1.759533X8X22.500000*%
%ADD18P,1.951982X8X22.500000*%
%ADD19C,1.803400*%
%ADD20C,0.959600*%


D10*
X444500Y171450D03*
X76200Y952500D03*
D11*
X272796Y279400D02*
X286004Y279400D01*
X286004Y304800D02*
X272796Y304800D01*
X272796Y431800D02*
X286004Y431800D01*
X209804Y431800D02*
X196596Y431800D01*
X272796Y330200D02*
X286004Y330200D01*
X286004Y355600D02*
X272796Y355600D01*
X272796Y406400D02*
X286004Y406400D01*
X286004Y381000D02*
X272796Y381000D01*
X209804Y406400D02*
X196596Y406400D01*
X196596Y381000D02*
X209804Y381000D01*
X209804Y355600D02*
X196596Y355600D01*
X196596Y330200D02*
X209804Y330200D01*
X209804Y304800D02*
X196596Y304800D01*
X196596Y279400D02*
X209804Y279400D01*
X272796Y546100D02*
X286004Y546100D01*
X286004Y571500D02*
X272796Y571500D01*
X272796Y698500D02*
X286004Y698500D01*
X209804Y698500D02*
X196596Y698500D01*
X272796Y596900D02*
X286004Y596900D01*
X286004Y622300D02*
X272796Y622300D01*
X272796Y673100D02*
X286004Y673100D01*
X286004Y647700D02*
X272796Y647700D01*
X209804Y673100D02*
X196596Y673100D01*
X196596Y647700D02*
X209804Y647700D01*
X209804Y622300D02*
X196596Y622300D01*
X196596Y596900D02*
X209804Y596900D01*
X209804Y571500D02*
X196596Y571500D01*
X196596Y546100D02*
X209804Y546100D01*
D12*
X279400Y774700D03*
X279400Y800100D03*
X203200Y800100D03*
X203200Y774700D03*
X279400Y825500D03*
X279400Y850900D03*
X203200Y825500D03*
X203200Y850900D03*
D11*
X323596Y723900D02*
X336804Y723900D01*
X399796Y723900D02*
X413004Y723900D01*
D13*
X177800Y889000D03*
X127000Y889000D03*
D14*
X330200Y457200D03*
X406400Y457200D03*
D13*
X266700Y889000D03*
X215900Y889000D03*
X393700Y482600D03*
X342900Y482600D03*
D14*
X330200Y431800D03*
X406400Y431800D03*
X330200Y330200D03*
X406400Y330200D03*
D15*
X444500Y419100D03*
X444500Y368300D03*
D13*
X152400Y431800D03*
X76200Y431800D03*
D14*
X330200Y838200D03*
X406400Y838200D03*
D13*
X152400Y457200D03*
X76200Y457200D03*
X152400Y228600D03*
X76200Y228600D03*
D14*
X330200Y863600D03*
X406400Y863600D03*
X76200Y254000D03*
X152400Y254000D03*
X76200Y406400D03*
X152400Y406400D03*
D13*
X152400Y304800D03*
X76200Y304800D03*
D14*
X330200Y673100D03*
X406400Y673100D03*
D11*
X336804Y698500D02*
X323596Y698500D01*
X399796Y698500D02*
X413004Y698500D01*
D14*
X76200Y723900D03*
X152400Y723900D03*
D13*
X152400Y330200D03*
X76200Y330200D03*
D14*
X76200Y698500D03*
X152400Y698500D03*
X88900Y749300D03*
X139700Y749300D03*
D13*
X152400Y774700D03*
X76200Y774700D03*
D14*
X139700Y831850D03*
X88900Y831850D03*
X114300Y806450D03*
X114300Y831850D03*
X76200Y596900D03*
X152400Y596900D03*
X330200Y787400D03*
X406400Y787400D03*
D11*
X82804Y520700D02*
X69596Y520700D01*
X145796Y520700D02*
X159004Y520700D01*
X159004Y546100D02*
X145796Y546100D01*
X82804Y546100D02*
X69596Y546100D01*
D14*
X76200Y647700D03*
X152400Y647700D03*
D13*
X152400Y571500D03*
X76200Y571500D03*
D14*
X76200Y622300D03*
X152400Y622300D03*
X330200Y812800D03*
X406400Y812800D03*
X215900Y241300D03*
X266700Y241300D03*
X215900Y508000D03*
X266700Y508000D03*
D13*
X266700Y469900D03*
X215900Y469900D03*
X266700Y736600D03*
X215900Y736600D03*
X406400Y304800D03*
X330200Y304800D03*
D14*
X330200Y889000D03*
X406400Y889000D03*
D16*
X160020Y190500D02*
X144780Y190500D01*
X144780Y165100D02*
X160020Y165100D01*
X160020Y139700D02*
X144780Y139700D01*
D14*
X330200Y571500D03*
X406400Y571500D03*
D13*
X152400Y279400D03*
X76200Y279400D03*
D14*
X330200Y762000D03*
X406400Y762000D03*
D17*
X330200Y381000D03*
X406400Y381000D03*
D13*
X342900Y228600D03*
X393700Y228600D03*
X368300Y254000D03*
X368300Y228600D03*
X279400Y209550D03*
X203200Y209550D03*
D16*
X33020Y355600D02*
X17780Y355600D01*
X17780Y381000D02*
X33020Y381000D01*
X449580Y762000D02*
X464820Y762000D01*
X464820Y787400D02*
X449580Y787400D01*
X449580Y812800D02*
X464820Y812800D01*
X464820Y838200D02*
X449580Y838200D01*
X449580Y863600D02*
X464820Y863600D01*
X464820Y889000D02*
X449580Y889000D01*
D17*
X190500Y38100D03*
X190500Y63500D03*
X215900Y38100D03*
X215900Y63500D03*
X241300Y38100D03*
X241300Y63500D03*
X266700Y38100D03*
X266700Y63500D03*
X292100Y38100D03*
X292100Y63500D03*
D18*
X95250Y50800D03*
D19*
X69850Y50800D03*
D18*
X412750Y50800D03*
D19*
X387350Y50800D03*
D20*
X82550Y368300D03*
X254000Y774700D03*
X254000Y190500D03*
X241300Y457200D03*
X241300Y800100D03*
X304800Y609600D03*
X393700Y609600D03*
X279400Y254000D03*
X368300Y444500D03*
X228600Y838200D03*
X127000Y292100D03*
X127000Y254000D03*
X355600Y381000D03*
X165100Y673100D03*
X38100Y647700D03*
X101600Y698500D03*
X381000Y558800D03*
X381000Y812800D03*
X127000Y444500D03*
X304800Y266700D03*
X419100Y749300D03*
M02*
